<svg xmlns="http://www.w3.org/2000/svg" viewBox="0 0 493.9 503.8"><path fill="#95BDE5" d="M170.6 189.4c7.1 9.2 22.3 35.8 23.3 35.1 1-.7 26.4-11.7 26.2-14-.3-2.3-.3-3.9 0-5.9.3-2-.4-5.2 1.1-5.6 1.6-.4 1.6.4 1.7 2.3.2 1.9 1.7 4.1 4 3 1.4-.6 3-2 5.2-2.4 1.5-.3 3.2-.1 5.3 1 5.1 2.7 3.1 3.9 1.4 3.5-1.6-.4-2.9-2.2-4.7-1.7-1.9.5 1.3 1.6 2.1 3.8s-2.4 8.7-5.8 9.3c-3.5.6-4.8-.9-8 1.4-2.6 1.9-21.4 16.1-25.5 19-4.1 2.9-5 3.9-6.8 3.3-4.7-1.7-16.9-20.9-16.9-20.9l-2.6-31.2z"/><path fill="#95BDE5" d="M225.4 207.8c-2 .7-1.9 5.2-3.7 5.8-1.7.6-28.9 14.7-30.8 15.4-1.9.7-5.2-6.4-11.1-16.5l-7.2.7.6 7.3s12.2 19.2 16.9 20.9c1.8.6 2.6-.4 6.8-3.3 4.1-2.9 22.9-17 25.5-19 .9-.6 1.6-1 2.3-1.2l7.9-13.5c.1.1-5.2 2.7-7.2 3.4z"/><path fill="#2848BD" d="M157.7 182.5c-3.3 2.1-1 6.8.7 15.5 1.9 9.9 7.8 20.1 7.8 20.1s7.1 2.2 19.6-6.3c0 0-5.4-12.5-9.2-19-2.4-4.3-14.9-12.9-18.9-10.3z"/><path fill="#F9329C" d="M160.3 129.1c-3.7-15.9-19-17.8-28.8-11-9.8 6.8-19.9 6.5-21.5 25.9-1.6 19.3-8.4 13.9-13.4 25.1-4.9 11.2 11.7 18.8 9.3 26.1-2.5 7.4-7.8 13.8.5 22.1 0 0 5-13.1 15.6-10.1s21.8-21.3 19.2-32.2c-2.6-11-3-20.4 2-22.3 5.1-1.8 7.6-15.6 7-16.1-.4-.5 10.1-7.5 10.1-7.5z"/><linearGradient id="a" gradientUnits="userSpaceOnUse" x1="98.71" y1="161.535" x2="151.238" y2="161.535"><stop offset="0" stop-color="#b02788"/><stop offset="1" stop-color="#e72e98"/></linearGradient><path fill="url(#a)" d="M151.2 132.2c-4.5-12.5-11.6-13.7-19.5-10.8 0 0 5.9 1.2 5.9 2.7 0 0-12.9-.4-17.2 7.6-4.3 8-6.2 24.4-10.4 28.7-4.3 4.3-9.7 5.6-11.3 10.1-1.6 4.5 16.5 7.1 15.7 15.3-.8 8.2-1.2 14.2-2 17.4 0 0 19.1-6.7 20.6-7.2s8-11.7 6.3-21.4c-1.8-9.7-3.5-21.8-1.6-23.7 1.8-2 13.5-18.7 13.5-18.7z"/><path fill="#91BEFF" d="M146.8 143c-7.2-12.2 9.8-18.1 13.5-14 4.4 4.8 4.4 8.4 4.4 8.4l-17.9 5.6z"/><linearGradient id="b" gradientUnits="userSpaceOnUse" x1="154.744" y1="154.605" x2="173.755" y2="159.804"><stop offset="0" stop-color="#f9329c"/><stop offset="1" stop-color="#f95b47"/></linearGradient><path fill="url(#b)" d="M145.9 175c.4-5.5-5.2-18.1-3.9-25.6s12.3-18.6 20.4-15.5c12.2 4.7 4.8 9.3 4.8 9.3L145.9 175z"/><path fill="#E0EDFF" d="M154.6 455.6c-.3 11.7-1.3 14.1-4 19.7-2.7 5.4-.1 10.9.7 11.9 1.7 1.9 9.1 7.1 14.9 9.6 5.8 2.4 10.2 3.7 11.9 2.4 1.6-1.3 3.6-3.6-1.5-9.2-5.2-5.7-11.2-10.1-10.8-17.1.2-3.3 2.2-11.4 2.7-17.6.6-9.4-13.9.3-13.9.3z"/><path fill="#95BDE5" d="M155.1 433.5c-.2 5.8-.3 17.2-.7 23.6-.3 4.7 12.3 6 13.8 1 1.4-5 4-24.6 4-24.6h-17.1z"/><path fill="#C2DBFF" d="M153.2 409.1c-1.8 8.4 0 30.9-.1 32.1-.2 5.3 16.8 6.6 17.6 2.7 4.3-21.2 13.1-54.6 9.9-68.2l-16.1-97.1-21.2 3.4-12.8 43.3s16.3 39 23.8 62.2c3.4 10.7 2.7 4.3-1.1 21.6z"/><linearGradient id="c" gradientUnits="userSpaceOnUse" x1="-28.662" y1="290.036" x2="145.77" y2="372.451"><stop offset=".037" stop-color="#0f1782"/><stop offset=".123" stop-color="#0f1782"/><stop offset="1" stop-color="#0168ff"/></linearGradient><path fill="url(#c)" d="M122.9 262.2c-11 18.2-9.1 41.7.1 55.8 12.1 18.4 31.5 43.8 31.5 48.5 0 4.7.8-.3-18.1 10.3-14.3 8.1-9.9 15.5-32 28.9-7.7 4.7-15.6 4.5-14.5 12.7 1.7 13.4.7 22.6 1.9 25.3 3.1 6.8 7.6 7 8.5-1.5.7-6.8 5.3-20.9 11.9-25.4 12.1-8.2 45.4-24.3 58.6-30.9 13.9-6.9 14.6-17.8 8.4-29.1-3.8-7-10.8-37.7-18.2-56.7-4.1-10.6-7.2-18.5-7.2-18.5l-26.5-17.4-4.4-2z"/><linearGradient id="d" gradientUnits="userSpaceOnUse" x1="-28.662" y1="290.036" x2="145.77" y2="372.451"><stop offset=".037" stop-color="#0f1782"/><stop offset=".123" stop-color="#0f1782"/><stop offset="1" stop-color="#0168ff"/></linearGradient><path fill="url(#d)" d="M122.9 262.2c-11 18.2-9.1 41.7.1 55.8 12.1 18.4 31.5 43.8 31.5 48.5 0 4.7.8-.3-18.1 10.3-14.3 8.1-9.9 15.5-32 28.9-7.7 4.7-15.6 4.5-14.5 12.7 1.7 13.4.7 22.6 1.9 25.3 3.1 6.8 7.6 7 8.5-1.5.7-6.8 5.3-20.9 11.9-25.4 12.1-8.2 45.4-24.3 58.6-30.9 13.9-6.9 14.6-17.8 8.4-29.1-3.8-7-10.8-37.7-18.2-56.7-4.1-10.6-7.2-18.5-7.2-18.5l-26.5-17.4-4.4-2z"/><path fill="#E0EDFF" d="M122.9 262.2c-11 18.2-9.1 41.7.1 55.8 12.1 18.4 31.5 43.8 31.5 48.5 0 4.7.8-.3-18.1 10.3-14.3 8.1-9.9 15.5-32 28.9-7.7 4.7-18.1 4.4-17 12.6 1.7 13.4 1.2 24.6 2.4 27.3 3.1 6.8 10.1 7.1 10.9-1.4.7-6.8 4.8-22.9 11.5-27.4 12.1-8.2 45.4-24.3 58.6-30.9 13.9-6.9 14.6-17.8 8.4-29.1-3.8-7-10.8-37.7-18.2-56.7-4.1-10.6-7.2-18.5-7.2-18.5l-26.5-17.4-4.4-2z"/><path fill="#77A9E5" d="M116.7 396.7c-2.4 2.9 2.3 15.5 5.6 13.8 5.7-2.9 15-8.1 15-8.1-7.5-1.3-11.7-16.1-11.7-16.1s-5.8 6.7-8.9 10.4z"/><path fill="#2848BD" d="M134.9 172.8c9.4 5 27.8 16.6 27.8 16.6l3.8-4.4c7.9 4.4 8.4 8.2 10.1 17.9 6 34.7-2.3 33.2-9 64.8-2.6 12.4 6.9 43.3 6.9 52.1-6.9 5.2-49.5 19.1-54 .4 0 0-13.8-21.9-3.5-60.1 2.9-10.8 7-29.9 3.4-42.5-3.6-12.5-7.8-17.1 8.9-32.6l5.6-12.2z"/><path fill="#172182" d="M145.3 323.5c-10-5.5-22.5-26.6-17.3-41.7 5.3-15.2 12.5-19.4 21.9-21.1 9.4-1.7 25.9-14.5 16.6-15.5-9.4-1-24.3-1.1-30-12-5.7-10.9-14.4-25.9-9.9-33.9s17.1-2.4 20.4-18.4l-.4-1.3c-4.2-2.5-8.5-5-11.7-6.7l-5.5 12.3c-16.7 15.5-12.5 20-8.9 32.6 3.6 12.5-.5 31.7-3.4 42.5-10.3 38.2 3.5 60.1 3.5 60.1 2.9 12.3 22.3 10.5 37.2 6.4-2.6.1-6.8-.2-12.5-3.3z"/><path fill="#95BDE5" d="M151.8 167.6c0-5.4-.9-5-.9-5-.5-1.5.2-4.2-2.6-5-5.6-1.5-4.7 12.2-2 12 3.5-.3-4 10.4-4 10.4-1.1 3.9 20.4 9.5 20.4 9.5-.8-5.7 2.2-12.1 3-16.2.6-3.2-8.8-6.2-13.9-5.7z"/><path fill="#0F1782" d="M162.6 189.4c-.7-5.3.5-6.9.6-7.4.1-.4 4.3.7 3.1 3.7-1.2 2.9-3.7 3.7-3.7 3.7z"/><path fill="#95BDE5" d="M149.8 163c-1.8-3.5-2.4-3.2-3.1-1.6-.7 1.6-1.1 7.4 2.4 6.6 4.3-1 .7-5 .7-5z"/><path fill="#95BDE5" d="M153 152c-2.4 12.1-5.2 16.5-1.6 22.5 5.3 8.8 7.2 9.1 11.8 9.9 4.5.8 11.2-10.5 12.4-12.8 1.9-3.7.4-4 1.4-8 .6-2.5 1.3-2.6 2-7.7 1.9-13.5-23.1-18.7-26-3.9z"/><linearGradient id="e" gradientUnits="userSpaceOnUse" x1="173.07" y1="159.808" x2="206.264" y2="168.887"><stop offset="0" stop-color="#f9329c"/><stop offset="1" stop-color="#f95b47"/></linearGradient><path fill="url(#e)" d="M150.7 161.9c2.5 1.9 5.9 1.1 8.2-2.5 2.3-3.5 6.1-14 13.5-9 1.4.9 4.8-3.1 3 5.9-1.1 5.6.3 11.5 3.1 17.2 2.8 5.6 4.2 6.4 2.5 13.5 3.8-6.6 8.2-8.8 5.8-18.3-1.9-7.6 5.5-16.5 2.8-23.1-2.7-6.7-14.9-14-24-8.5 0 0-5.1-2.1-9.8 3.1-7.8 8.8-5.1 21.7-5.1 21.7z"/><linearGradient id="f" gradientUnits="userSpaceOnUse" x1="150.747" y1="163.555" x2="183.539" y2="163.555"><stop offset="0" stop-color="#b02788"/><stop offset="1" stop-color="#e72e98"/></linearGradient><path fill="url(#f)" d="M150.7 161.9c11.7-7.7 8.4-16.8 17.5-15 5.3 1-2.1-5.9-.8-6.6 3.8-1.9 16.1 6.8 12.8 19-2.1 7.8 7.8 19.5.8 27.7 4.2-10.8-6.6-13.6-5.8-29.7.2-3.2-16.9 8-23.5 5.1l-1-.5z"/><path fill="#080F51" d="M146.1 173.8c-4-1.5-10.7-2.1-11.2-1-1.4 3.2 4 7.5 11.4 11 0 0-3.3-2.2-2.6-4.1.5-1.7 1.3-2.9 2.4-5.9z"/><path fill="#95BDE5" d="M130.2 189.4c-13.5 6-15.2 14.7-11.5 30.6 2.3 9.9 10 24 15.4 34.1 3.3 6.1 4 11.1 7.1 11.7 19.9 3.4 40.4-6.5 69.1-14.3 0 0 .2-3.5-2.4-7 0 0-31.9 5.3-44.3 6.4l-13.6 1.2s-8.3-17.8-11.9-30.6c-3.5-12.9-7.9-32.1-7.9-32.1z"/><path fill="#95BDE5" d="M147 258.1c-3-2.5-14-18.8-19.8-34.3l-6.6 2.2c3.3 9.1 9.2 19.9 13.6 28.1 3.3 6.1 4 11.1 7.1 11.7 13.3 2.3 26.9-1.4 43-6.4-13.2 1.3-34.4 1.2-37.3-1.3z"/><path fill="#0F1782" d="M131.4 188.1c-12.8 4.2-14.4 9.9-14.4 18.7 0 10.1 3.8 21.2 3.8 21.2s6.6 3.5 20.4-2.5c0 0-5.6-24.3-5.5-24.7.2-.4-4.3-12.7-4.3-12.7z"/><path fill="#95BDE5" d="M207.6 244.8c4.2-2.5 4.7-4.4 6.7-6.2 2-1.8 2.2-.1 1.1 2.6s6.1 2.8 8 1.5c1.9-1.3 1.8-3.3 2.5-3.7s1.9 0 1.2 2.1c0 0 .5-.2.7.5.3.7.1 2.8-1.1 4.7-1.2 1.9-1.1 4.8-2.7 5.6-1.6.8-9.5.7-13.9-.5-4.3-1.1-2.5-6.6-2.5-6.6z"/><path fill="#172182" d="M133.6 194.2c-1.1-3.1-2.2-6.1-2.2-6.1-12.8 4.2-14.4 9.9-14.4 18.8 0 10.1 3.8 21.2 3.8 21.2s2.3 1.3 7.2 1c-1.4-7-4.6-29.1 5.6-34.9z"/><path fill="#E0EDFF" d="M458.5 441.6c2.7 3.1 9.2 7.4 8.8 10.2-.4 2.8-7.4 18.7-11.1 24.5-3.7 5.8-12.6 10-15.4 9.5-4.9-.9-8.8-1.5-5.1-6 5.3-6.4 8.4-20.6 4.7-27.3-3.8-6.6 18.1-10.9 18.1-10.9zM372.7 419.1c.4 3.6 3.1 10 1.4 11.9-1.7 1.9-19.5 10.8-25.1 13.4-5.6 2.5-15.3.1-16.9-1.1-1.6-1.2 2.5-5 8.5-9.1s12.9-8.6 13.5-15.4c.5-6.9 18.6.3 18.6.3z"/><path fill="#C2DBFF" d="M369.9 355.3c-4.3 3.4 6.8 3.3 3.5 51.9-.5 7-.7 9.4-.7 11.9 0 2.3-16.4.9-15.8-2.5 3.1-16.8-9.3-48.5-12.8-65.5-1.7-8.3-7.8-15 18.7-29.5 25.2-13.8 47.7-24.6 50.9-27 17.3-13.1 68-5.9 42.2 21.6-17.6 18.7-65.9 23.4-86 39.1z"/><path fill="#C2DBFF" d="M419.6 394.3c-1.7 5.2 7.5-1.1 32 41 3.5 6 5.7 5.2 7.4 6.8 2.5 2.4-16.3 13.2-17.4 10.4-6.2-16-33.4-35.2-45.8-47.3-6.1-5.9-12-6.7-1.1-34.9 10.4-27 16.9-48.1 18.2-51.9 7-20.6 61.8-42.1 55.9-4.9-4 25.5-41.4 56.5-49.2 80.8z"/><path fill="#F2F5FA" fill-opacity=".5" d="M398.8 400.9c-1.9-12.9-1.5-9.7 1.2-21.4 2.2-9.6 23.1-48.6 33.9-56 9.5-6.5 8.5-4.9 12.3-11.2 3.2-5.4-21-10.6-28.1-10.9-.2.5-19.9 5.5-6.8 5.6 4 0-6.1 36.4-16.5 63.4-10.8 28.2-4.9 29 1.1 34.9 12.4 12.1 3.9 2.4 2.9-4.4z"/><path fill="#95BDE5" d="M418.8 268.7c10.3 2.9 22.2 6 28.4 7.8 0 0 4.8-11.5 8.5-19.7 3.5-7.5 1.2-16.3 6.5-20.7 5.4-4.5 8.7-9 12.8-1.5 4.2 7.6-4.2 20.3-9.8 29.1-5.5 8.8-8.4 18.2-11.7 22.5-4.2 5.5-6.3 6.1-12.5 2.9-7.2-3.7-19-6.6-27.4-13.7-2.9-2.5 1-7.9 5.2-6.7z"/><path fill="#080F51" d="M459.6 203.9c-3.7-3.2-13.6-3.9-13.6-3.9l-17.6 3-2.3 17.7 33.2-7.8.3-9z"/><path fill="#2848BD" d="M415.4 180c-8.1-9.9 1.8-15.6 10.2-20.9 3.3-2.1 16.9-7.5 21.2 1.7 4.1-.2 7.1 2.2 7.9 11.3 1 11.3-3.4 15.6-5.3 24.7l-27.2-17.3-6.8.5z"/><path fill="#173A99" d="M445 188.3c-2.7-5.3-9.4-14.3-7.2-20.4.4-1.2 3.5-4.8 7.2-7 .5-1.4-.9-2.9-4.4-1.3-4.5 1.9-5.2 5-9.8 10.6-4.3 5.1-5.5 3.7-12.6 6.2-2.1.8 2 2.3 2 2.3l5 3.7 16.5 6.9 3.3-1z"/><path fill="#95BDE5" d="M440.1 189.9c4-1.7 5.6-2.2 5.6-2.2.6-1.3.9-4.4 3.6-4.8 5.4-.9 3.5 11.1.9 10.7-3.3-.5.1 14.1 6.6 19.7 4 3.5-18.8 5.7-24 3.5-8.9-3.9 3.9-15.6-1.3-21.6-2-2.3 3.8-6.1 8.6-5.3z"/><path fill="#95BDE5" d="M432.2 202.1c-1.4 9.7 6.2 11.5 6.2 11.5l-.8 7.3s-15.1-.5-15-.9c0-.4 5-12.9 5-12.9l4.6-5zM446.9 188.2c1-3.5 3-3.3 3.6-1.9.6 1.4 0 7.4-2.8 5.6-1.3-.8-1.1-2.8-.8-3.7z"/><path fill="#95BDE5" d="M439.6 184.5c2.8 6.3 9.3 8 5.4 12.9-5.7 7.3-7.6 7.3-12 7.6-4.3.3-9.7-8.4-10.3-10.6-1.2-4.5-.7-6.9-1.2-8.9-.5-2.3-1.6-2.4-1.3-6.9 0 0 4-.2 7.9-2.7 2.3-1.5 4.8-1.1 7.3.9 2.5 2.2 2.2 3.2 4.2 7.7z"/><path fill="#FFF" d="M452.8 310c-27.8 2.2-48-2.7-48-2.7l6.3-80.2 10.2-17.1s5.4 9.1 29.2 5.7c23.9-3.3 2.3 94.3 2.3 94.3z"/><path fill="#C2DBFF" d="M434 216s-4 29.5-4.9 39.7c-.9 10.2-2.3 37.7-11 45.6-11.7 10.6-21.6 11-16.9 6.2 9.3-9.4 18.3-89.9 18.3-89.9s4.3-5.1 6.6-3.9c2.4 1.2 7.9 2.3 7.9 2.3z"/><path fill="#2848BD" d="M441.1 214c13.2-2.7 18.5-10.1 18.5-10.1s4.6 7.8 6.2 10.1c1.7 2.2 2.2 3.1 8.6 7.4 6 4 3.9 33.9 2 41-10.7 39.2-.2 65.4-17.9 94.6-5.9 9.7-36.2 2.1-36.2 2.1 20.1-144.9 19.6-126 20.4-131.7.6-4-1.6-13.4-1.6-13.4zM378.9 310.3c13.4-5 21.1-10.1 23.5-21.7 3.6-17.9-.3-45.2 4.1-62.5 1.9-7.5 5.4-18.2 12.9-19.4 7.9-1.3 9.1-3.6 9.1-3.6s-.8 3.4 1.5 9.1c0 0-3.4 7.2-3.8 8.6-7.6 23.4-7.8 52.7-15.2 82.2-1.9 7.5-22.8 26-22.8 26s-23.3-13.4-9.3-18.7z"/><path fill="#B7CFF5" d="M309.9 263.9l67.9 25.8c4.2 1.6 9.6.5 12.1-2.5l46.5-57c2.4-3 1-6.7-3.3-8.3l-67.9-25.8c-4.2-1.6-9.6-.5-12.1 2.5l-46.5 57c-2.4 3-.9 6.7 3.3 8.3z"/><path fill="#E0EDFF" d="M309.3 262.9l67.9 25.8c4.2 1.6 9.6.5 12.1-2.5l46.5-57c2.4-3 1-6.7-3.3-8.3l-67.9-25.8c-4.2-1.6-9.6-.5-12.1 2.5l-46.5 57c-2.4 3-.9 6.7 3.3 8.3z"/><path fill="#95BDE5" d="M412.8 275c-10.4-4.8-12.2-9.9-18.4-10.4-6.2-.5-1.8-4.5.9-5.5s5.3-.7 8.1.2c-.2-.4-2.7-2.6-4.4-2.7-3.4-.1-1.7-2.5.6-2.2 1.7.2 4 1.3 5.6 2.8 1.6 1.5 5.4 3.9 5.8 3.7s.8-1.4-1.3-3.5-.8-4.1 2.7-.7c3.5 3.4 4 9.4 6.4 11.8s-6 6.5-6 6.5z"/><path fill="#95BDE5" d="M413.6 275.3s3.4-2.2 4.9-4.2c-7.6-6.1-10.5-5.2-13.8-5.6-3.5-.4-5.2-.9-6.2.3 5.5 4.5 12.2 8.5 15.1 9.5zM323.9 232.4c1.5 4.5 6.3 1.9 6.3-.9v-3.8s1.3 3.3 2.3 3c1-.4.9-1.1.1-3.4s-1.2-3.8-1.2-3.8l2.3-2.6s-2-1.2-4.3-1.2-5.8 5.5-5.8 7.1c0 1.6.3 5.6.3 5.6zM336.5 217.2c-3.1-3.8-3-5.2-4-4.1s2.1 6.5 2.1 6.5l1.9-2.4z"/><path fill="#173A99" d="M466.4 236.7c-13.4 6-18 34.8-19.7 38.5-1.7 3.7-3.4 4.6-3.6 7-.1 2.5.5 4.4-2.1 3.7-3.4-.8-1.7 3.8-6.6 1.9-4.9-1.9-.2-5.9-2.2.8-1.7 5.9-6.1 43.5-6.1 43.5 32.4 7.1 29.8-29.1 30.4-32.2 1.1-5.4 8.2-14.3 8.2-14.3s6.2-13.3 11.3-26.3c5.7-14.1-7.8-23.4-9.6-22.6z"/><path fill="#173A99" d="M446.3 212.8c5 17.6 2.4 16.6 1 23.8-1.4 7.2-9.2 44-10.1 47.2s-3.3-9.3-3.3-9.3 7.3-42.5 7.9-44.3c.6-1.8.9-3.7.6-4.8-.2-1.1-2-11.5-2-11.5l5.9-1.1z"/><path fill="#2848BD" d="M465.8 224.7c-13.4 6-18 34.8-19.7 38.5s-3.4 4.6-3.6 7c-.1 2.5.5 4.4-2.1 3.7-3.4-.8-18.7-5.7-23.7-7.6-4.9-1.9-9 7.7-3.7 12.4s20.2 10.6 28 12.5c7.8 1.9 10.6 2.2 11.2-.9 1.1-5.4 5-3.4 4.7-6.4-.2-3-.1-3.5 1.9-5.1 2-1.5 5.3-5.3 5.3-5.3s6.2-13.3 11.3-26.3c5.7-14-7.9-23.3-9.6-22.5z"/><path fill="#83A9FF" d="M442.5 270.2c-.1 2.5.5 4.4-2.1 3.7-3.4-.8-18.7-5.7-23.7-7.6-1.5-.6-3-.1-4.1 1.1 5.1 2 19.1 7.7 23.8 10.1 5.8 3 9.6 1 11.6-1s2.2-1.5 4.1-15.8c1.9-14.4 6.8-13.9 5.1-27.8-7 10.8-9.9 27.6-11.1 30.4-1.7 3.7-3.5 4.5-3.6 6.9z"/><linearGradient id="g" gradientUnits="userSpaceOnUse" x1="166.411" y1="361.238" x2="126.538" y2="363.257"><stop offset="0" stop-color="#e0edff"/><stop offset="1" stop-color="#c2dbff"/></linearGradient><path fill="url(#g)" d="M0 385.3v-11.6l15.8-1.4 234-85.4c8.9-3.2 18.7-3.2 27.6 0l102.4 37.3 11-.9V335c-.1 3.5-2.1 7-6.1 8.4l-244.3 89.1c-8.9 3.2-18.7 3.2-27.6 0L6.3 393.8c-4-1.5-6.1-4.9-6.3-8.5z"/><path fill="#97B6E6" d="M6.3 384.2L112.8 423c8.9 3.2 18.7 3.3 27.6 0l244.3-89.1c8.1-3 8.1-14.4 0-17.4l-107.3-39.1c-8.9-3.2-18.7-3.3-27.6 0L6.3 366.3c-8.4 3-8.4 14.9 0 17.9z"/><path fill="#FFF" d="M6.3 383.7l106.5 38.8c8.9 3.2 18.7 3.3 27.6 0l244.3-89.1c8.1-3 8.1-14.4 0-17.4l-107.3-39.1c-8.9-3.2-18.7-3.3-27.6 0L6.3 365.8c-8.4 3-8.4 14.9 0 17.9z"/><linearGradient id="h" gradientUnits="userSpaceOnUse" x1="-151.72" y1="348.888" x2="599.943" y2="348.888"><stop offset="0" stop-color="#ef8135"/><stop offset=".074" stop-color="#ee7c3c"/><stop offset=".618" stop-color="#e5576a"/><stop offset=".891" stop-color="#e1497c"/></linearGradient><path fill="url(#h)" d="M8.4 379.5L114 418c8.2 3 17.2 3 25.5 0l243-88.6c5.2-1.9 5.2-9.3 0-11.2l-105.6-38.5c-8.2-3-17.2-3-25.5 0l-243 88.6c-5.2 2-5.2 9.3 0 11.2z"/><path fill="#B7CFF5" d="M161.2 303.3l63.5 24c4 1.6 10.5 1.5 14.5-.4l64.8-27.4c4.1-1.9 4.2-7.4.3-9.1L240.8 264c-4-1.6-10.5-1.5-14.5.4l-64.8 30.1c-4.1 1.9-4.3 7.2-.3 8.8z"/><path fill="#F2F2F2" d="M161.2 302.3l63.5 24c4 1.6 10.5 1.5 14.5-.4l64.8-27.4c4.1-1.9 4.2-7.4.3-9.1L240.8 263c-4-1.6-10.5-1.5-14.5.4l-64.8 30.1c-4.1 1.9-4.3 7.1-.3 8.8z"/><path fill="#C2DBFF" d="M309.7 184.8l65.9 24c4.1 1.5 8.6-.2 10-3.9l26.7-69.1c1.4-3.6-.8-7.8-4.9-9.3l-65.9-24c-4.1-1.5-8.6.2-10 3.9l-26.7 69.1c-1.4 3.6.8 7.8 4.9 9.3z"/><path fill="#F2F2F2" d="M308.8 184.5l65.9 24c4.1 1.5 8.6-.2 10-3.9l26.7-69.1c1.4-3.6-.8-7.8-4.9-9.3l-65.9-24c-4.1-1.5-8.6.2-10 3.9l-26.7 69.1c-1.4 3.6.8 7.8 4.9 9.3z"/><path fill="#B7CFF5" d="M210.9 244.1l67.9 25.8c4.2 1.6 9.6.5 12.1-2.5l46.5-57c2.4-3 1-6.7-3.3-8.3l-67.9-25.8c-4.2-1.6-9.6-.5-12.1 2.5l-46.5 57c-2.4 3-.9 6.7 3.3 8.3z"/><path fill="#F2F2F2" d="M210.3 243.6l67.9 25.8c4.2 1.6 9.6.5 12.1-2.5l46.5-57c2.4-3 1-6.7-3.3-8.3l-67.9-25.8c-4.2-1.6-9.6-.5-12.1 2.5l-46.5 57c-2.4 2.9-.9 6.7 3.3 8.3z"/><path fill="#C2DBFF" d="M342.1 94.1l66.1 24.1c4.1 1.5 7.5-.6 7.5-4.8V34.7c0-4.1-3.3-8.7-7.5-10.2L342.1.5c-4.1-1.5-7.5.6-7.5 4.8V84c.1 4 3.4 8.6 7.5 10.1z"/><linearGradient id="i" gradientUnits="userSpaceOnUse" x1="1807.466" y1="102.434" x2="1481.992" y2="-113.789" gradientTransform="matrix(-1 0 0 1 2117.854 0)"><stop offset="0" stop-color="#fff"/><stop offset="1" stop-color="#c2dbff"/></linearGradient><path fill="url(#i)" d="M341.2 94.8l66.1 24.1c4.1 1.5 7.5-.6 7.5-4.8V35.4c0-4.1-3.3-8.7-7.5-10.2l-66.1-24c-4.1-1.5-7.5.6-7.5 4.8v78.7c0 4 3.3 8.6 7.5 10.1z"/><path fill="#B7CFF5" d="M69.3 340.3l59.1 22.7c3.9 1.5 9.4 1.9 12.2.9l74.5-26.8c2.8-1 4.2-4.9-1-6.4l-60.8-23.4c-3.9-1.5-9.4-1.9-12.2-.9L68 332.8c-4 1.4-5.3 5.5 1.3 7.5z"/><path fill="#F2F2F2" d="M69.3 339.3l59.1 22.7c3.9 1.5 9.4 1.9 12.2.9l74.5-26.8c2.8-1 4.2-4.9-1-6.4l-60.8-23.4c-3.9-1.5-9.4-1.9-12.2-.9L68 331.7c-4 1.5-5.3 5.5 1.3 7.6z"/><path fill="#95BDE5" d="M203.8 245.3c4-2.9 4.3-4.8 6.1-6.8 1.8-2 2.2-.3 1.3 2.5-.8 2.8 6.7 6.2 8.9 6.7 2.6.6 6 1.6 6.8 1.9 2 .7.8 1.5-.9 1.9 0 0 1.4 1.2.1 1.9-2.3 1.1-7.4.7-9.2.9-3 .4-5.6-1.8-10.1-2.6-4.4-.7-3-6.4-3-6.4z"/><path fill="#83A9FF" d="M372.5 238.1c5.7 3.9 11.4 7.7 17.1 11.6.4.3.4.3 0 .7-5.2 5.1-10.5 10.2-15.6 15.3-2 2-5 2.8-7.5 2.2-.5-.1-1.1-.3-1.5-.6-8.8-6-17.7-11.9-26.4-17.9-1.8-1.2-2.2-3.5-1.2-5.5.4-.7.9-1.4 1.5-1.9l15.6-15.3c.4-.4.5-.4 1-.1 5.6 3.8 11.3 7.6 17 11.5zm-16.8 5.8c-2 1.9-3.9 3.8-5.9 5.7-1.1 1.1-.8 2.1.7 2.3.4.1.9.1 1.4.1 4.9.4 9.9.8 14.8 1.2 1.3.1 2.3-.8 2-1.9 0-.1-.1-.2-.1-.3-1.2-3.7-2.5-7.4-3.7-11.1-.2-.6-.4-1.2-.7-1.8-.5-.9-1.5-.9-2.4-.1l-.6.6c-1.9 1.7-3.7 3.5-5.5 5.3zM367.8 232.9c-.8-.6-1.6-1.1-2.5-1.7-.4-.2-.3-.3.1-.5 1.6-.8 3.3-1.6 4.9-2.4.3-.2.6-.2.8 0 1.6 1.1 3.3 2.2 4.9 3.3.4.3.4.4-.1.6-1.6.8-3.1 1.5-4.7 2.3-.4.2-.8.2-1.1 0-.7-.5-1.5-1.1-2.3-1.6zM377.8 239.7c-.8-.6-1.7-1.1-2.5-1.7-.3-.2-.3-.3.1-.5 1.6-.8 3.3-1.6 4.9-2.4.3-.2.6-.2.9 0 1.6 1.1 3.3 2.2 4.9 3.3.4.3.4.3-.1.6-1.6.8-3.2 1.5-4.8 2.3-.4.2-.7.2-1 0-.8-.6-1.6-1.1-2.4-1.6zM380.6 227.2c-.8-.3-1.6-.6-2.3-.9-1.3-.5-2.6-1-4-1.5-.3-.1-.4-.3-.4-.6.3-1.6.6-3.1.9-4.7.1-.3.2-.3.5-.2.9.3 1.8.7 2.8 1 1 .4 2 .8 3 1.1.4.1.6.3.5.7-.3 1.5-.6 3.1-.9 4.6 0 .2-.1.3-.1.5zM385.7 229.1c0-.1-.1-.2-.1-.3.3-1.6.6-3.2.9-4.7.1-.3.2-.4.5-.2 2 .8 4 1.5 6 2.3.1.1.3.3.3.4-.3 1.6-.6 3.2-.9 4.7-.1.4-.3.3-.6.2-.8-.3-1.6-.6-2.3-.9l-3.3-1.2c-.1-.1-.3-.2-.5-.3zM388 246.6c-.9-.6-1.9-1.3-2.8-1.9-.4-.2-.3-.3.1-.5 1.6-.8 3.3-1.6 4.9-2.4.4-.2.6-.2.9 0 1.3.9 2.5 1.7 3.8 2.6.3.2.4.4 0 .7-1.1 1.1-2.3 2.2-3.4 3.3-.3.3-.5.3-.8.1-.8-.6-1.7-1.3-2.7-1.9zM363.4 223.1c.9.6 1.8 1.2 2.7 1.9.4.3.4.4-.1.6-1.6.8-3.1 1.5-4.7 2.3-.5.2-.8.3-1.2 0-1.2-.9-2.4-1.7-3.7-2.5-.3-.2-.3-.4 0-.7l3.3-3.3c.3-.3.5-.3.8-.1 1.1.5 2 1.1 2.9 1.8zM404.1 230.4c1 .7 1.1 1.6.4 2.7-.5.8-1 1.5-1.5 2.3-.2.3-.3.3-.6.2l-4.8-1.8c-.2-.1-.3-.3-.3-.4.3-1.6.6-3.1.9-4.7.1-.4.3-.3.6-.2.7.3 1.4.5 2.1.8 1 .4 1.9.7 2.9 1.1.1-.1.3 0 .3 0zM363.4 216.9c1-1 2.2-1.2 3.4-.8 1 .3 1.9.7 2.8 1.1.3.1.4.3.3.6l-.9 4.5c-.1.4-.2.4-.6.3l-6.3-2.4c-.7-.3-.7-.3-.3-.9.4-.5.7-1 1-1.5.2-.4.5-.8.6-.9zM389.5 145l-16.2-16.2c-1.3-1.3-3.8-2.3-5.7-2.3h-9.4c-1.9 0-4.3 1-5.7 2.3l-26.8 26.8c-1.6 1.6-1.6 4.2 0 5.8l23.7 23.7c.8.8 1.8 1.2 2.9 1.2s2.1-.4 2.9-1.2l34.3-34.3c.8-.8 1.2-1.8 1.2-2.9 0-1.1-.4-2.1-1.2-2.9zm-40 2.4l3.6 3.6-3.6 3.6-3.5-3.6 3.5-3.6zm-8.1 15.3l-3.6-3.6 3.6-3.6 3.6 3.6-3.6 3.6zm8.1-7.1l3.6 3.6-3.6 3.6-3.6-3.6 3.6-3.6zm.1 15.2l-3.6-3.6 3.6-3.6 3.6 3.6-3.6 3.6zm8.1.1l-3.6-3.6 3.6-3.6 3.6 3.6-3.6 3.6zm0-8.2l-3.6-3.6 3.6-3.6 3.6 3.6-3.6 3.6zm0-8.1l-3.6-3.6 3.6-3.6 3.6 3.6-3.6 3.6zm0-8.1l-3.6-3.6 3.6-3.6 3.6 3.6-3.6 3.6zm8.1 16.2l-3.6-3.6 3.6-3.6 3.6 3.6-3.6 3.6zm0-8.1l-3.6-3.6 3.6-3.6 3.6 3.6-3.6 3.6zm6.3-24.5l-6.3 6.3c-.8.8-1.8 1.2-2.9 1.2-1.1 0-2.1-.4-2.9-1.2l-6.3-6.3c-.5-.5-.5-1.4 0-1.9s1.4-.5 1.9 0l6.3 6.3c.5.5 1.4.5 1.9 0l6.3-6.3c.5-.5 1.4-.5 1.9 0 .7.5.7 1.4.1 1.9zM374.8 50c-4.4-3.1-9.7-1.9-11.9 2.6-2.2 4.6-.3 10.8 4 13.9 4.4 3.1 9.7 1.9 11.9-2.6 2.2-4.6.4-10.8-4-13.9zm.2 12.5c-.5-.4-.8-1.1-.5-1.7 1-2.1.2-4.9-1.8-6.3-.5-.4-.8-1.1-.5-1.7s.9-.7 1.5-.3c3.1 2.2 4.3 6.5 2.8 9.7-.3.5-1 .7-1.5.3z"/><path fill="#83A9FF" d="M400.1 63.8l-6.2-4.4c-.8-.6-1.8-2-2.1-3l-1.5-5.2c-.5-1.6-1.9-3.6-3.2-4.6L374.9 38c-7.1-5-15.8-3.1-19.3 4.3l-8.1 17.1c-.8 1.7-.1 4 1.5 5.1l38 26.9c1.6 1.1 3.6.7 4.4-1l10.2-21.6c.8-1.5.1-3.8-1.5-5zM366 68.5c-5.5-3.9-7.7-11.6-5-17.3 2.7-5.7 9.3-7.1 14.8-3.3 5.5 3.9 7.7 11.6 5 17.3-2.7 5.7-9.3 7.2-14.8 3.3zm17.6 10c-.1.1-.2.2-.4.2h-.4c-.1 0-.3-.1-.4-.2-.1-.1-.3-.2-.3-.3s-.2-.3-.2-.4c0-.2-.1-.3-.1-.5s.1-.3.1-.4.1-.2.3-.3c.1-.1.2-.1.4-.2.5-.1 1.2.3 1.4 1 0 .2.1.3 0 .5 0 .2 0 .3-.1.4s-.2.1-.3.2zm6.9-10.6l-2.3-1.6c-.5-.4-.8-1.1-.5-1.7.3-.6.9-.7 1.5-.3l2.3 1.6c.5.4.8 1.1.5 1.7-.3.5-1 .7-1.5.3zM273.7 295.4l-.9-2.6c-.3-.7-2-1-3.6-.6l-38.6 10.1c-1 .3-1.8.7-2.2 1.2l-17.3 4.5c-.5.1-.8.4-.9.6-.1.2.1.4.4.4h.1l12 .7c.4 0 .9-.1 1.2-.3.2-.1.3-.3.3-.4.4-1.1 2.2-2.2 4.4-2.6l.2.7c.1.4.6.6 1.3.8.7.1 1.5.1 2.4-.2l38.6-10.1c.8-.2 1.6-.6 2.1-1 .4-.4.6-.8.5-1.2zm-30.2 8.4l-1.2-3.5 1.4-.4 1.2 3.5-1.4.4zm-2 .5l-1.2-3.5 1-.3 1.2 3.5-1 .3zm-2 .5l-1.2-3.5 1-.3 1.2 3.5-1 .3zm-2 .5l-1.2-3.5 1-.3 1.2 3.5-1 .3zm-2 .6l-1.2-3.5 1-.3 1.2 3.5-1 .3zm-13 2.7l-7.9-.5 13.4-3.5.3.9c-2.6.5-4.9 1.7-5.8 3.1zM207 308.4l-10.7-1.7c-.6-.1-.8-.5-.3-.9l23.3-19.7-13.1-2.1c-.6-.1-.8-.5-.3-.9l6.8-5.8c.5-.4 1.3-.6 2-.5l39.4 6.3c.6.1.8.5.3.9l-6.8 5.8c-.5.4-1.3.6-2 .5l-13.3-2.1-23.3 19.7c-.5.4-1.4.6-2 .5zm-7.9-2.9l8.4 1.4 23.3-19.7c.5-.4 1.3-.6 2-.5l13.3 2.1 5.2-4.4-37.1-6-5.2 4.4 13.1 2.1c.6.1.8.5.3.9l-23.3 19.7zM112 323c-2.8 2.1 6.8 6.9 17.3 10.5 10.5 3.6 23.1 6.2 25.9 4.2.4-.3.6-.7.5-1.1-.6-2.4-8.8-6.4-17.7-9.4-10.6-3.5-23.2-6.2-26-4.2zm23 11.4l6.4-4.7c.1 0 .1-.1.1-.1.8.3 1.6.6 2.3.9h-.1l-6.3 4.7c-.8-.3-1.6-.5-2.4-.8zM155.4 340.8c.9 1 3.1 1.5 5.7 1.3 3.6-.2 4.2 1.1 4.2 1.2.1.2.4.3.8.3s.7-.2.7-.4c0-.1.2-1-.1-2.1-.2-.7-.5-1.5-1.2-2.1-1.2-1.1-3.1-1.8-5.1-1.8-1.2 0-2.9.3-4.5 1.5-1 .6-1.2 1.4-.5 2.1z"/><path fill="#83A9FF" d="M162.1 319.8l-11.9-4c-1.6-.6-4.2-.2-5.4.7l-31 22.9c-1.1.8-1.7 2.1-1.5 3l1.2 4.6c.3 1.1 2.2 1.7 4.3 1.5l9-1.1c1.8-.2 3.9-1 5-1.8l31-22.9c1.3-1 1-2.3-.7-2.9zm-32.4 25c-.7.5-2.3 1.1-3.3 1.2l-2.9.4s-.1 0-.1-.1l-8.2-2.8h-.1l-.4-1.5c-.1-.5.3-1.5 1-2l26.5-19.6 14 4.7-26.5 19.7zm31.1-22.9l-2.9 2.1-14-4.7 2.9-2.1c.2-.2.5-.3.9-.3.3 0 .7 0 1 .1l11.9 4c.5.2.6.6.2.9zM273 209.1l-11.2-4.8c-.2-.1-.2-.3-.1-.5s.4-.3.6-.2l11.2 4.8c.2.1.2.3.1.5s-.4.2-.6.2zM270.1 212.9l-11.2-4.8c-.2-.1-.2-.3-.1-.5s.4-.3.6-.2l11.2 4.8c.2.1.2.3.1.5s-.4.3-.6.2zM267.3 216.8l-11.2-4.8c-.2-.1-.2-.3-.1-.5s.4-.3.6-.2l11.2 4.8c.2.1.2.3.1.5-.2.2-.5.3-.6.2zM264.4 220.7l-11.2-4.8c-.2-.1-.2-.3-.1-.5s.4-.3.6-.2l11.2 4.8c.2.1.2.3.1.5-.2.2-.4.3-.6.2zM261.5 224.6l-11.2-4.8c-.2-.1-.2-.3-.1-.5s.4-.3.6-.2l11.2 4.8c.2.1.2.3.1.5s-.4.3-.6.2zM258.6 228.5l-11.2-4.8c-.2-.1-.2-.3-.1-.5s.4-.3.6-.2l11.2 4.8c.2.1.2.3.1.5s-.4.3-.6.2zM255.7 232.4l-11.2-4.8c-.2-.1-.2-.3-.1-.5s.4-.3.6-.2l11.2 4.8c.2.1.2.3.1.5s-.4.2-.6.2zM298.1 219.9l-11.2-4.8c-.2-.1-.2-.3-.1-.5s.4-.3.6-.2l11.2 4.8c.2.1.2.3.1.5s-.4.3-.6.2zM295.3 223.8l-11.2-4.8c-.2-.1-.2-.3-.1-.5s.4-.3.6-.2l11.2 4.8c.2.1.2.3.1.5-.2.2-.4.3-.6.2zM292.4 227.7l-11.2-4.8c-.2-.1-.2-.3-.1-.5s.4-.3.6-.2l11.2 4.8c.2.1.2.3.1.5-.2.2-.4.2-.6.2zM289.5 231.5l-11.2-4.8c-.2-.1-.2-.3-.1-.5s.4-.3.6-.2l11.2 4.8c.2.1.2.3.1.5s-.4.3-.6.2zM286.6 235.4l-11.2-4.8c-.2-.1-.2-.3-.1-.5s.4-.3.6-.2l11.2 4.8c.2.1.2.3.1.5s-.4.3-.6.2zM283.7 239.3l-11.2-4.8c-.2-.1-.2-.3-.1-.5s.4-.3.6-.2l11.2 4.8c.2.1.2.3.1.5s-.4.3-.6.2zM276.8 241.5l-7.2-3.1c-.2-.1-.2-.3-.1-.5s.4-.3.6-.2l7.2 3.1c.2.1.2.3.1.5-.1.1-.4.2-.6.2zM257.5 242.1c-.2-.1-.2-.3-.1-.5l27.4-36.9c.1-.2.4-.3.6-.2s.2.3.1.5l-27.4 36.9c-.2.2-.4.3-.6.2z"/><path fill="#83A9FF" d="M279.7 252.2l-45-19.4c-1.2-.5-1.4-1.9-.6-3l25.3-34.1c.9-1.2 2.5-1.7 3.7-1.2l45 19.4c1.2.5 1.4 1.9.6 3L283.4 251c-.9 1.1-2.5 1.7-3.7 1.2zm-17.5-56.4c-.4-.2-.9 0-1.2.4l-25.3 34.1c-.3.4-.2.8.2 1l45 19.4c.4.2.9 0 1.2-.4l25.3-34.1c.3-.4.2-.8-.2-1l-45-19.4z"/><path fill="#83A9FF" d="M265.9 233.8c.4.2.5.6.2 1l-2.1 2.9c-.3.4-.8.6-1.2.4l-3.4-1.5c-.4-.2-.5-.6-.2-1l2.1-2.9c.3-.4.8-.6 1.2-.4l3.4 1.5zM277.7 217.9c.4.2.5.6.2 1l-2.1 2.9c-.3.4-.8.6-1.2.4l-3.4-1.5c-.4-.2-.5-.6-.2-1l2.1-2.9c.3-.4.8-.6 1.2-.4l3.4 1.5zM283.6 210c.4.2.5.6.2 1l-2.1 2.9c-.3.4-.8.6-1.2.4l-3.4-1.5c-.4-.2-.5-.6-.2-1l2.1-2.9c.3-.4.8-.6 1.2-.4l3.4 1.5zM271.8 225.9c.4.2.5.6.2 1l-2.1 2.9c-.3.4-.8.6-1.2.4l-3.4-1.5c-.4-.2-.5-.6-.2-1l2.1-2.9c.3-.4.8-.6 1.2-.4l3.4 1.5z"/><path fill="#6377F6" d="M250.9 90.2c3.5 0 6.4-3.1 6.4-6.8 0-3.8-2.9-6.8-6.4-6.8-3.5 0-6.4 3.1-6.4 6.8 0 3.7 2.9 6.8 6.4 6.8z"/><ellipse fill="#F6DFD2" cx="478.9" cy="106.3" rx="14.9" ry="16"/><ellipse fill="#9FDEEB" cx="47.9" cy="289.3" rx="6.4" ry="6.8"/></svg>