<svg xmlns="http://www.w3.org/2000/svg" viewBox="0 0 570.4 715"><path fill="#EDF4F4" d="M224.2 365c-21 0-43.8 7.4-65.5 23.5C120.3 417 131 443.4 48.1 492c-81.2 47.5-53.8 136.3 39.5 156.3 65.4 14 113.5 97.8 187.9 54.3 41.3-24.1 53.4-52.1 53.4-83.3v-.2c0-46.4-26.6-99.7-22.8-157.6 3.9-59.2-34.3-96.4-81.5-96.5h-.4z"/><path fill="#EDF4F4" d="M570.4 419c0-15.5-5.5-32.3-17.3-48.3-21-28.3-40.5-20.4-76.3-81.5-35-59.9-100.5-39.7-115.2 29.1-10.3 48.2-72.1 83.7-40.1 138.5 17.8 30.5 38.4 39.3 61.4 39.4h.2c34.2 0 73.5-19.6 116.2-16.8 43.6 2.8 71-25.3 71.1-60.1v-.3z"/><path fill="#FFF" d="M191.4 437.7l125 45.6 125-45.6-125.5-45-124.5 45z"/><linearGradient id="a" gradientUnits="userSpaceOnUse" x1="191.412" y1="918.338" x2="316.412" y2="918.338" gradientTransform="matrix(1 0 0 -1 0 1456)"><stop offset="0" stop-color="#c0dbff"/><stop offset="1" stop-color="#fff"/></linearGradient><path fill="url(#a)" d="M191.4 480.1l10.6 12.6-10.6 13.9v85.5l125 45.6V483.3l-125-45.6v42.4z"/><path fill="#FFF" d="M316.4 483.3v154.4l98.9-34.8v-85.4l15.5-24.8 10.6-12.6v-42.4l-125 45.6z"/><path fill="#97B6E6" d="M274.4 524.7l-34.1-27.4-48.9-17.2 9.7 12.6 37.9 11.8 35.4 20.2z"/><path fill="#B6CFF4" d="M191.4 480.1l9.7 12.6 37.9 11.1-47.6-23.7z"/><path fill="#FFF" d="M191.4 506.6l9.7-13.9 37.9 11.1 35.4 20.9-40.3-13.7-42.7-4.4z"/><path fill="#97B6E6" d="M415.4 517.7l-52 31 52-25.6v-5.4z"/><linearGradient id="b" gradientUnits="userSpaceOnUse" x1="333.212" y1="1018.188" x2="441.412" y2="1018.188" gradientTransform="matrix(1 0 0 -1 0 1456)"><stop offset="0" stop-color="#c0dbff"/><stop offset="1" stop-color="#fff"/></linearGradient><path fill="url(#b)" d="M382.5 416.2l58.9 21.5-59.8 21.8-30.8-14.4 22.8-11.8-40.4-10.1 49.3-7z"/><path fill="#97B6E6" d="M329.5 459.3l-.2-.6-23.7 8.6c-.3-.5-.9-.9-1.5-.9s-1.2.4-1.5.9l-122-44.4v-.6l113.2-41.2-.2-.6-113.3 41.2c-.3-.5-.9-.9-1.5-.9-1 0-1.8.8-1.8 1.8 0 .9.6 1.6 1.5 1.7v34.1h.6v-34.1c.5-.1 1-.4 1.2-.9l122 44.4v.3c0 .9.6 1.6 1.5 1.7v78.4h.6v-78.4c.8-.1 1.5-.9 1.5-1.7v-.3l23.6-8.5z"/><linearGradient id="c" gradientUnits="userSpaceOnUse" x1="120.412" y1="1275.338" x2="262.412" y2="1275.338" gradientTransform="matrix(1 0 0 -1 0 1456)"><stop offset="0" stop-color="#c0dbff"/><stop offset=".299" stop-color="#fff"/></linearGradient><path fill="url(#c)" d="M240.5 3.7c-1.5 0-3.1.3-4.8.9L135.6 41.3c-8.4 3-15.2 12.3-15.2 20.8v279.2c0 4.3.8 9.5 4.3 10.9 5.2 2 13.3 5.3 15 5.5l100.5-45.9c9.6-3.5 16-12.7 16-23v-6.9l6.2-268.1c0-4-8.1-5.7-13.8-8.1-2.6-1.1-5.2-2-8.1-2z"/><path fill="#C2DBFF" d="M264.4 287.1V20.3c0-9.4-9.5-14.8-17.9-11.8L143.6 46.2c-8.4 3.1-15.2 12.4-15.2 20.8v279.5c0 7.1 7 12 13.6 9.6L248.4 317c9.6-3.5 16-12.7 16-23v-7.1.2z"/><linearGradient id="d" gradientUnits="userSpaceOnUse" x1="121.925" y1="1141.347" x2="276.142" y2="1408.458" gradientTransform="matrix(1 0 0 -1 0 1456)"><stop offset="0" stop-color="#ef8135"/><stop offset="1" stop-color="#e1497c"/></linearGradient><path fill="url(#d)" d="M248.5 9.4L145.6 47.1c-8.4 3.1-15.2 12.4-15.2 20.8v279.6c0 7.1 7 12 13.6 9.6l106.4-39.2c9.6-3.5 16-12.7 16-23V22.8c0-7.9-6.7-14.1-13.8-14.1-1.3 0-2.7.2-4.1.7"/><path fill="#FFF" d="M248.8 259.1c-26.5 69.2-71.5 57.7-82.9-32.3-5.8-45.4.8-96.9 17.5-121.4-22.6 16.1-29.5 92.4-20.6 144 6.3 36.5 17.5 62.6 33.2 71.4-43.1-24.2-52.8-130.8-28.3-204.2 12.4-37.1 32.6-49.5 48.6-24.8-16-42.4-44.6-17.8-57.6 29.6-9.2 33.5-11.5 74-8.1 112.8-9.4-97.1 21.5-194.9 57.9-170 16.6 11.4 28.5 48.9 27.8 94.7 6.6-58.5-15.1-110.2-36.9-114.3-15.5-3-30 13.1-41.3 41.4 27.8-72.7 75-54.6 83.8 40.7 4.1 43.6-2.8 90.1-18.4 113 22.6-16.1 29.5-92.4 20.6-144-6.3-36.5 19.6 59.4-4.9 132.9-12.4 37.1-32.6 49.5-48.6 24.8 16 42.4 44.6 17.8 57.6-29.6 9.2-33.5 11.5-74 8.1-112.8 9.4 97.1-21.5 194.9-57.9 170.1-16.6-11.4-28.5-48.9-27.9-94.7-6.6 58.5 15.1 110.2 37 114.3 15.5 2.8 30-13.3 41.3-41.6"/><linearGradient id="e" gradientUnits="userSpaceOnUse" x1="278.412" y1="1117.688" x2="302.412" y2="1117.688" gradientTransform="matrix(1 0 0 -1 0 1456)"><stop offset="0" stop-color="#c0dbff"/><stop offset="1" stop-color="#fff"/></linearGradient><path fill="url(#e)" d="M279 360l23.4 10-10-52.7-14-10.6.6 53.3z"/><path fill="#FFF" d="M302.4 333.7l14.1 73 53.3-19.4-.1-30.4 10.5-16.8 7.2-8.6v-28.8l-85 31z"/><path fill="#97B6E6" d="M369.7 356.9l-35.1 20 35.1-16.6v-3.4z"/><path fill="#FFF" d="M278.4 304.1l13.4 15.6-9.5 9.3 19.4 5.7 84.7-31.5-59.5-21.5-48.5 22.4z"/><linearGradient id="f" gradientUnits="userSpaceOnUse" x1="283.412" y1="1087.838" x2="316.512" y2="1087.838" gradientTransform="matrix(1 0 0 -1 0 1456)"><stop offset="0" stop-color="#c0dbff"/><stop offset="1" stop-color="#fff"/></linearGradient><path fill="url(#f)" d="M316.5 406.7l-13.9-72.3-19.2-4.7 33.1 77z"/><path fill="#C0DBFF" d="M324.1 304.9c.6-1.2 4.2-16 34-12l29.3 9.8-52.5 19.6 16.4-11-39.9 5.1 12.7-11.5c-.1.1-.1.1 0 0z"/><path fill="#F7FBFF" d="M299.8 316.9l.6 12.2-15.7.6 15.1-12.8z"/><path fill="#B7CFF5" d="M283.9 314.2c1.5.6 5.1 1.7 5.1 3.1s-4.2 3.6-8.5 5.2-2.7 4.6.1 6.3c2.8 1.7 6.6.8 10.5-.5 3.4-1.1 12.2-10.6 14.8-13.2s-1.1-9.1-6.8-9.4c-5.7-.3-9.5-1.6-9.5-1.6l-5.7 10.1z"/><path fill="#F7FBFF" d="M289.2 307.4l-5.3 6.9c1.5.6 5.1 1.7 5.1 3.1s-4.2 3.6-8.5 5.2c-1.6.6-2.4 1.4-2.6 2.2 1.3.7 3 1.5 5.1 2.2 4.4 1.6 6.7-2.8 9.5-7.2 4-6.2 8.2-11.2-3.3-12.4"/><path fill="#F7FBFF" d="M317.5 260.3c-48.6 5.6-77.8 21.5-84.4 23.9-6.6 2.4-6.8 12.8-3.9 15.7 3 3 49.2 12.3 55.8 14.7 6.7 2.4 10.8-8.9 7.3-10.3-3.6-1.3-13.8-6.4-13.8-6.4s11.9 2.7 25 2.7 23.8-31.2 23.8-31.2l-9.8-9.1z"/><path fill="#B7CFF5" d="M307.1 299.9l11.7-12.1c2.9-4.7 5.2-9.7 6.7-13.4-37.4 2.8-87.9 11.5-88.8 15.9-.9 4.7-3.1 5-1.6 8s7.8 4.8 12.5 5.7c10.1 2 26 1.6 34.7 2.3 2.8.2 11.2 1.7 11.2 1.7.3-1.8 0-3.3-1.2-3.8-2.3-.8-7.3-3.2-10.6-4.8-1.8-.9-3.1-1.5-3.1-1.5s11.9 2.7 25 2.7c1.2 0 2.3-.2 3.5-.7"/><path fill="#95BDE5" d="M234.2 253.2c-9.6 0-12.7-3.3-17.6-1.5-4.9 1.8-2.9-2.8-1.2-4.5s3.8-2.4 6.3-2.7c-.3-.3-2.9-1.1-4.2-.5-2.6 1.1-2.1-1.3-.3-1.9 1.4-.4 3.5-.4 5.2.2 1.7.6 5.5 1.1 5.7.8.3-.3.2-1.3-2.2-2.2s-2-2.8 1.8-1.4 6.3 5.8 9 6.7c2.5 1.1-2.5 7-2.5 7"/><path fill="#3170A3" d="M234.9 253.2s1.9-2.9 2.3-5c-8-2-9.2-3.5-11.8-2.6-2.8.9-4.9 4.4-5.2 5.6 5.7 1.5 12.2 2.2 14.7 2"/><path fill="#FFF" d="M275.8 185.1c13.7-2.3 12.2-3.7 8.9-12-2.1-5.2-5.1-11.2-10.2-16.7-3.1-3.3-2.1-7.5-31.1-5.2 0 0-3.3 5.5-.8 7.4 0 0 3.6.7 15.3 3.1 10.2 2.1 13.2 6.1 13.2 6.1 2.3 2.9-1.9 2.9-.7 5.8 3.8 8.8 5.4 11.5 5.4 11.5"/><path fill="#B7CFF5" d="M315.9 340.8c-1.3 4.4 5.6 3 19.6 18.9 10.7 12.1 4.4 25.1 20.4 44.9 3.7 4.6 6.8 4.9 8.6 5.9 4.1 2.2 5.5 5.4 1.5 12.4-5.1 9.1-5.4 10.6-9.8 18.8-3.5 6.5-15 4.8-7.4-4.1 4.3-5.1 1.8-21.2-3-27.5-8.7-11.5-38.9-49.7-49.6-59.6-5.2-4.8-10.2-5.4-1.7-29.3 8.1-22.9 13.1-40.7 14.1-44 5.4-17.4 50.9-36.7 46.7-5.3-2.8 21.5-33.4 48.4-39.4 68.9"/><path fill="#F7FBFF" d="M348.3 409.5c-3.7-6.1-23-27.1-33-39.5-11.5-14.1-15.6-17.5-16.6-23.2-1.8-10.8-1.5-8.1.5-18 1.7-8.1 18.3-41.3 27.2-47.8 7.8-5.6 7-4.3 10-9.7 2.6-4.6-17.8-8.5-23.8-8.6-.2.5-12.1 12.3-7.1 12.7 3.4.3-2.9 22.8-11 45.7-8.5 23.9-3.5 24.5 1.7 29.3 10.6 9.9 40.9 48.1 49.6 59.6 4.8 6.3 4.5 20.9 3 27.5 7.5 1.2 8.7-12.8-.5-28"/><path fill="#91BEFF" d="M306.9 261.9c8.5-1.1 6.9-14.2 1.6-17.3-6.3-3.6-22.8-10.5-25.7-18-2.9-7.4 4.9-19.2.9-31.8s-8.1-16.5-11.4-21.1c-2.9-4 1.7-11.9 9-6.2 7.4 5.6 21.8 9.1 33.4 15.2 11.6 6 14.2 13.3 18.7 27.3s18.9 26.3 21.5 41.3c3.1 18-.4 26.5-.4 26.5-7.5.4-17-5.7-23.7-9.7-6.4-3.8-19.3-6.1-19.3-6.1l-4.6-.1z"/><path fill="#FFF" d="M309.6 245.5c3.5 9.3 0 14.9-3.6 16.4 0 0 18.3 2.3 24.7 6.1 1.8 1.1 3.7 2.3 5.8 3.4 4.8-11.5-6.9-22.7-22.3-25.4-1.8-.3-3.3-.4-4.6-.5zm-26.8-18.9c1 2.7 6.7 5.1 11.1 7l-2.3-.9s21.6 9.9 21.6-8c0-15.9-30.4 1.9-35.2-58.9-8.3-1.6-7.8 4.8-5.7 7.9 2.8 4.1 3.4 11.1 7.4 23.7 3.9 12.6.1 21.8 3.1 29.2"/><path fill="#91BEFF" d="M311.5 199.9c13.2 5.9 16.2 6.6 12.5 22.2-2.3 9.8-21.4 25.6-30.6 34.2-4.9 4.6-8.4 7.4-11.5 7.3-11.3-.6-19.7-2.8-47.8-10.4 0 0-.2-3.5 2.4-6.9 0 0 31.3 5.2 43.4 6.3 0 0 21.4-16.3 25-29 3.6-12.6 6.6-23.7 6.6-23.7"/><path fill="#FFF" d="M307.7 213.5c-.9 3.1-2.9 4.9-5.1 7.8-8.9 11.3-21.3 28.9-25.5 28.5-11.1-1.1-40.6-3.4-40.6-3.4-.4.6-.8 1.2-1.1 1.8 15.5 1.5 23 3 36.6 6.3 6 1.4 10.8-1.2 12.8-3.2 3.6-3.6 25.9-18.5 28.2-30.5 1.6-7.8-2.4-7.4-5.3-7.3"/><path fill="#91BEFF" d="M312.1 197.6c-4.3 8.1-4 17.8-4.7 20.6 0 0 10.9 3 13.4 10.6 4.8-6.4 12.6-13.7 12.6-19-.1-5.2-17-20.2-21.3-12.2"/><path fill="#3170A3" d="M285.2 191.1c4.1 2.5 4.1 3.6 4.5 6.2.3 2.6 8.5 5 13.5 0 2.6-2.6 2.1-5.8 0-8s-8.3-7.7-8.3-7.7l-9.7 9.5z"/><path fill="#E72E98" d="M273.1 155.6c-7.3 7.3-5.7 19.7 1.9 22.5 0 0 4.7-5.2 14.2-1.7 9.5 3.4 6.3 10.7 8.2 23.5 1.1 7.8 6.9 5.4 12.7 3 3.7-1.5 7.4-3.1 9.9-2 11 4.8 13.7 18.4 14.5 25 2.1 17.4 17.2 6.8 28.2 13.3 16.3 9.7 21.3-2.9 19.2-13-2.1-10 9.3-20.7-3.9-26.5-13.3-5.8-15.2-.5-21.1-15.6-4.1-10.7-9.3-10.6-18-10.6-3.6 0-7.9.1-12.9-.7-17.1-2.6-11.3-14.1-21.7-21.3-3.8-2.7-8.1-3.8-12.3-3.8-7.3 0-14.3 3.3-18.9 7.9z"/><linearGradient id="g" gradientUnits="userSpaceOnUse" x1="270.492" y1="1259.094" x2="387.894" y2="1259.094" gradientTransform="matrix(1 0 0 -1 0 1456)"><stop offset="0" stop-color="#b02788"/><stop offset="1" stop-color="#e72e98"/></linearGradient><path fill="url(#g)" d="M274.4 162.5c-7.3 7.3-3.5 12.9 4 15.6 0 0 4.7-5.2 14.2-1.7 9.5 3.4 6.3 10.7 8.2 23.5 1.1 7.8 6.9 5.4 12.7 3 3.7-1.5 7.4-3.1 9.9-2 11 4.8 13.7 18.4 14.5 25 2.1 17.4 17.2 6.8 28.2 13.3 16.3 9.7 21.3-2.9 19.2-13-2.1-10 9.3-20.7-3.9-26.5-13.3-5.8-15.2-.5-21.1-15.6-4.1-10.7-9.3-10.6-18-10.6-3.6 0-7.9.1-12.9-.7-17.1-2.6-14.8-14.1-25.2-21.3-3.8-2.7 9.6 14-7 16.4-20.3 2.9-18.2-10-22.8-5.4z"/><path fill="#95BDE5" d="M274.8 172.9c1.4 6.7-2.4 6.9 1.5 13.8 5 8.9 4.9 11 9.3 11 6.3 0 10.5-5.8 12.1-9.7.8-2 .9-3.6 1.5-3.3 1.9 1.3 3.2-2 4-5.2.8-3.3-.9-3.4-2.3-.6-1.9 3.6-3.4 3.4-3.4 3.4s-3.8-7.9-8.1-9.4c-5.9-2-6.5 2.6-9.6.7-4.8-3.1-6.2-6.6-5-.7"/><path fill="#3170A3" d="M274.8 172.9c1.4 6.7 12.2 1.9 16.1 8.7 5 8.9-9.7 16-5.3 16 6.3 0 10.5-5.8 12.1-9.7.8-2 .9-3.6 1.5-3.3 1.9 1.3 3.2-2 4-5.3.8-3.3-.9-3.4-2.3-.6-1.9 3.6-3.4 3.4-3.4 3.4s-3.8-7.9-8.1-9.4c-3-1-4.6-.4-5.9.3s-2.2 1.3-3.7.4c-2.9-1.8-4.5-3.8-5.1-3.8-.4.1-.4 1 .1 3.3z"/></svg>