<svg xmlns="http://www.w3.org/2000/svg" viewBox="0 0 573.8 393.2"><linearGradient id="a" gradientUnits="userSpaceOnUse" x1="183.63" y1="57.155" x2="206.738" y2="57.785" gradientTransform="matrix(1 0 0 -1 0 287.531)"><stop offset="0" stop-color="#91beff"/><stop offset="1" stop-color="#c2dbff"/></linearGradient><path fill="url(#a)" d="M45.2 257.8v-13.6l18.5-1.6 274.3-100c10.5-3.8 21.9-3.8 32.4 0l120 43.7 12.9-1.1v13.7c-.1 4.1-2.5 8.2-7.1 9.8L209.8 313.3c-10.5 3.8-21.9 3.8-32.4 0L52.5 267.8c-4.7-1.7-7.1-5.8-7.3-10z"/><path fill="#FFF" d="M52.5 256.6l124.9 45.5c10.5 3.8 21.9 3.8 32.4 0l286.4-104.5c9.5-3.5 9.5-16.9 0-20.4l-125.8-45.8c-10.5-3.8-21.9-3.8-32.4 0L52.5 235.6c-9.8 3.5-9.8 17.4 0 21z"/><path fill="#C2DBFF" d="M52.5 256l124.9 45.5c10.5 3.8 21.9 3.8 32.4 0L496.2 197c9.5-3.5 9.5-16.9 0-20.4l-125.9-45.8c-10.5-3.8-21.9-3.8-32.4 0L52.5 234.9c-9.8 3.6-9.8 17.5 0 21.1z"/><linearGradient id="b" gradientUnits="userSpaceOnUse" x1="50.45" y1="72.366" x2="498.275" y2="72.366" gradientTransform="matrix(1 0 0 -1 0 287.531)"><stop offset=".185" stop-color="#ef8135"/><stop offset=".463" stop-color="#e2497c"/><stop offset=".765" stop-color="#7a33d1"/><stop offset="1" stop-color="#7991ee"/></linearGradient><path fill="url(#b)" d="M55.1 251.1l123.8 45.1c9.6 3.5 20.2 3.5 29.9 0l284.9-103.8c6.1-2.2 6.1-10.9 0-13.1l-123.8-45.1c-9.6-3.5-20.2-3.5-29.9 0L55.1 238c-6.2 2.2-6.2 10.8 0 13.1z"/><path fill="#2848BD" d="M533 261.7c2.9 3.3 2.1 7.9 3.4 10.3 2.6 4.9 3 6.7 5.3 7.7 8.6 4 15 11.5 19.6 12.8 7.6 2.3 11.2-.8 12.1-1.7.9-.9.5-6.8-5.5-10.3-6.5-3.8-13.3-4.7-19.1-11.6-4.1-4.9-7.1-11.2-7.1-11.2l-8.7 4z"/><path fill="#FFF" d="M529.8 260.9c2.9 3.3 3.5 5.1 4.8 7.5 2.6 4.9 3 6.7 5.3 7.7 8.6 4 15 11.5 19.6 12.8 7.6 2.3 11.2-.8 12.1-1.7.9-.9 1.3-3.9-4.7-7.3-6.5-3.8-14.1-7.7-19.9-14.6-4.1-4.9-7.1-11.2-7.1-11.2l-10.1 6.8z"/><path fill="#2848BD" d="M503.7 218.6c9.9 11.4 25.3 41.5 26.1 42.3 3.5 3.7 13.8-2 11.6-5.2-11.9-17.3-24.4-77.8-36.6-83.7-10.8-5.2-81.1-32.9-81.1-32.9l-11 25.4 78.9 23.8c0-.1 3 19.8 12.1 30.3z"/><path fill="#0D146E" d="M424.5 158.2c5.7-7.5 3.9-6.8 5.7-4.4 5.9 7.7 21.3 13.8 25.1 14.9 19.6 5.5 32.4 6.7 35.7 10.1 4.6 4.6 8.9 10.6 12 19.7s18.1 39.5 22.7 47.8c4.5 8.3 7.2 15.4 7.2 15.4l-3.2-.8-37.2-57.4s-78.6-31.2-68-45.3z"/><path fill="#2848BD" d="M374.1 157.9c.4 20.6 19.6 33 35.9 34.5 21.2 2 59.6 11.8 63.1 14.7 3.6 2.8.3-.7-3.1 19.9-2.5 15.7 12.4 37.1 7.4 61.7-1 4.8 14 4.8 14 2.3 0-14.2 3.3-70.6 6.3-84.6 3.1-14.7-6-18.1-17-23.9-6.3-3.3-56.2-24.3-53.8-27.8 6.1-9.2-3.2-15.6-3.2-15.6l-43-1.4c0-.1-6.7 14.9-6.6 20.2z"/><path fill="#0D146E" d="M420.2 147.7c-14.5 10.3-27.2 7.4-28.5 16.1-1.3 8.8 7.1 13.9 21 17s56.7 11.3 66 13.6c9.3 2.3 9.6 11.9 6.5 15s.5 26.9.5 32.9-3.4 41.3-8.4 46.3c-1.3 1.3-.9-26.6-7.6-56.2-2.6-11.2 7.4-24.5 3.3-25.4-16.4-3.8-56.7-13.9-72-16.3-23-3.6-32.3-24.8-26.5-37.1.4-.8 6.1-16 6.1-16l40-1.9-.4 12z"/><path fill="#2848BD" d="M509.4 313.7c11.4-.8 11.7-8.2 3.6-9.9-6.4-1.4-20.1-2.3-21.7-9.6-.2.1-8.7 2.5-14-2.3-1.6 7.2-6.4 16.6.6 18 17.3 3.5 21.3 4.5 31.5 3.8z"/><path fill="#FFF" d="M509.4 310.6c11.4-.8 11.1-6 3-7.7-6.4-1.4-19.4-4.5-21-11.8-.2.1-8.7 2.5-14-2.3-1.6 7.2-6.4 16.6.6 18 17.2 3.5 21.2 4.5 31.4 3.8z"/><path fill="#F9329C" d="M398.3 1.4c-14.7-3.2-9.1 14.1-19.8 17.9-10.8 3.8-17.4 1-18.7 12.3-1.3 11.3-6.1 4.5-17.1 10.2-6.4 3.3-6.9 10.2-3.1 13.1 3.8 2.9 8.6-6.5 20.2 1.9 12.6 9.1 22.9 5.7 23.6-6 .6-11.7.2-13.6 6.8-13.8 6.6-.3 9.6-10.6 10.6-18.7s6.7-8.3 6.7-8.3 2.1-6.1-9.2-8.6z"/><linearGradient id="c" gradientUnits="userSpaceOnUse" x1="340.599" y1="254.826" x2="406.8" y2="254.826" gradientTransform="matrix(1 0 0 -1 0 287.531)"><stop offset="0" stop-color="#b02788"/><stop offset="1" stop-color="#e72e98"/></linearGradient><path fill="url(#c)" d="M395.9 6c-.8 3.9-2.2 13.7-9 17-6.8 3.2-14.2 1.5-15.7 10.8s-6.6 10.9-16.7 9.6c-8.7-1.1-18.1 5.1-11.9 11.9 3.5-1 8.4-4.8 17.1 1.6 12.6 9.1 22.9 5.7 23.6-6 .6-11.7.2-13.6 6.8-13.8 6.6-.3 9.6-10.6 10.6-18.7.8-6.5 4.6-7.9 6.1-8.2 0-.6 0-1-.1-1.4-2.2-6.6-10-6.7-10.8-2.8z"/><linearGradient id="d" gradientUnits="userSpaceOnUse" x1="411.267" y1="249.483" x2="451.48" y2="249.483" gradientTransform="matrix(1 0 0 -1 0 287.531)"><stop offset="0" stop-color="#b02788"/><stop offset="1" stop-color="#e72e98"/></linearGradient><path fill="url(#d)" d="M444.7 72c11.6-9.6-4.3-13.8-.2-23.9s10.3-13.6 3.1-20.2c-7.2-6.6.7-6.9 3.6-18 1.7-6.5-3.9-12.2-8.7-8.9-3.8 2.7-8.6 7.4-22 12.1-14.5 5.1-9.6 16.9-1.6 23.1 7.9 6.3 9.5 6.9 5.6 12-4 5.1 1.5 12.5 6.7 17.3 5.1 4.8 1.7 9.2 1.7 9.2s2.9 4.6 11.8-2.7z"/><path fill="#95BDE5" d="M435.7 63.9c7.3 9.6 23.1 37 24.1 36.3s27.3-12 27.1-14.4c-.3-2.4-.3-4 0-6.1s-.4-5.4 1.2-5.8c1.6-.4 1.6.4 1.8 2.4.2 2 1.7 4.2 4.1 3.1 1.4-.7 3.1-2 5.4-2.5 1.5-.3 3.3-.1 5.5 1 5.3 2.8 3.2 4 1.5 3.6s-3-2.2-4.9-1.8c-1.9.5 1.3 1.7 2.2 3.9.9 2.3-2.5 8.9-6 9.6-3.6.6-5-1-8.2 1.4-2.7 2-22.1 16.6-26.3 19.6-4.3 3-5.2 4.1-7 3.4-4.9-1.7-17.5-21.6-17.5-21.6l-3-32.1z"/><path fill="#F9329C" d="M439.8 56.2c.3-2.9.7-6.1 1.1-8.9 1.1-7.4-6.6-25.1-3-42.9-3.5 2.5-8.6 5.6-17.4 8.7-14.5 5.1-9.6 16.9-1.6 23.1 7.9 6.3 9.5 6.9 5.6 12-4 5.1 1.5 12.5 6.7 17.3.4.4.8.8 1.1 1.2 4.1-1.9 7-5.8 7.5-10.5z"/><path fill="#95BDE5" d="M493.2 81.4c-5 .8-2.8 6.9-4.6 7.5-1.8.7-29.8 15.2-31.8 15.9s-5.4-6.6-11.4-17l-7.4.7.7 7.5s12.6 19.8 17.5 21.6c1.8.6 2.7-.4 7-3.4s23.6-17.6 26.3-19.6c.9-.7 1.7-1 2.4-1.2 0 0-3.5-9.2 6.4-12.3 1.8-.7-2.9-.1-5.1.3z"/><path fill="#F9329C" d="M422.4 56.7c-3.4 2.1-1 7 .7 16 2 10.2 8.1 20.7 8.1 20.7s7.4 2.3 20.2-6.5c0 0-5.6-12.9-9.5-19.7-2.4-4.2-15.4-13.1-19.5-10.5z"/><path fill="#001F99" d="M411.1 21.1c-13-6.7-8.1-16.2-2.6-14.6 6.5 1.8 8.4 4.9 8.4 4.9l-5.8 9.7zm17.9-6.6c3.3-14.3 13.6-11.9 13.5-6.1-.1 6.7-2.7 9.4-2.7 9.4L429 14.5z"/><path fill="#F9329C" d="M410.2 49c.4-5.7-5.4-18.7-4-26.5s12.7-19.3 21.1-16c12.6 4.9 4.9 9.6 4.9 9.6l-22 32.9zm-11.4-2.3c9.8 5.2 28.7 17.2 28.7 17.2l4-4.6c8.2 4.6 8.2 8.6 10.4 18.5 8 35.2-2.9 26.8-13.3 60.7-3.6 11.7-55.4 20.9-48.2-1.6 3.5-11 7.2-30.9 3.5-43.9-3.7-12.9-8.1-17.6 9.2-33.6l5.7-12.7z"/><path fill="#AD236D" d="M390.2 74c4.7-8.3 17.6-2.5 21.1-19l-.4-1.4c-4.3-2.6-8.7-5.2-12.1-6.9l-5.7 12.8c-17.3 16-12.9 20.7-9.2 33.6 3.7 12.9 1.7-10.8 6.3-19.1z"/><path fill="#95BDE5" d="M416.3 41.3c0-5.6-.9-5.2-.9-5.2-.5-1.6.2-4.3-2.7-5.1-5.7-1.6-4.8 12.6-2 12.4 3.6-.3-4.2 10.7-4.2 10.7-1.2 4.1 21 9.8 21 9.8-.8-5.9 2.3-12.5 3.1-16.7.7-3.2-9.1-6.3-14.3-5.9z"/><path fill="#AD236D" d="M427.5 63.9c-.7-5.5.5-7.2.6-7.6.1-.5 4.4.8 3.2 3.8-1.3 3-3.8 3.8-3.8 3.8z"/><path fill="#95BDE5" d="M417.6 25.2c-2.5 12.5-5.4 17-1.6 23.2 5.5 9.1 7.4 9.4 12.1 10.2 4.6.8 11.6-10.9 12.8-13.3 1.9-3.8.4-4.2 1.4-8.3.6-2.6 1.3-2.7 2.1-7.9 2-13.8-23.8-19.2-26.8-3.9z"/><path fill="#649DCC" d="M453 29.3l-15.1-15.5-14.1 4.1-8.6 17.6c-3.3 2.3-3.1 8-3.1 14.8 0 3.3-3 6.2-1.6 7.8 1.6 1.8 15.1 6.4 13.7 4.9-12.1-12.8 4.7-2.6 3.8-4.3-3.6-7-4-10-3.5-11.9 3.5-12.4-1.6-13.6 9.4-17.2 3.4-1.1 8.7 7.9 12.2 7.8 2.8-.1 6.9-8.1 6.9-8.1z"/><path fill="#F9329C" d="M415.2 35.4c2.6 1.9 6.1 1.1 8.5-2.5 2.4-3.7 6.3-14.5 13.9-9.3 1.4 1 5-3.2 3.1 6.1-1.2 5.8.4 11.9 3.2 17.7 2.9 5.8 4.3 6.6 2.5 13.9 4-6.8 8.5-9.1 6-18.9-2-7.8 5.7-17 2.9-23.9-2.8-6.9-15.4-14.5-24.7-8.8 0 0-5.2-2.2-10.1 3.2-8.1 9.2-5.3 22.5-5.3 22.5z"/><linearGradient id="e" gradientUnits="userSpaceOnUse" x1="415.2" y1="250.405" x2="449.081" y2="250.405" gradientTransform="matrix(1 0 0 -1 0 287.531)"><stop offset="0" stop-color="#b02788"/><stop offset="1" stop-color="#e72e98"/></linearGradient><path fill="url(#e)" d="M415.2 35.4c6.8-6.5 12.5-16.1 18-15.5s-2.2-6.1-.8-6.8c3.9-2 16.7 7 13.2 19.7-2.2 8 8 20.1.8 28.7.4-1.3 1.2-9.4-5.5-17.9-5-6.2-2-11.2-.7-17.2.9-4.1-.5-1.3-2.7-2.8-7-4.7-13.2 20.7-20.7 13.5l-1.6-1.7z"/><path fill="#6D1648" d="M410.4 47.7c-4.2-1.5-11-2.2-11.6-1-1.5 3.3 4.2 7.7 11.7 11.3 0 0-3.4-2.3-2.7-4.3.7-1.6 1.5-2.8 2.6-6z"/><path fill="#AD236D" d="M402.8 86.8c6.2 7.4 2.5 26.5 9.3 27.5 9.6 1.3 31.9-11.6 27.6-5.5-16.6 23-19.4 8.3-32 35.2-6.1 13.1-31.9 6.1-28-3.7 3-7.4 6.6-34.5 5.4-40.8-1.2-6.4 17.7-12.7 17.7-12.7z"/><path fill="#95BDE5" d="M394 63.9c-13.9 6.2-15.7 15.2-11.8 31.6 2.4 10.2 10.3 24.8 15.9 35.3 3.4 6.3 4.2 11.5 7.4 12.1 20.6 3.5 41.7-6.8 71.4-14.7 0 0 .2-3.6-2.5-7.2 0 0-32.9 5.4-45.7 6.6l-14 1.2s-8.5-18.4-12.3-31.6c-3.9-13.5-8.4-33.3-8.4-33.3z"/><path fill="#95BDE5" d="M411.3 134.9c-3.1-2.6-14.5-19.5-20.5-35.5l-6.8 2.3c3.4 9.4 9.5 20.6 14 29 3.4 6.3 4.2 11.5 7.4 12.1 13.8 2.4 27.8-1.5 44.4-6.6-13.5 1.4-35.4 1.3-38.5-1.3z"/><path fill="#F9329C" d="M395.3 62.5c-13.2 4.3-14.9 10.2-14.9 19.3 0 10.4 3.9 21.9 3.9 21.9s6.8 3.7 21.1-2.5c0 0-5.8-25.1-5.6-25.5.1-.4-4.5-13.2-4.5-13.2z"/><path fill="#AD236D" d="M397.5 68.9c-1.1-3.2-2.3-6.3-2.3-6.3-13.2 4.3-14.9 10.2-14.9 19.4 0 10.4 3.9 21.9 3.9 21.9s2.4 1.3 7.4 1c-1.3-7.3-4.6-30.1 5.9-36z"/><path fill="#2848BD" d="M491.2 104.6l12.1-4.4c.5-.2 1 0 1.3.3s2.1 1.8 1.8 2.2L491 126.3c-.8 1.5-2.1 2.6-3.7 3.3l-11.8 6.8c-.4.2-1.5-1.3-1.7-1.5-.4-.4-.7-.9-.4-1.5l13.6-25.1c.9-1.8 2.4-3 4.2-3.7z"/><path fill="#172182" d="M492.7 106.2l12.1-4.4c1-.4 1.9.7 1.4 1.6l-13.7 24.4c-.8 1.5-2.1 2.6-3.7 3.3l-12.5 5.3c-1 .4-2-.6-1.5-1.6l13.6-25.1c1.1-1.6 2.5-2.9 4.3-3.5z"/><path fill="#95BDE5" d="M474 121.1c4.4-2.6 4.9-4.5 6.9-6.4 2.1-1.9 2.3-.1 1.2 2.7-1.1 2.8 6.3 2.9 8.3 1.6 2-1.3 1.8-3.4 2.6-3.8.7-.4 2 0 1.2 2.2 0 0 .5-.2.8.5s.1 2.9-1.1 4.8c-1.3 2-1.1 5-2.8 5.8s-9.9.7-14.4-.5c-4.6-1.2-2.7-6.9-2.7-6.9z"/><path fill="#C2DBFF" d="M115.2 90.9c-9.1 19.7-15.5 49.1-15.8 54.1s-1.9 4.8-1.3 7-6.9.8-4 6.7c1.9 3.8 18.2 20.4 25 13.6 6.9-6.8 3.8-22 5-25.5s.6-6.4.6-6.4-4.8-16-4.4-32.8c.5-18.2-3.9-19.3-5.1-16.7z"/><path fill="#2848BD" d="M58.3 382.8c-7.3 4.1-8.8.5-15.5 1.4s-14.1 2.7-18.3 2.4c-7-.5-19-7.9-21.2-12.8l-1.7 1.4L0 377c1.6 11.4 17.3 16.1 29.3 16.2h1.9s25.3-2.6 24.8-3.2c-.5-.8 2.3-7.2 2.3-7.2z"/><path fill="#FFF" d="M61.3 364.6c-1.1 4.4-1.9 20.4-5 21.7-3.1 1.3-21 3.6-29.6 3.6s-19.6-5.6-21.2-8.5c-2.8-5.1-5.1-9 2-8.3 10.4 1 26.9-4.6 30.8-12.1 3.8-7.5 23 3.6 23 3.6z"/><path fill="#2848BD" d="M93.4 337.6c-4.1 5.9-10.6 6.3-15.2 9.3s-15.1 8.9-18.5 8.8-5.5-3.4-9.8-3.3-5.7 3.4-5.7 3.4l17 8.8 13.4-6.5s18.8-9.8 22.2-13.5c.6-.5-3.4-7-3.4-7z"/><path fill="#FFF" d="M93.1 328.5c.5 4.1 3.4 11.2 1.6 13.3-1.9 2.1-21.9 12.2-28.2 15-6.3 2.9-17.2.1-19-1.2-1.8-1.4 2.8-5.6 9.5-10.2s14.5-9.7 15.1-17.3c.7-7.7 21 .4 21 .4z"/><path fill="#91BEFF" d="M90 256.8c-4.9 3.8 7.7 3.7 3.9 58.4-.5 7.8-.8 10.6-.8 13.3 0 2.6-18.4 1-17.7-2.9 3.5-18.9-10.5-54.5-14.4-73.6-1.9-9.3-6.9-13.8 21-33.2 26.7-18.6 53.6-27.6 57.2-30.4 19.5-14.8 76.5-6.6 47.5 24.3-19.8 21.2-74.1 26.5-96.7 44.1z"/><path fill="#C2DBFF" d="M95.3 269.7c-5.9 1.9 3.3 24.9-34 94.9-4.4 8.2-21.6-3.3-19.9-6.6 9.6-19.7 18.2-70.3 19.9-94.5.8-11.8 7.2-17.9 36.1-35.7 36.6-22.5 46.4-33.1 50.8-34.5 16-5 41-11.1 44.4 2.5 1.5 6.2.5 29.4-11.2 36-25.4 14.4-58.8 29-86.1 37.9z"/><path fill="#95BDE5" d="M134 154.2c12.1.4 25.9.6 33 1 0 0 2.1-13.8 4.1-23.8 1.8-9.1-3-18.1 1.6-24.4 4.7-6.3 7.1-12.2 13.6-5s.8 23.3-3 34.3c-3.7 11-4.3 22.1-6.8 27.7-3.2 7.2-5.3 8.4-12.9 6.5-8.8-2.2-22.5-2.2-33.6-7.7-3.7-1.8-.8-8.7 4-8.6z"/><path fill="#001F99" d="M161.5 72.7c-4.8-2.5-15.9-.6-15.9-.6L127.1 80l-10.8 25.8 47.1-23.2-1.9-9.9z"/><path fill="#95BDE5" d="M131.1 78c1.1 11 9.8 10.9 9.8 10.9l1.1 8.2s-16.6 3.5-16.6 3c-.1-.5 2.3-11.6 2.3-11.6l3.4-10.5z"/><path fill="#95BDE5" d="M136.4 62.5c4-2.9 5.5-3.9 5.5-3.9.3-1.6-.2-5 2.7-6.2 5.7-2.4 6.8 11.2 3.9 11.4-3.8.3 3.8 15.4 12.4 19.7 5.3 2.7-19.1 11.3-25.3 10.2-10.8-1.9.1-18.1-7.2-23.2-2.7-1.9 2.6-7.6 8-8z"/><path fill="#95BDE5" d="M134.4 56.7c4.8 6.1 12.2 6.2 9.3 12.7-4.3 9.5-6.3 10-11.1 11.5-4.6 1.5-12.8-6.5-14.1-8.8-2.5-4.5-2.6-7.3-3.7-9.4-1.2-2.3-2.4-2.2-3.3-7.2 0 0 4.3-1.3 7.9-5 2.2-2.3 5-2.4 8.3-.9 3.4 1.6 3.3 2.8 6.7 7.1z"/><path fill="#649DCC" d="M113.6 50.9c1.2-5.3 23.3-5.2 33 1.3 4.6 3.1.8 4.6.9 13.3 0 4.1 4.7 10.4 9.8 15.7 3.9 4-17.2-3.7-15-2.7l-9.6 2.5c-.4.2-.1 2.7 1.2-6.9.5-4-5.5-3.5-3.9-14.9.6-5-20 8.1-16.4-8.3z"/><linearGradient id="f" gradientUnits="userSpaceOnUse" x1="2567.541" y1="-558.531" x2="2637.168" y2="-515.767" gradientTransform="scale(-1) rotate(-8.534 4518.041 18034.143)"><stop offset=".037" stop-color="#0f1782"/><stop offset=".123" stop-color="#0f1782"/><stop offset="1" stop-color="#0168ff"/></linearGradient><path fill="url(#f)" d="M106.8 58.3c-11.5-8.7-2.2-17.5 5.6-25.6 3.1-3.2 16.5-12.7 23.6-3.8 4.4-1.3 9.1.3 11.6 10.2 6.2 24.1-4.8 7-4.4 17.5l.8 8.2-8.2-7.3c-1.7-1.5-3.8-2.6-6.1-3.1l-4.2-.9-18.7 4.8z"/><path fill="#0D146E" d="M135.5 51.6c-4.4-5-8.2-5.2-7.4-12.4.2-1.5 2.6-6.2 6-9.5.1-1.7-1.7-2.9-5.2-.3-4.4 3.3-4.3 6.8-7.9 14.2-3.3 6.7-5 5.5-12.1 10.1-2.1 1.4-2 4.6-2 4.6l8.9.1c1.5-.1 3.1-.3 4.5-.6l9.2-1.9c2.4-.5 4.5-2 5.9-4l.1-.3z"/><path fill="#97B6E6" d="M124.8 209.9c19.2 2.2 22.5 10.5 25 24.2 0 0 12.6-5.1 23.9-10.9 11.3-5.8 19.5-17.7 19.5-17.7l-40.8-15.4-27.6 19.8z"/><path fill="#C2DBFF" d="M193.2 204.2C153.9 221.6 124 197 124 197l-9.4-86.1 16.1-27.8s-1.2 14.9 24 4.9c25.2-9.9 38.5 116.2 38.5 116.2z"/><path fill="#95ABC4" d="M131.3 95.2s-1.2 20.6.5 32 1.6 29.7 4 42.7-11.7 27.2-11.7 27.2-.6-.2.7-7.5c3.1-16.7-3.4-91.2-3.4-91.2s3.8-18.3 6.5-17.2c3.4 1.4 3.4 14 3.4 14z"/><path fill="#2848BD" d="M144 88.6c13.7-6.4 17.5-15.9 17.5-15.9s7.1 7.4 9.5 9.3c2.4 2 3.2 2.8 11.4 5.8 7.6 2.8 13.3 35.9 13 44.2-1.3 45.7-1.9 41.2 2 69.4 1.8 12.6-38.4 20.1-38.4 20.1-16.4-163.6-8.9-112.4-9.6-118.8-.5-4.4-5.4-14.1-5.4-14.1z"/><path fill="#0D146E" d="M111.2 197.8c13.3-9.1 10.8-4.1 10.2-17.5-.8-20.5-9.3-43.1-9.1-63.2.1-8.7-1.9-27.5 5.9-30.8 8.3-3.6 8.9-6.3 8.9-6.3s-1.7 2.7-.9 5.2c0 0 3.2 13.2 3.1 14.7-2.1 27.6 0 49.3-.2 83.5-.1 8.7-10.5 24.4-17.9 26.5v-12.1zm63.7-87.1c-12 9.9-11.1 40-12 44.3-.9 4.2-2.5 5.6-2.2 8 .4 2.5 1.3 4.2-1.4 4.4-3.5.2-.9 4.3-6.1 3.8-5.2-.5-7.2-7.9-7.9-.6-.6 6.4 13.5 51 13.5 51 5.2-1.6 16.6-4.3 16.6-4.3-3.3-16 1.7-38 1.7-40.5 0-5.7 5.3-16.7 5.3-16.7s3.5-15.1 6.1-29.6c3.1-15.8-12-21.1-13.6-19.8z"/><path fill="#0D146E" d="M149.3 85.9c18 10.2 26.5 10.9 26.5 10.9.4 8.2-16.9 112.5-16.9 116.3-.1 3.8-10-29.8-10-29.8s-1.5-70.9-1.4-73-.8-7.6-1.3-8.8-2.9-12.8-2.9-12.8l6-2.8z"/><path fill="#FFF" d="M174.9 93.2c-21.6 11.2-18.7 49.7-20.1 54.7-1.4 5-5.8 7.4-5 10.4.9 3-.1 5.7-5 5.8-6.6 0-.4 25.2 14.5 25.2s14.5-5.2 14.2-9.1c-.5-6.8 5-8.8 3.2-12.3-1.7-3.5-.8-5.2 2.1-7.7 2.9-2.4 2.3-6.1 2.3-6.1s5.3-17.9 8.9-35.2c4.1-18.7-12.3-27.2-15.1-25.7z"/><path fill="#C2DBFF" d="M171 95.7c9.5 3.5 10.7 11.8 8.2 23.2s-2.6 35.2-7.4 35.8c-4.8.6-7.2.8-5.3 4.6 1.8 3.9 5.8 7.2 5.8 8.5s-9.3-3-11.1-1.7 13.4 10.7 12 15.3c-2.7 8.8-13.7 4.8-13.7 4.8l-17.2-8.4 3.4-4.7c-3.4-7.9 13.9-1.8 7.2-14.8l6.7-6.8c4.1-4.8-2-5.8-2.6-8.3l1.8-15.7c.2-2.1.6-4.2 1.2-6.2l3.7-13.3 3.8-8.7 3.5-3.6z"/><path fill="#95BDE5" d="M97.8 157.6c6.4-2.3 17 2.2 19.1 8.5 2.1 6.2-24.8 20.3-24.8 20.3l-12.5-2.9 18.2-25.9z"/><path fill="#649DCC" d="M97.8 157.6c6.4-2.3 17 2.2 19.1 8.5 2.1 6.2-24.8 20.3-24.8 20.3l-12.5-2.9 18.2-25.9z"/><path fill="#2848BD" d="M86.3 166.9l-12.1-4.4c-.5-.2-1 0-1.3.3s-2.1 1.8-1.8 2.2l15.3 23.5c.8 1.5 2.1 2.6 3.7 3.3l11.8 6.8c.4.2 1.5-1.3 1.7-1.5.4-.4.7-.9.4-1.5l-13.6-25.1c-.9-1.7-2.4-3-4.1-3.6z"/><path fill="#172182" d="M84.7 168.4L72.6 164c-1-.4-1.9.7-1.4 1.6L84.8 190c.8 1.5 2.1 2.6 3.7 3.3l12.5 5.3c1 .4 2-.6 1.5-1.6l-13.6-25.1c-1-1.6-2.4-2.8-4.2-3.5z"/><path fill="#95BDE5" d="M153.4 172.1c6.4-.7 15.5 9.3 17.1 13.1 1.6 3.8-30.3 4.9-37.7 4.9-13.3 0-23.6-3-34.1 3.9-3.3 2.2-8.8 3.4-15.2-.7-6.4-4-5.1-9.5-5.9-12.1s4.8-1.3 7.5-.3c0 0 5.5 1.6 7.6-.5s-3.1-3-3.8-5.4c-.7-2.4.4-3 6.6.7s7.9 4.1 15.4 2.6c7.6-1.5 37.7-5.7 42.5-6.2z"/><path fill="#649DCC" d="M154.4 176.4c6.4-.7 14.4 5.1 16.1 8.8 1.6 3.8-30.3 4.9-37.7 4.9-13.3 0-23.6-3-34.1 3.9-3.3 2.2-8.8 3.4-15.2-.7-6.4-4-5.1-9.5-5.9-12.1s5.7 4.1 8.5 5.1c0 0 14.4-.6 16.5-2.7s6.1-.8 13.7-2.3c7.5-1.4 33.3-4.4 38.1-4.9z"/><path fill="#457DA3" d="M144.4 58.9c.1-4.1 2.4-4.4 3.4-3s2 8.1-1.6 6.9c-1.5-.6-1.8-2.9-1.8-3.9zm269.9-22.3c-1.9-3.6-2.5-3.3-3.2-1.7-.8 1.6-1.1 7.7 2.5 6.9 4.4-1 .7-5.2.7-5.2z"/><linearGradient id="g" gradientUnits="userSpaceOnUse" x1="2373.995" y1="-1546.933" x2="2477.856" y2="-1546.933" gradientTransform="rotate(-38.357 3825.281 2367.495)"><stop offset="0" stop-color="#fff"/><stop offset="1" stop-color="#c2dbff"/></linearGradient><path fill="url(#g)" d="M317.1 106.6c-2.1-5-6.5-5.6-9.8-1.3l-44 56.8c-3.3 4.3-4.4 11.9-2.3 16.9l19.6 47.5c2.1 5 6.5 5.6 9.8 1.3l44-56.8c3.3-4.3 4.4-11.9 2.3-16.9l-19.6-47.5z"/><path fill="#95BDE5" d="M277.6 97.5c-.1 0-.1 0 0 0h-.5-.1-.5c-.1 0-.3 0-.4.1h-.1-.1c-.1 0-.2.1-.4.1h-.1c-.2.1-.3.1-.5.2h-.1c-.2.1-.3.2-.5.3-.1.1-.2.1-.3.2l-.1.1c-.1 0-.1.1-.2.1-.1.1-.2.2-.4.3l-.1.1-.3.3s0 .1-.1.1l-.3.3-.1.1c-.1.2-.3.3-.4.5l-44 56.8c-.2.2-.3.4-.5.6l-.1.1c-.1.2-.3.4-.4.7l-.1.1c-.1.2-.3.5-.4.7v.1c-.1.2-.2.5-.3.7v.1c-.1.2-.2.4-.2.6-.1.2-.1.4-.2.6v.2l-.3.9v.1c-.1.3-.1.5-.2.8v.1c-.1.3-.1.5-.2.8v.2c0 .2-.1.4-.1.6v.1c0 .2-.1.5-.1.7v3.5c0 .3 0 .5.1.8v.2c0 .3.1.6.1.9v.2c0 .1 0 .2.1.3v.2c0 .1.1.2.1.3v.2c.1.2.1.5.2.7v.1c.1.2.2.5.3.7l19.6 47.5c1 2.5 2.6 3.9 4.4 4.1l35.2 4.9c-1.8-.2-3.4-1.6-4.4-4.1L261 179c-.1-.2-.2-.5-.3-.7v-.1c-.1-.2-.1-.5-.2-.7 0-.1 0-.1-.1-.2 0-.1-.1-.2-.1-.3v-.2c0-.1 0-.2-.1-.3v-.2c-.1-.3-.1-.6-.1-.9v-.1c0-.3-.1-.5-.1-.8v-.1-.8-.2-.7-.1-.7-.2-.6-.2c0-.2.1-.5.1-.7v-.1c0-.2.1-.4.1-.6v-.2c0-.3.1-.5.2-.8v-.1c.1-.3.1-.5.2-.8v-.1l.3-.9v-.1c.1-.2.1-.4.2-.6.1-.2.2-.4.2-.6 0 0 0-.1.1-.1.1-.2.2-.5.3-.7v-.1c.1-.2.3-.5.4-.7l.1-.1c.1-.2.3-.4.4-.7l.1-.1c.2-.2.3-.4.5-.6l44-56.8c.1-.2.3-.3.4-.5l.1-.1.3-.3.1-.1.3-.3.1-.1c.1-.1.2-.2.4-.3l.2-.2.1-.1c.1-.1.2-.1.3-.2.2-.1.3-.2.5-.3h.1c.2-.1.3-.1.5-.2h.1c.1 0 .2-.1.4-.1h.1c.1 0 .3-.1.4-.1h1l-35-5zM273.2 86.6c-2-4.8-5-7.5-8.4-7.9L252 76.9c3.4.5 6.5 3.1 8.4 7.9l12.8 1.8z"/><linearGradient id="h" gradientUnits="userSpaceOnUse" x1="2396.927" y1="-1617.586" x2="2469.571" y2="-1617.586" gradientTransform="rotate(-38.357 3825.281 2367.495)"><stop offset="0" stop-color="#fff"/><stop offset="1" stop-color="#c2dbff"/></linearGradient><path fill="url(#h)" d="M281.3 76.1c-6.7-16.4-21.1-18.2-32-4.2-10.9 14-14.3 38.8-7.5 55.1l12.2 29.7 8.1-10.5-12.1-29.7c-4-9.6-2-24.2 4.4-32.4 6.4-8.3 14.8-7.2 18.8 2.5l8.1-10.5z"/><path fill="#95BDE5" d="M254.2 60.8h-.2-.1c-.2 0-.4 0-.6-.1H252.4 251.5c-.2 0-.4 0-.7.1-.2 0-.5.1-.7.1h-.2c-.2 0-.4.1-.6.1h-.1c-.2.1-.5.1-.7.2h-.2c-.2.1-.4.1-.6.2h-.1-.1c-.2.1-.5.2-.7.3-.1 0-.1 0-.2.1-.2.1-.4.2-.7.3h-.1c-.3.1-.5.3-.8.4-.1 0-.1.1-.2.1-.3.1-.5.3-.8.5-.3.2-.6.4-1 .6h-.1c-.3.2-.6.4-.9.7 0 0-.1 0-.1.1h-.1c-.2.1-.3.3-.5.4 0 0-.1 0-.1.1-.2.2-.4.3-.6.5l-.2.2-.4.4-.2.2c-.1.1-.3.2-.4.4l-.1.1-.1.1-.6.6-.1.1c-.2.2-.4.5-.6.7l-.2.2c-.2.2-.3.4-.5.6l-.2.2c-.2.3-.4.5-.6.8-.3.4-.6.8-.9 1.3-.1.1-.2.3-.3.4l-.6.9c-.1.2-.2.3-.3.5-.2.3-.4.6-.5.9-.1.2-.2.4-.3.5-.2.3-.3.6-.5.9-.1.2-.2.3-.3.5-.2.4-.4.7-.6 1.1-.1.1-.1.2-.2.4-.2.5-.5 1-.7 1.5-.1.1-.1.2-.2.4-.1.3-.3.7-.4 1 0 .1 0 .1-.1.2-.3.6-.5 1.3-.8 1.9-.2.6-.5 1.3-.7 1.9 0 .1 0 .1-.1.2-.1.2-.2.5-.2.7-.1.3-.2.5-.3.8-.1.3-.2.6-.3 1-.1.3-.2.5-.2.8v.1c-.1.5-.3 1-.4 1.5v.1c-.1.5-.2.9-.3 1.4v.2c0 .2-.1.3-.1.5l-.3 1.2c0 .2-.1.4-.1.6 0 .1-.1.3-.1.4-.1.3-.1.6-.2.9 0 .1 0 .2-.1.3-.1.5-.2 1-.2 1.5v.2c0 .1 0 .3-.1.4-.1.4-.1.9-.2 1.3 0 .2 0 .3-.1.5v.3c0 .5-.1.9-.1 1.4v.1c0 .4-.1.8-.1 1.2v.9c0 .5 0 .9-.1 1.4v4.1c0 .5 0 .9.1 1.4v.4c0 .5.1 1.1.1 1.6v.4c0 .3.1.6.1.9v.3c0 .2.1.5.1.7 0 .3.1.7.1 1 0 .2.1.5.1.7 0 .2.1.4.1.5 0 .2.1.4.1.7v.2l.3 1.5c0 .1 0 .2.1.3l.3 1.2c0 .1 0 .1.1.2 0 .2.1.3.1.5.1.3.2.7.3 1 .1.2.1.4.2.5.1.3.2.7.3 1 .1.2.1.3.2.5.2.5.4 1 .6 1.4l12.2 29.7 12.8 1.8-11.9-29.8c-.2-.5-.4-.9-.6-1.4-.1-.2-.1-.3-.2-.5-.1-.3-.2-.7-.3-1-.1-.2-.1-.4-.2-.5-.1-.3-.2-.7-.3-1 0-.2-.1-.3-.1-.5-.1-.5-.2-.9-.4-1.4 0-.1 0-.2-.1-.3l-.3-1.5v-.2c-.1-.4-.1-.8-.2-1.2 0-.2-.1-.5-.1-.7-.1-.3-.1-.7-.1-1 0-.2-.1-.5-.1-.7 0-.4-.1-.8-.1-1.2v-.4c-.1-.6-.1-1.1-.1-1.7v-.3c0-.5 0-.9-.1-1.4v-.5-1.3-.4-1.7-.3c0-.5 0-.9.1-1.4v-.5c0-.5.1-1 .1-1.6v-.1c0-.6.1-1.1.2-1.7 0-.2 0-.3.1-.5 0-.4.1-.9.2-1.3 0-.1 0-.3.1-.4.1-.6.2-1.1.3-1.7 0-.1 0-.2.1-.3.1-.4.2-.9.2-1.3 0-.2.1-.4.1-.6l.3-1.2c0-.2.1-.3.1-.5.1-.5.2-1 .4-1.6v-.1c.1-.6.3-1.1.4-1.7.1-.3.2-.5.2-.8.1-.3.2-.7.3-1 .1-.3.2-.5.3-.8l.3-.9c.2-.7.5-1.3.7-1.9.2-.6.5-1.3.8-1.9.2-.4.3-.8.5-1.1.1-.1.1-.2.2-.4.2-.5.5-1 .7-1.5.1-.1.1-.3.2-.4.2-.4.4-.7.6-1.1.1-.2.2-.3.3-.5.2-.3.3-.6.5-.9.1-.2.2-.4.3-.5.2-.3.4-.6.5-.9.1-.2.2-.3.3-.5l.6-.9c.1-.1.2-.3.3-.4.3-.4.6-.8.9-1.3.2-.3.4-.5.6-.8l.2-.2c.2-.2.3-.4.5-.6l.2-.2c.2-.2.4-.5.6-.7l.1-.1.6-.6.2-.2.4-.4.2-.2.4-.4.2-.2c.2-.2.4-.3.6-.5 0 0 .1 0 .1-.1.2-.1.3-.3.5-.4l.1-.1c.3-.2.6-.5.9-.7h.1c.3-.2.6-.4 1-.6.3-.2.5-.3.8-.5.1 0 .1-.1.2-.1.3-.1.5-.3.8-.4.1 0 .1 0 .2-.1.2-.1.4-.2.7-.3 0 0 .1 0 .1-.1.2-.1.5-.2.8-.3.1 0 .1 0 .2-.1.2-.1.4-.1.6-.2h.2c.2-.1.5-.1.7-.2h.2c.2 0 .4-.1.6-.1h.2c.2 0 .5-.1.7-.1.2 0 .4 0 .7-.1h1.8c.2 0 .4 0 .6.1h.3l-13.4-1.4z"/><path fill="#FFF" d="M304 160c1.1-4 1-8.5-.4-11.9-2.2-5.3-6.8-5.9-10.3-1.3-.2.2-.3.4-.5.6-3 4.4-3.9 11.4-2.2 16.4 1.3 3.9 3.9 5.6 6.6 5l3.5 17.5c.4 2.1 2 2.6 3.1 1.1l8.1-10.4c1.2-1.5 1.4-4.3.4-5.6L304 160zM305.2 46.2c-.5 2.2-.8 4.3-1.1 6.5-.2 1.6-.3 3.1-.4 4.7l-1.5-1.5c-1-.9-2-1.9-3.1-2.7.8 1.2 1.6 2.3 2.5 3.3.4.5.9 1.1 1.3 1.6h-4.7c-2.2.1-4.4.2-6.5.6 2.2.5 4.3.8 6.5 1.1 1.6.2 3.1.3 4.7.4l-1.5 1.5c-.9 1-1.9 2-2.7 3.2 1.2-.7 2.3-1.6 3.3-2.5.5-.4 1.1-.9 1.6-1.3v4.7c.1 2.2.2 4.4.6 6.5.5-2.2.8-4.3 1.1-6.5.2-1.5.3-3.1.4-4.7.5.5 1 1 1.5 1.4 1 .9 2 1.9 3.1 2.7-.7-1.2-1.6-2.3-2.5-3.3-.4-.5-.9-1.1-1.3-1.6h4.7c2.2-.1 4.4-.2 6.5-.6-2.2-.5-4.3-.8-6.5-1.1-1.6-.2-3.1-.3-4.7-.4l1.5-1.5c.9-1 1.9-2 2.7-3.1-1.2.7-2.3 1.6-3.3 2.5-.5.4-1.1.9-1.6 1.3v-4.7c-.1-2.1-.2-4.3-.6-6.5M291.9 27.3c-.2 1-.4 1.9-.5 2.9-.1.7-.1 1.4-.2 2.1-.2-.2-.4-.4-.7-.6-.4-.4-.9-.8-1.4-1.2.3.5.7 1 1.1 1.5.2.2.4.5.6.7h-2.1c-1 0-1.9.1-2.9.3 1 .2 1.9.4 2.9.5.7.1 1.4.1 2.1.2-.2.2-.4.4-.6.7-.4.4-.8.9-1.2 1.4.5-.3 1-.7 1.5-1.1.2-.2.5-.4.7-.6v2.1c0 1 .1 1.9.3 2.9.2-1 .4-1.9.5-2.9.1-.7.1-1.4.2-2.1.2.2.4.4.7.6.4.4.9.8 1.4 1.2-.3-.5-.7-1-1.1-1.5-.2-.2-.4-.5-.6-.7h2.1c1 0 1.9-.1 2.9-.3-1-.2-1.9-.4-2.9-.5-.7-.1-1.4-.1-2.1-.2.2-.2.4-.4.6-.7.4-.4.8-.9 1.2-1.4-.5.3-1 .7-1.5 1.1-.2.2-.5.4-.7.6v-2.1c-.1-1-.1-1.9-.3-2.9"/></svg>