<svg xmlns="http://www.w3.org/2000/svg" viewBox="0 0 573.8 393.2"><linearGradient id="a" gradientUnits="userSpaceOnUse" x1="183.63" y1="57.155" x2="206.738" y2="57.785" gradientTransform="matrix(1 0 0 -1 0 287.531)"><stop offset="0" stop-color="#91beff"/><stop offset="1" stop-color="#c2dbff"/></linearGradient><path fill="url(#a)" d="M45.2 257.8v-13.6l18.5-1.6 274.3-100c10.5-3.8 21.9-3.8 32.4 0l120 43.7 12.9-1.1v13.7c-.1 4.1-2.5 8.2-7.1 9.8L209.8 313.3c-10.5 3.8-21.9 3.8-32.4 0L52.5 267.8c-4.7-1.7-7.1-5.8-7.3-10z"/><path fill="#FFF" d="M52.5 256.6l124.9 45.5c10.5 3.8 21.9 3.8 32.4 0l286.4-104.5c9.5-3.5 9.5-16.9 0-20.4l-125.8-45.8c-10.5-3.8-21.9-3.8-32.4 0L52.5 235.6c-9.8 3.5-9.8 17.4 0 21z"/><path fill="#C2DBFF" d="M52.5 256l124.9 45.5c10.5 3.8 21.9 3.8 32.4 0L496.2 197c9.5-3.5 9.5-16.9 0-20.4l-125.9-45.8c-10.5-3.8-21.9-3.8-32.4 0L52.5 234.9c-9.8 3.6-9.8 17.5 0 21.1z"/><linearGradient id="b" gradientUnits="userSpaceOnUse" x1="50.45" y1="72.366" x2="498.275" y2="72.366" gradientTransform="matrix(1 0 0 -1 0 287.531)"><stop offset=".185" stop-color="#ef8135"/><stop offset=".463" stop-color="#e2497c"/><stop offset=".765" stop-color="#7a33d1"/><stop offset="1" stop-color="#7991ee"/></linearGradient><path fill="url(#b)" d="M55.1 251.1l123.8 45.1c9.6 3.5 20.2 3.5 29.9 0l284.9-103.8c6.1-2.2 6.1-10.9 0-13.1l-123.8-45.1c-9.6-3.5-20.2-3.5-29.9 0L55.1 238c-6.2 2.2-6.2 10.8 0 13.1z"/><path fill="#2848BD" d="M533 261.7c2.9 3.3 2.1 7.9 3.4 10.3 2.6 4.9 3 6.7 5.3 7.7 8.6 4 15 11.5 19.6 12.8 7.6 2.3 11.2-.8 12.1-1.7.9-.9.5-6.8-5.5-10.3-6.5-3.8-13.3-4.7-19.1-11.6-4.1-4.9-7.1-11.2-7.1-11.2l-8.7 4z"/><path fill="#FFF" d="M529.8 260.9c2.9 3.3 3.5 5.1 4.8 7.5 2.6 4.9 3 6.7 5.3 7.7 8.6 4 15 11.5 19.6 12.8 7.6 2.3 11.2-.8 12.1-1.7.9-.9 1.3-3.9-4.7-7.3-6.5-3.8-14.1-7.7-19.9-14.6-4.1-4.9-7.1-11.2-7.1-11.2l-10.1 6.8z"/><path fill="#2848BD" d="M503.7 218.6c9.9 11.4 25.3 41.5 26.1 42.3 3.5 3.7 13.8-2 11.6-5.2-11.9-17.3-24.4-77.8-36.6-83.7-10.8-5.2-81.1-32.9-81.1-32.9l-11 25.4 78.9 23.8c0-.1 3 19.8 12.1 30.3z"/><path fill="#0D146E" d="M424.5 158.2c5.7-7.5 3.9-6.8 5.7-4.4 5.9 7.7 21.3 13.8 25.1 14.9 19.6 5.5 32.4 6.7 35.7 10.1 4.6 4.6 8.9 10.6 12 19.7s18.1 39.5 22.7 47.8c4.5 8.3 7.2 15.4 7.2 15.4l-3.2-.8-37.2-57.4s-78.6-31.2-68-45.3z"/><path fill="#2848BD" d="M374.1 157.9c.4 20.6 19.6 33 35.9 34.5 21.2 2 59.6 11.8 63.1 14.7 3.6 2.8.3-.7-3.1 19.9-2.5 15.7 12.4 37.1 7.4 61.7-1 4.8 14 4.8 14 2.3 0-14.2 3.3-70.6 6.3-84.6 3.1-14.7-6-18.1-17-23.9-6.3-3.3-56.2-24.3-53.8-27.8 6.1-9.2-3.2-15.6-3.2-15.6l-43-1.4c0-.1-6.7 14.9-6.6 20.2z"/><path fill="#0D146E" d="M420.2 147.7c-14.5 10.3-27.2 7.4-28.5 16.1-1.3 8.8 7.1 13.9 21 17s56.7 11.3 66 13.6c9.3 2.3 9.6 11.9 6.5 15s.5 26.9.5 32.9-3.4 41.3-8.4 46.3c-1.3 1.3-.9-26.6-7.6-56.2-2.6-11.2 7.4-24.5 3.3-25.4-16.4-3.8-56.7-13.9-72-16.3-23-3.6-32.3-24.8-26.5-37.1.4-.8 6.1-16 6.1-16l40-1.9-.4 12z"/><path fill="#2848BD" d="M509.4 313.7c11.4-.8 11.7-8.2 3.6-9.9-6.4-1.4-20.1-2.3-21.7-9.6-.2.1-8.7 2.5-14-2.3-1.6 7.2-6.4 16.6.6 18 17.3 3.5 21.3 4.5 31.5 3.8z"/><path fill="#FFF" d="M509.4 310.6c11.4-.8 11.1-6 3-7.7-6.4-1.4-19.4-4.5-21-11.8-.2.1-8.7 2.5-14-2.3-1.6 7.2-6.4 16.6.6 18 17.2 3.5 21.2 4.5 31.4 3.8z"/><path fill="#F9329C" d="M398.3 1.4c-14.7-3.2-9.1 14.1-19.8 17.9-10.8 3.8-17.4 1-18.7 12.3-1.3 11.3-6.1 4.5-17.1 10.2-6.4 3.3-6.9 10.2-3.1 13.1 3.8 2.9 8.6-6.5 20.2 1.9 12.6 9.1 22.9 5.7 23.6-6 .6-11.7.2-13.6 6.8-13.8 6.6-.3 9.6-10.6 10.6-18.7s6.7-8.3 6.7-8.3 2.1-6.1-9.2-8.6z"/><linearGradient id="c" gradientUnits="userSpaceOnUse" x1="340.599" y1="254.826" x2="406.8" y2="254.826" gradientTransform="matrix(1 0 0 -1 0 287.531)"><stop offset="0" stop-color="#b02788"/><stop offset="1" stop-color="#e72e98"/></linearGradient><path fill="url(#c)" d="M395.9 6c-.8 3.9-2.2 13.7-9 17-6.8 3.2-14.2 1.5-15.7 10.8s-6.6 10.9-16.7 9.6c-8.7-1.1-18.1 5.1-11.9 11.9 3.5-1 8.4-4.8 17.1 1.6 12.6 9.1 22.9 5.7 23.6-6 .6-11.7.2-13.6 6.8-13.8 6.6-.3 9.6-10.6 10.6-18.7.8-6.5 4.6-7.9 6.1-8.2 0-.6 0-1-.1-1.4-2.2-6.6-10-6.7-10.8-2.8z"/><linearGradient id="d" gradientUnits="userSpaceOnUse" x1="411.267" y1="249.483" x2="451.48" y2="249.483" gradientTransform="matrix(1 0 0 -1 0 287.531)"><stop offset="0" stop-color="#b02788"/><stop offset="1" stop-color="#e72e98"/></linearGradient><path fill="url(#d)" d="M444.7 72c11.6-9.6-4.3-13.8-.2-23.9s10.3-13.6 3.1-20.2c-7.2-6.6.7-6.9 3.6-18 1.7-6.5-3.9-12.2-8.7-8.9-3.8 2.7-8.6 7.4-22 12.1-14.5 5.1-9.6 16.9-1.6 23.1 7.9 6.3 9.5 6.9 5.6 12-4 5.1 1.5 12.5 6.7 17.3 5.1 4.8 1.7 9.2 1.7 9.2s2.9 4.6 11.8-2.7z"/><path fill="#95BDE5" d="M435.7 63.9c7.3 9.6 23.1 37 24.1 36.3s27.3-12 27.1-14.4c-.3-2.4-.3-4 0-6.1s-.4-5.4 1.2-5.8c1.6-.4 1.6.4 1.8 2.4.2 2 1.7 4.2 4.1 3.1 1.4-.7 3.1-2 5.4-2.5 1.5-.3 3.3-.1 5.5 1 5.3 2.8 3.2 4 1.5 3.6s-3-2.2-4.9-1.8c-1.9.5 1.3 1.7 2.2 3.9.9 2.3-2.5 8.9-6 9.6-3.6.6-5-1-8.2 1.4-2.7 2-22.1 16.6-26.3 19.6-4.3 3-5.2 4.1-7 3.4-4.9-1.7-17.5-21.6-17.5-21.6l-3-32.1z"/><path fill="#F9329C" d="M439.8 56.2c.3-2.9.7-6.1 1.1-8.9 1.1-7.4-6.6-25.1-3-42.9-3.5 2.5-8.6 5.6-17.4 8.7-14.5 5.1-9.6 16.9-1.6 23.1 7.9 6.3 9.5 6.9 5.6 12-4 5.1 1.5 12.5 6.7 17.3.4.4.8.8 1.1 1.2 4.1-1.9 7-5.8 7.5-10.5z"/><path fill="#95BDE5" d="M493.2 81.4c-5 .8-2.8 6.9-4.6 7.5-1.8.7-29.8 15.2-31.8 15.9s-5.4-6.6-11.4-17l-7.4.7.7 7.5s12.6 19.8 17.5 21.6c1.8.6 2.7-.4 7-3.4s23.6-17.6 26.3-19.6c.9-.7 1.7-1 2.4-1.2 0 0-3.5-9.2 6.4-12.3 1.8-.7-2.9-.1-5.1.3z"/><path fill="#F9329C" d="M422.4 56.7c-3.4 2.1-1 7 .7 16 2 10.2 8.1 20.7 8.1 20.7s7.4 2.3 20.2-6.5c0 0-5.6-12.9-9.5-19.7-2.4-4.2-15.4-13.1-19.5-10.5z"/><path fill="#001F99" d="M411.1 21.1c-13-6.7-8.1-16.2-2.6-14.6 6.5 1.8 8.4 4.9 8.4 4.9l-5.8 9.7zm17.9-6.6c3.3-14.3 13.6-11.9 13.5-6.1-.1 6.7-2.7 9.4-2.7 9.4L429 14.5z"/><path fill="#F9329C" d="M410.2 49c.4-5.7-5.4-18.7-4-26.5s12.7-19.3 21.1-16c12.6 4.9 4.9 9.6 4.9 9.6l-22 32.9zm-11.4-2.3c9.8 5.2 28.7 17.2 28.7 17.2l4-4.6c8.2 4.6 8.2 8.6 10.4 18.5 8 35.2-2.9 26.8-13.3 60.7-3.6 11.7-55.4 20.9-48.2-1.6 3.5-11 7.2-30.9 3.5-43.9-3.7-12.9-8.1-17.6 9.2-33.6l5.7-12.7z"/><path fill="#AD236D" d="M390.2 74c4.7-8.3 17.6-2.5 21.1-19l-.4-1.4c-4.3-2.6-8.7-5.2-12.1-6.9l-5.7 12.8c-17.3 16-12.9 20.7-9.2 33.6 3.7 12.9 1.7-10.8 6.3-19.1z"/><path fill="#95BDE5" d="M416.3 41.3c0-5.6-.9-5.2-.9-5.2-.5-1.6.2-4.3-2.7-5.1-5.7-1.6-4.8 12.6-2 12.4 3.6-.3-4.2 10.7-4.2 10.7-1.2 4.1 21 9.8 21 9.8-.8-5.9 2.3-12.5 3.1-16.7.7-3.2-9.1-6.3-14.3-5.9z"/><path fill="#AD236D" d="M427.5 63.9c-.7-5.5.5-7.2.6-7.6.1-.5 4.4.8 3.2 3.8-1.3 3-3.8 3.8-3.8 3.8z"/><path fill="#95BDE5" d="M417.6 25.2c-2.5 12.5-5.4 17-1.6 23.2 5.5 9.1 7.4 9.4 12.1 10.2 4.6.8 11.6-10.9 12.8-13.3 1.9-3.8.4-4.2 1.4-8.3.6-2.6 1.3-2.7 2.1-7.9 2-13.8-23.8-19.2-26.8-3.9z"/><path fill="#649DCC" d="M453 29.3l-15.1-15.5-14.1 4.1-8.6 17.6c-3.3 2.3-3.1 8-3.1 14.8 0 3.3-3 6.2-1.6 7.8 1.6 1.8 15.1 6.4 13.7 4.9-12.1-12.8 4.7-2.6 3.8-4.3-3.6-7-4-10-3.5-11.9 3.5-12.4-1.6-13.6 9.4-17.2 3.4-1.1 8.7 7.9 12.2 7.8 2.8-.1 6.9-8.1 6.9-8.1z"/><path fill="#F9329C" d="M415.2 35.4c2.6 1.9 6.1 1.1 8.5-2.5 2.4-3.7 6.3-14.5 13.9-9.3 1.4 1 5-3.2 3.1 6.1-1.2 5.8.4 11.9 3.2 17.7 2.9 5.8 4.3 6.6 2.5 13.9 4-6.8 8.5-9.1 6-18.9-2-7.8 5.7-17 2.9-23.9-2.8-6.9-15.4-14.5-24.7-8.8 0 0-5.2-2.2-10.1 3.2-8.1 9.2-5.3 22.5-5.3 22.5z"/><linearGradient id="e" gradientUnits="userSpaceOnUse" x1="415.2" y1="250.405" x2="449.081" y2="250.405" gradientTransform="matrix(1 0 0 -1 0 287.531)"><stop offset="0" stop-color="#b02788"/><stop offset="1" stop-color="#e72e98"/></linearGradient><path fill="url(#e)" d="M415.2 35.4c6.8-6.5 12.5-16.1 18-15.5s-2.2-6.1-.8-6.8c3.9-2 16.7 7 13.2 19.7-2.2 8 8 20.1.8 28.7.4-1.3 1.2-9.4-5.5-17.9-5-6.2-2-11.2-.7-17.2.9-4.1-.5-1.3-2.7-2.8-7-4.7-13.2 20.7-20.7 13.5l-1.6-1.7z"/><path fill="#6D1648" d="M410.4 47.7c-4.2-1.5-11-2.2-11.6-1-1.5 3.3 4.2 7.7 11.7 11.3 0 0-3.4-2.3-2.7-4.3.7-1.6 1.5-2.8 2.6-6z"/><path fill="#AD236D" d="M402.8 86.8c6.2 7.4 2.5 26.5 9.3 27.5 9.6 1.3 31.9-11.6 27.6-5.5-16.6 23-19.4 8.3-32 35.2-6.1 13.1-31.9 6.1-28-3.7 3-7.4 6.6-34.5 5.4-40.8-1.2-6.4 17.7-12.7 17.7-12.7z"/><path fill="#95BDE5" d="M394 63.9c-13.9 6.2-15.7 15.2-11.8 31.6 2.4 10.2 10.3 24.8 15.9 35.3 3.4 6.3 4.2 11.5 7.4 12.1 20.6 3.5 41.7-6.8 71.4-14.7 0 0 .2-3.6-2.5-7.2 0 0-32.9 5.4-45.7 6.6l-14 1.2s-8.5-18.4-12.3-31.6c-3.9-13.5-8.4-33.3-8.4-33.3z"/><path fill="#95BDE5" d="M411.3 134.9c-3.1-2.6-14.5-19.5-20.5-35.5l-6.8 2.3c3.4 9.4 9.5 20.6 14 29 3.4 6.3 4.2 11.5 7.4 12.1 13.8 2.4 27.8-1.5 44.4-6.6-13.5 1.4-35.4 1.3-38.5-1.3z"/><path fill="#F9329C" d="M395.3 62.5c-13.2 4.3-14.9 10.2-14.9 19.3 0 10.4 3.9 21.9 3.9 21.9s6.8 3.7 21.1-2.5c0 0-5.8-25.1-5.6-25.5.1-.4-4.5-13.2-4.5-13.2z"/><path fill="#AD236D" d="M397.5 68.9c-1.1-3.2-2.3-6.3-2.3-6.3-13.2 4.3-14.9 10.2-14.9 19.4 0 10.4 3.9 21.9 3.9 21.9s2.4 1.3 7.4 1c-1.3-7.3-4.6-30.1 5.9-36z"/><path fill="#2848BD" d="M491.2 104.6l12.1-4.4c.5-.2 1 0 1.3.3s2.1 1.8 1.8 2.2L491 126.3c-.8 1.5-2.1 2.6-3.7 3.3l-11.8 6.8c-.4.2-1.5-1.3-1.7-1.5-.4-.4-.7-.9-.4-1.5l13.6-25.1c.9-1.8 2.4-3 4.2-3.7z"/><path fill="#172182" d="M492.7 106.2l12.1-4.4c1-.4 1.9.7 1.4 1.6l-13.7 24.4c-.8 1.5-2.1 2.6-3.7 3.3l-12.5 5.3c-1 .4-2-.6-1.5-1.6l13.6-25.1c1.1-1.6 2.5-2.9 4.3-3.5z"/><path fill="#95BDE5" d="M474 121.1c4.4-2.6 4.9-4.5 6.9-6.4 2.1-1.9 2.3-.1 1.2 2.7-1.1 2.8 6.3 2.9 8.3 1.6 2-1.3 1.8-3.4 2.6-3.8.7-.4 2 0 1.2 2.2 0 0 .5-.2.8.5s.1 2.9-1.1 4.8c-1.3 2-1.1 5-2.8 5.8s-9.9.7-14.4-.5c-4.6-1.2-2.7-6.9-2.7-6.9z"/><path fill="#C2DBFF" d="M115.2 90.9c-9.1 19.7-15.5 49.1-15.8 54.1s-1.9 4.8-1.3 7-6.9.8-4 6.7c1.9 3.8 18.2 20.4 25 13.6 6.9-6.8 3.8-22 5-25.5s.6-6.4.6-6.4-4.8-16-4.4-32.8c.5-18.2-3.9-19.3-5.1-16.7z"/><path fill="#2848BD" d="M58.3 382.8c-7.3 4.1-8.8.5-15.5 1.4s-14.1 2.7-18.3 2.4c-7-.5-19-7.9-21.2-12.8l-1.7 1.4L0 377c1.6 11.4 17.3 16.1 29.3 16.2h1.9s25.3-2.6 24.8-3.2c-.5-.8 2.3-7.2 2.3-7.2z"/><path fill="#FFF" d="M61.3 364.6c-1.1 4.4-1.9 20.4-5 21.7-3.1 1.3-21 3.6-29.6 3.6s-19.6-5.6-21.2-8.5c-2.8-5.1-5.1-9 2-8.3 10.4 1 26.9-4.6 30.8-12.1 3.8-7.5 23 3.6 23 3.6z"/><path fill="#2848BD" d="M93.4 337.6c-4.1 5.9-10.6 6.3-15.2 9.3s-15.1 8.9-18.5 8.8-5.5-3.4-9.8-3.3-5.7 3.4-5.7 3.4l17 8.8 13.4-6.5s18.8-9.8 22.2-13.5c.6-.5-3.4-7-3.4-7z"/><path fill="#FFF" d="M93.1 328.5c.5 4.1 3.4 11.2 1.6 13.3-1.9 2.1-21.9 12.2-28.2 15-6.3 2.9-17.2.1-19-1.2-1.8-1.4 2.8-5.6 9.5-10.2s14.5-9.7 15.1-17.3c.7-7.7 21 .4 21 .4z"/><path fill="#91BEFF" d="M90 256.8c-4.9 3.8 7.7 3.7 3.9 58.4-.5 7.8-.8 10.6-.8 13.3 0 2.6-18.4 1-17.7-2.9 3.5-18.9-10.5-54.5-14.4-73.6-1.9-9.3-6.9-13.8 21-33.2 26.7-18.6 53.6-27.6 57.2-30.4 19.5-14.8 76.5-6.6 47.5 24.3-19.8 21.2-74.1 26.5-96.7 44.1z"/><path fill="#C2DBFF" d="M95.3 269.7c-5.9 1.9 3.3 24.9-34 94.9-4.4 8.2-21.6-3.3-19.9-6.6 9.6-19.7 18.2-70.3 19.9-94.5.8-11.8 7.2-17.9 36.1-35.7 36.6-22.5 46.4-33.1 50.8-34.5 16-5 41-11.1 44.4 2.5 1.5 6.2.5 29.4-11.2 36-25.4 14.4-58.8 29-86.1 37.9z"/><path fill="#95BDE5" d="M134 154.2c12.1.4 25.9.6 33 1 0 0 2.1-13.8 4.1-23.8 1.8-9.1-3-18.1 1.6-24.4 4.7-6.3 7.1-12.2 13.6-5s.8 23.3-3 34.3c-3.7 11-4.3 22.1-6.8 27.7-3.2 7.2-5.3 8.4-12.9 6.5-8.8-2.2-22.5-2.2-33.6-7.7-3.7-1.8-.8-8.7 4-8.6z"/><path fill="#001F99" d="M161.5 72.7c-4.8-2.5-15.9-.6-15.9-.6L127.1 80l-10.8 25.8 47.1-23.2-1.9-9.9z"/><path fill="#95BDE5" d="M131.1 78c1.1 11 9.8 10.9 9.8 10.9l1.1 8.2s-16.6 3.5-16.6 3c-.1-.5 2.3-11.6 2.3-11.6l3.4-10.5z"/><path fill="#95BDE5" d="M136.4 62.5c4-2.9 5.5-3.9 5.5-3.9.3-1.6-.2-5 2.7-6.2 5.7-2.4 6.8 11.2 3.9 11.4-3.8.3 3.8 15.4 12.4 19.7 5.3 2.7-19.1 11.3-25.3 10.2-10.8-1.9.1-18.1-7.2-23.2-2.7-1.9 2.6-7.6 8-8z"/><path fill="#95BDE5" d="M134.4 56.7c4.8 6.1 12.2 6.2 9.3 12.7-4.3 9.5-6.3 10-11.1 11.5-4.6 1.5-12.8-6.5-14.1-8.8-2.5-4.5-2.6-7.3-3.7-9.4-1.2-2.3-2.4-2.2-3.3-7.2 0 0 4.3-1.3 7.9-5 2.2-2.3 5-2.4 8.3-.9 3.4 1.6 3.3 2.8 6.7 7.1z"/><path fill="#649DCC" d="M113.6 50.9c1.2-5.3 23.3-5.2 33 1.3 4.6 3.1.8 4.6.9 13.3 0 4.1 4.7 10.4 9.8 15.7 3.9 4-17.2-3.7-15-2.7l-9.6 2.5c-.4.2-.1 2.7 1.2-6.9.5-4-5.5-3.5-3.9-14.9.6-5-20 8.1-16.4-8.3z"/><linearGradient id="f" gradientUnits="userSpaceOnUse" x1="2567.541" y1="-558.531" x2="2637.168" y2="-515.767" gradientTransform="scale(-1) rotate(-8.534 4518.041 18034.143)"><stop offset=".037" stop-color="#0f1782"/><stop offset=".123" stop-color="#0f1782"/><stop offset="1" stop-color="#0168ff"/></linearGradient><path fill="url(#f)" d="M106.8 58.3c-11.5-8.7-2.2-17.5 5.6-25.6 3.1-3.2 16.5-12.7 23.6-3.8 4.4-1.3 9.1.3 11.6 10.2 6.2 24.1-4.8 7-4.4 17.5l.8 8.2-8.2-7.3c-1.7-1.5-3.8-2.6-6.1-3.1l-4.2-.9-18.7 4.8z"/><path fill="#0D146E" d="M135.5 51.6c-4.4-5-8.2-5.2-7.4-12.4.2-1.5 2.6-6.2 6-9.5.1-1.7-1.7-2.9-5.2-.3-4.4 3.3-4.3 6.8-7.9 14.2-3.3 6.7-5 5.5-12.1 10.1-2.1 1.4-2 4.6-2 4.6l8.9.1c1.5-.1 3.1-.3 4.5-.6l9.2-1.9c2.4-.5 4.5-2 5.9-4l.1-.3z"/><path fill="#97B6E6" d="M124.8 209.9c19.2 2.2 22.5 10.5 25 24.2 0 0 12.6-5.1 23.9-10.9 11.3-5.8 19.5-17.7 19.5-17.7l-40.8-15.4-27.6 19.8z"/><path fill="#C2DBFF" d="M193.2 204.2C153.9 221.6 124 197 124 197l-9.4-86.1 16.1-27.8s-1.2 14.9 24 4.9c25.2-9.9 38.5 116.2 38.5 116.2z"/><path fill="#95ABC4" d="M131.3 95.2s-1.2 20.6.5 32 1.6 29.7 4 42.7-11.7 27.2-11.7 27.2-.6-.2.7-7.5c3.1-16.7-3.4-91.2-3.4-91.2s3.8-18.3 6.5-17.2c3.4 1.4 3.4 14 3.4 14z"/><path fill="#2848BD" d="M144 88.6c13.7-6.4 17.5-15.9 17.5-15.9s7.1 7.4 9.5 9.3c2.4 2 3.2 2.8 11.4 5.8 7.6 2.8 13.3 35.9 13 44.2-1.3 45.7-1.9 41.2 2 69.4 1.8 12.6-38.4 20.1-38.4 20.1-16.4-163.6-8.9-112.4-9.6-118.8-.5-4.4-5.4-14.1-5.4-14.1z"/><path fill="#0D146E" d="M111.2 197.8c13.3-9.1 10.8-4.1 10.2-17.5-.8-20.5-9.3-43.1-9.1-63.2.1-8.7-1.9-27.5 5.9-30.8 8.3-3.6 8.9-6.3 8.9-6.3s-1.7 2.7-.9 5.2c0 0 3.2 13.2 3.1 14.7-2.1 27.6 0 49.3-.2 83.5-.1 8.7-10.5 24.4-17.9 26.5v-12.1zm63.7-87.1c-12 9.9-11.1 40-12 44.3-.9 4.2-2.5 5.6-2.2 8 .4 2.5 1.3 4.2-1.4 4.4-3.5.2-.9 4.3-6.1 3.8-5.2-.5-7.2-7.9-7.9-.6-.6 6.4 13.5 51 13.5 51 5.2-1.6 16.6-4.3 16.6-4.3-3.3-16 1.7-38 1.7-40.5 0-5.7 5.3-16.7 5.3-16.7s3.5-15.1 6.1-29.6c3.1-15.8-12-21.1-13.6-19.8z"/><path fill="#0D146E" d="M149.3 85.9c18 10.2 26.5 10.9 26.5 10.9.4 8.2-16.9 112.5-16.9 116.3-.1 3.8-10-29.8-10-29.8s-1.5-70.9-1.4-73-.8-7.6-1.3-8.8-2.9-12.8-2.9-12.8l6-2.8z"/><path fill="#FFF" d="M174.9 93.2c-21.6 11.2-18.7 49.7-20.1 54.7-1.4 5-5.8 7.4-5 10.4.9 3-.1 5.7-5 5.8-6.6 0-.4 25.2 14.5 25.2s14.5-5.2 14.2-9.1c-.5-6.8 5-8.8 3.2-12.3-1.7-3.5-.8-5.2 2.1-7.7 2.9-2.4 2.3-6.1 2.3-6.1s5.3-17.9 8.9-35.2c4.1-18.7-12.3-27.2-15.1-25.7z"/><path fill="#C2DBFF" d="M171 95.7c9.5 3.5 10.7 11.8 8.2 23.2s-2.6 35.2-7.4 35.8c-4.8.6-7.2.8-5.3 4.6 1.8 3.9 5.8 7.2 5.8 8.5s-9.3-3-11.1-1.7 13.4 10.7 12 15.3c-2.7 8.8-13.7 4.8-13.7 4.8l-17.2-8.4 3.4-4.7c-3.4-7.9 13.9-1.8 7.2-14.8l6.7-6.8c4.1-4.8-2-5.8-2.6-8.3l1.8-15.7c.2-2.1.6-4.2 1.2-6.2l3.7-13.3 3.8-8.7 3.5-3.6z"/><path fill="#95BDE5" d="M97.8 157.6c6.4-2.3 17 2.2 19.1 8.5 2.1 6.2-24.8 20.3-24.8 20.3l-12.5-2.9 18.2-25.9z"/><path fill="#649DCC" d="M97.8 157.6c6.4-2.3 17 2.2 19.1 8.5 2.1 6.2-24.8 20.3-24.8 20.3l-12.5-2.9 18.2-25.9z"/><path fill="#2848BD" d="M86.3 166.9l-12.1-4.4c-.5-.2-1 0-1.3.3s-2.1 1.8-1.8 2.2l15.3 23.5c.8 1.5 2.1 2.6 3.7 3.3l11.8 6.8c.4.2 1.5-1.3 1.7-1.5.4-.4.7-.9.4-1.5l-13.6-25.1c-.9-1.7-2.4-3-4.1-3.6z"/><path fill="#172182" d="M84.7 168.4L72.6 164c-1-.4-1.9.7-1.4 1.6L84.8 190c.8 1.5 2.1 2.6 3.7 3.3l12.5 5.3c1 .4 2-.6 1.5-1.6l-13.6-25.1c-1-1.6-2.4-2.8-4.2-3.5z"/><path fill="#95BDE5" d="M153.4 172.1c6.4-.7 15.5 9.3 17.1 13.1 1.6 3.8-30.3 4.9-37.7 4.9-13.3 0-23.6-3-34.1 3.9-3.3 2.2-8.8 3.4-15.2-.7-6.4-4-5.1-9.5-5.9-12.1s4.8-1.3 7.5-.3c0 0 5.5 1.6 7.6-.5s-3.1-3-3.8-5.4c-.7-2.4.4-3 6.6.7s7.9 4.1 15.4 2.6c7.6-1.5 37.7-5.7 42.5-6.2z"/><path fill="#649DCC" d="M154.4 176.4c6.4-.7 14.4 5.1 16.1 8.8 1.6 3.8-30.3 4.9-37.7 4.9-13.3 0-23.6-3-34.1 3.9-3.3 2.2-8.8 3.4-15.2-.7-6.4-4-5.1-9.5-5.9-12.1s5.7 4.1 8.5 5.1c0 0 14.4-.6 16.5-2.7s6.1-.8 13.7-2.3c7.5-1.4 33.3-4.4 38.1-4.9z"/><path fill="#457DA3" d="M144.4 58.9c.1-4.1 2.4-4.4 3.4-3s2 8.1-1.6 6.9c-1.5-.6-1.8-2.9-1.8-3.9zm269.9-22.3c-1.9-3.6-2.5-3.3-3.2-1.7-.8 1.6-1.1 7.7 2.5 6.9 4.4-1 .7-5.2.7-5.2z"/><path fill="#95BDE5" d="M323.9 174.4zm-1.3-4.8c-1.3-2.5-3.8-4.9-7.3-7-3.8-2.3-8.6-3.7-13.5-4.4l-1.7-1h-10.4l-1.7.8c-5 .7-9.8 2.2-13.8 4.4-3.5 2-5.9 4.4-7.2 7.1l-1.2.7v6.7c.1 4.3 2.9 8.5 8.5 11.7 11.4 6.6 29.7 6.6 41 0 5.6-3.2 8.4-7.4 8.4-11.7v-6.7c0 .1-1.1-.6-1.1-.6z"/><linearGradient id="g" gradientUnits="userSpaceOnUse" x1="265.848" y1="117.436" x2="323.862" y2="117.436" gradientTransform="matrix(1 0 0 -1 0 287.531)"><stop offset="0" stop-color="#fff"/><stop offset="1" stop-color="#c2dbff"/></linearGradient><path fill="url(#g)" d="M315.3 158.2c-11.4-6.6-29.7-6.6-41 0s-11.3 17.3.1 23.7c11.4 6.6 29.7 6.6 41 0 11.4-6.4 11.2-17.1-.1-23.7"/><path fill="#95BDE5" d="M294.8 155.4c-7.4 0-14.4 1.7-19.5 4.7-4.8 2.8-7.4 6.4-7.4 10.2 0 3.8 2.8 7.4 7.5 10.2 5.2 3 12.1 4.7 19.5 4.7s14.4-1.7 19.5-4.7c4.8-2.8 7.4-6.4 7.4-10.2 0-3.8-2.8-7.4-7.5-10.2-5.1-3.1-12.1-4.7-19.5-4.7z"/><linearGradient id="h" gradientUnits="userSpaceOnUse" x1="268.888" y1="116.117" x2="322.991" y2="116.117" gradientTransform="matrix(1 0 0 -1 0 287.531)"><stop offset="0" stop-color="#fff"/><stop offset="1" stop-color="#c2dbff"/></linearGradient><path fill="url(#h)" d="M295.9 156.6c-7.4 0-14.4 1.7-19.5 4.7-4.8 2.8-7.4 6.4-7.4 10.2s2.8 7.4 7.5 10.2c5.2 3 12.1 4.7 19.5 4.7s14.4-1.7 19.5-4.7c4.8-2.8 7.4-6.4 7.4-10.2s-2.8-7.4-7.5-10.2c-5.2-3.1-12.1-4.7-19.5-4.7z"/><path fill="#95BDE5" d="M310.1 162.1l-2-1.2c-.4-.2-1.1-.2-1.4 0l-1.7 1c-2.3-1-4.6-1.3-6.7-1.2s-4.1.6-5.6 1.6c-1.7 1-2.5 1.9-2.5 3 0 1 .5 2 1.6 3.2.1.1.4.5.8 1 1 1.1 1.6 1.9 1.8 2.5.2.6.1 1.1-.6 1.4-1.4.8-3.2.7-5.2-.4-1.2-.7-2.2-1.4-2.9-2.4-.4-.5-.7-1-1-1.4l-.4-.4c-.6-.4-1.4-.4-2 0l-2.4 1.3c-.4.2-.5.5-.2.7.8 1.2 2.2 2.4 4 3.6l-1.9 1.1c-.4.2-.4.6 0 .8l2 1.2c.4.2 1.1.2 1.4 0l2-1.2c2.2.8 4.3 1.2 6.5 1.1s4.1-.7 5.8-1.7c1.2-.7 1.9-1.4 2.2-2.2s.2-1.4-.1-2.3c-.4-.7-1.1-1.6-1.9-2.5-.7-.8-1.3-1.4-1.6-1.8-.4-.4-.5-.8-.5-1.2 0-.4.2-.7.8-1.1.7-.4 1.4-.6 2.4-.5 1 .1 1.8.5 2.8 1 1.1.6 1.8 1.3 2.4 2.2.2.4.5.7.6 1.1l.4.4c.6.4 1.4.4 2 0l2.4-1.4c.4-.2.5-.5.2-.7-.4-.5-.7-1-1.1-1.3-.5-.5-1.1-1.1-1.9-1.6l1.6-1c.4-.1.4-.5-.1-.7m14.4 3.8z"/><path fill="#95BDE5" d="M323.3 161.1c-1.3-2.5-3.8-4.9-7.3-7-3.8-2.3-8.6-3.7-13.5-4.4l-1.7-1h-10.4l-1.7.8c-5 .7-9.8 2.2-13.8 4.4-3.5 2-5.9 4.4-7.2 7.1l-1.2.7v6.7c.1 4.3 2.9 8.5 8.5 11.7 11.4 6.6 29.7 6.6 41 0 5.6-3.2 8.4-7.4 8.4-11.7v-6.7l-1.1-.6z"/><linearGradient id="i" gradientUnits="userSpaceOnUse" x1="266.506" y1="125.824" x2="324.536" y2="125.824" gradientTransform="matrix(1 0 0 -1 0 287.531)"><stop offset="0" stop-color="#fff"/><stop offset="1" stop-color="#c2dbff"/></linearGradient><path fill="url(#i)" d="M316 149.8c-11.4-6.6-29.7-6.6-41 0s-11.3 17.3.1 23.7c11.4 6.6 29.7 6.6 41 0 11.3-6.5 11.3-17.2-.1-23.7"/><path fill="#95BDE5" d="M295.4 146.8c-7.4 0-14.4 1.7-19.5 4.7-4.8 2.8-7.4 6.4-7.4 10.2 0 3.8 2.8 7.4 7.5 10.2 5.2 3 12.1 4.7 19.5 4.7s14.4-1.7 19.5-4.7c4.8-2.8 7.4-6.4 7.4-10.2 0-3.8-2.8-7.4-7.5-10.2-5.1-3-12.1-4.7-19.5-4.7z"/><linearGradient id="j" gradientUnits="userSpaceOnUse" x1="269.607" y1="124.506" x2="323.71" y2="124.506" gradientTransform="matrix(1 0 0 -1 0 287.531)"><stop offset="0" stop-color="#fff"/><stop offset="1" stop-color="#c2dbff"/></linearGradient><path fill="url(#j)" d="M296.6 148.2c-7.4 0-14.4 1.7-19.5 4.7-4.8 2.8-7.4 6.4-7.4 10.2s2.8 7.4 7.5 10.2c5.2 3 12.1 4.7 19.5 4.7s14.4-1.7 19.5-4.7c4.8-2.8 7.4-6.4 7.4-10.2s-2.8-7.4-7.5-10.2c-5.3-3.2-12.2-4.7-19.5-4.7z"/><path fill="#95BDE5" d="M310.8 153.6l-2-1.2c-.4-.2-1.1-.2-1.4 0l-1.7 1c-2.3-1-4.6-1.3-6.7-1.2s-4.1.6-5.6 1.6c-1.7 1-2.5 1.9-2.5 3 0 1 .5 2 1.6 3.2.1.1.4.5.8 1 1 1.1 1.6 1.9 1.8 2.5.2.6.1 1.1-.6 1.4-1.4.8-3.2.7-5.2-.4-1.2-.7-2.2-1.4-2.9-2.4-.4-.5-.7-1-1-1.4l-.4-.4c-.6-.4-1.4-.4-2 0l-2.4 1.3c-.4.2-.5.5-.2.7.8 1.2 2.2 2.4 4 3.6l-1.9 1.1c-.4.2-.4.6 0 .8l2 1.2c.4.2 1.1.2 1.4 0l2-1.2c2.2.8 4.3 1.2 6.5 1.1 2.2-.1 4.1-.7 5.8-1.7 1.2-.7 1.9-1.4 2.2-2.2.2-.7.2-1.4-.1-2.3-.4-.7-1.1-1.6-1.9-2.5-.7-.8-1.3-1.4-1.6-1.8-.4-.4-.5-.8-.5-1.2s.2-.7.8-1.1c.7-.4 1.4-.6 2.4-.5 1 .1 1.8.5 2.8 1 1.1.6 1.8 1.3 2.4 2.2.2.4.5.7.6 1.1l.4.4c.6.4 1.4.4 2 0l2.4-1.4c.4-.2.5-.5.2-.7-.4-.5-.7-1-1.1-1.3-.5-.5-1.1-1.1-1.9-1.6l1.6-1c.3-.1.3-.5-.1-.7m15.2 4z"/><path fill="#95BDE5" d="M324.8 152.8c-1.3-2.5-3.8-4.9-7.3-7-3.8-2.3-8.6-3.7-13.5-4.4l-1.7-1h-10.4l-1.7.8c-5 .7-9.8 2.2-13.8 4.4-3.5 2-5.9 4.4-7.2 7.1l-1.2.7v6.7c.1 4.3 2.9 8.5 8.5 11.7 11.4 6.6 29.7 6.6 41 0 5.6-3.2 8.4-7.4 8.4-11.7v-6.7c0 .2-1.1-.6-1.1-.6z"/><linearGradient id="k" gradientUnits="userSpaceOnUse" x1="268.079" y1="134.092" x2="326.093" y2="134.092" gradientTransform="matrix(1 0 0 -1 0 287.531)"><stop offset="0" stop-color="#fff"/><stop offset="1" stop-color="#c2dbff"/></linearGradient><path fill="url(#k)" d="M317.5 141.6c-11.4-6.6-29.7-6.6-41 0-11.4 6.6-11.3 17.1.1 23.7 11.4 6.6 29.7 6.6 41 0s11.3-17.1-.1-23.7"/><path fill="#95BDE5" d="M296.9 138.6c-7.4 0-14.4 1.7-19.5 4.7-4.8 2.8-7.4 6.4-7.4 10.2 0 3.8 2.8 7.4 7.5 10.2 5.2 3 12.1 4.7 19.5 4.7s14.4-1.7 19.5-4.7c4.8-2.8 7.4-6.4 7.4-10.2 0-3.8-2.8-7.4-7.5-10.2-5.1-3-12-4.7-19.5-4.7z"/><linearGradient id="l" gradientUnits="userSpaceOnUse" x1="271.108" y1="132.774" x2="325.211" y2="132.774" gradientTransform="matrix(1 0 0 -1 0 287.531)"><stop offset="0" stop-color="#fff"/><stop offset="1" stop-color="#c2dbff"/></linearGradient><path fill="url(#l)" d="M298 139.9c-7.4 0-14.4 1.7-19.5 4.7-4.8 2.8-7.4 6.4-7.4 10.2s2.8 7.4 7.5 10.2c5.2 3 12.1 4.7 19.5 4.7s14.4-1.7 19.5-4.7c4.8-2.8 7.4-6.4 7.4-10.2s-2.8-7.4-7.5-10.2c-5.1-3-12.1-4.7-19.5-4.7z"/><path fill="#95BDE5" d="M312.4 145.3l-2-1.2c-.4-.2-1.1-.2-1.4 0l-1.7 1c-2.3-1-4.6-1.3-6.7-1.2s-4.1.6-5.6 1.6c-1.7 1-2.5 1.9-2.5 3 0 1 .5 2 1.6 3.2.1.1.4.5.8 1 1 1.1 1.6 1.9 1.8 2.5.2.6.1 1.1-.6 1.4-1.4.8-3.2.7-5.2-.4-1.2-.7-2.2-1.4-2.9-2.4-.4-.5-.7-1-1-1.4l-.4-.4c-.6-.4-1.4-.4-2 0l-2.4 1.3c-.4.2-.5.5-.2.7.8 1.2 2.2 2.4 4 3.6l-1.9 1.1c-.4.2-.4.6 0 .8l2 1.2c.4.2 1.1.2 1.4 0l2-1.2c2.2.8 4.3 1.2 6.5 1.1 2.2-.1 4.1-.7 5.8-1.7 1.2-.7 1.9-1.4 2.2-2.2.2-.7.2-1.4-.1-2.3-.4-.7-1.1-1.6-1.9-2.5-.7-.8-1.3-1.4-1.6-1.8-.4-.4-.5-.8-.5-1.2s.2-.7.8-1.1c.7-.4 1.4-.6 2.4-.5 1 .1 1.8.5 2.8 1 1.1.6 1.8 1.3 2.4 2.2.2.4.5.7.6 1.1l.4.4c.6.4 1.4.4 2 0l2.4-1.4c.4-.2.5-.5.2-.7-.4-.5-.7-1-1.1-1.3-.5-.5-1.1-1.1-1.9-1.6l1.6-1c.2-.1.2-.5-.1-.7m12.8 3.7z"/><path fill="#95BDE5" d="M323.9 144.2c-1.3-2.5-3.8-4.9-7.3-7-3.8-2.3-8.6-3.7-13.5-4.4l-1.7-1H291l-1.7.8c-4.9.8-9.7 2.3-13.7 4.6-3.5 2-5.9 4.4-7.2 7.1l-1.2.7v6.7c.1 4.3 2.9 8.5 8.5 11.7 11.4 6.6 29.7 6.6 41 0 5.6-3.2 8.4-7.4 8.4-11.7V145c0 .1-1.2-.8-1.2-.8z"/><linearGradient id="m" gradientUnits="userSpaceOnUse" x1="267.18" y1="142.72" x2="325.211" y2="142.72" gradientTransform="matrix(1 0 0 -1 0 287.531)"><stop offset="0" stop-color="#fff"/><stop offset="1" stop-color="#c2dbff"/></linearGradient><path fill="url(#m)" d="M316.7 132.9c-11.4-6.6-29.7-6.6-41 0s-11.3 17.3.1 23.7c11.4 6.6 29.7 6.6 41 0 11.3-6.5 11.2-17.2-.1-23.7"/><path fill="#95BDE5" d="M296.1 130c-7.4 0-14.4 1.7-19.5 4.7-4.8 2.8-7.4 6.4-7.4 10.2 0 3.8 2.8 7.4 7.5 10.2 5.2 3 12.1 4.7 19.5 4.7s14.4-1.7 19.5-4.7c4.8-2.8 7.4-6.4 7.4-10.2 0-3.8-2.8-7.4-7.5-10.2-5.1-3.1-12.1-4.7-19.5-4.7z"/><linearGradient id="n" gradientUnits="userSpaceOnUse" x1="270.206" y1="141.402" x2="324.31" y2="141.402" gradientTransform="matrix(1 0 0 -1 0 287.531)"><stop offset="0" stop-color="#fff"/><stop offset="1" stop-color="#c2dbff"/></linearGradient><path fill="url(#n)" d="M297.2 131.3c-7.4 0-14.4 1.7-19.5 4.7-4.8 2.8-7.4 6.4-7.4 10.2 0 3.8 2.8 7.4 7.5 10.2 5.2 3 12.1 4.7 19.5 4.7s14.4-1.7 19.5-4.7c4.8-2.8 7.4-6.4 7.4-10.2 0-3.8-2.8-7.4-7.5-10.2-5.2-3.2-12.1-4.7-19.5-4.7z"/><path fill="#95BDE5" d="M311.4 136.7l-2-1.2c-.4-.2-1.1-.2-1.4 0l-1.7 1c-2.3-1-4.6-1.3-6.7-1.2-2.2.1-4.1.6-5.6 1.6-1.7 1-2.5 1.9-2.5 3 0 1 .5 2 1.6 3.2.1.1.4.5.8 1 1 1.1 1.6 1.9 1.8 2.5.2.6.1 1.1-.6 1.4-1.4.8-3.2.7-5.2-.4-1.2-.7-2.2-1.4-2.9-2.4-.4-.5-.7-1-1-1.4l-.4-.4c-.6-.4-1.4-.4-2 0l-2.4 1.3c-.4.2-.5.5-.2.7.8 1.2 2.2 2.4 4 3.6l-1.9 1.1c-.4.2-.4.6 0 .8l2 1.2c.4.2 1.1.2 1.4 0l2-1.2c2.2.8 4.3 1.2 6.5 1.1s4.1-.7 5.8-1.7c1.2-.7 1.9-1.4 2.2-2.2.2-.7.2-1.4-.1-2.3-.4-.7-1.1-1.6-1.9-2.5-.7-.8-1.3-1.4-1.6-1.8-.4-.4-.5-.8-.5-1.2 0-.4.2-.7.8-1.1.7-.4 1.4-.6 2.4-.5 1 .1 1.8.5 2.8 1 1.1.6 1.8 1.3 2.4 2.2.2.4.5.7.6 1.1l.4.4c.6.4 1.4.4 2 0l2.4-1.4c.4-.2.5-.5.2-.7-.4-.5-.7-1-1.1-1.3-.5-.5-1.1-1.1-1.9-1.6l1.6-1c.4-.1.4-.5-.1-.7m12.5 3.7z"/><path fill="#95BDE5" d="M322.6 135.6c-1.3-2.5-3.8-4.9-7.3-7-3.8-2.3-8.6-3.7-13.5-4.4l-1.7-1h-10.4l-1.7 1c-5 .7-9.8 2.2-13.8 4.4-3.5 2-5.9 4.4-7.2 7.1l-1.2.7v6.7c.1 4.3 2.9 8.5 8.5 11.7 11.4 6.6 29.7 6.6 41 0 5.6-3.2 8.4-7.4 8.4-11.7v-6.7l-1.1-.8z"/><linearGradient id="o" gradientUnits="userSpaceOnUse" x1="265.848" y1="151.348" x2="323.862" y2="151.348" gradientTransform="matrix(1 0 0 -1 0 287.531)"><stop offset="0" stop-color="#fff"/><stop offset="1" stop-color="#c2dbff"/></linearGradient><path fill="url(#o)" d="M315.3 124.3c-11.4-6.6-29.7-6.6-41 0s-11.3 17.3.1 23.7c11.4 6.6 29.7 6.6 41 0 11.4-6.5 11.2-17.2-.1-23.7"/><path fill="#95BDE5" d="M294.8 121.3c-7.4 0-14.4 1.7-19.5 4.7-4.8 2.8-7.4 6.4-7.4 10.2 0 3.8 2.8 7.4 7.5 10.2 5.2 3 12.1 4.7 19.5 4.7s14.4-1.7 19.5-4.7c4.8-2.8 7.4-6.4 7.4-10.2 0-3.8-2.8-7.4-7.5-10.2-5.1-3-12.1-4.7-19.5-4.7z"/><linearGradient id="p" gradientUnits="userSpaceOnUse" x1="268.888" y1="150.15" x2="322.991" y2="150.15" gradientTransform="matrix(1 0 0 -1 0 287.531)"><stop offset="0" stop-color="#fff"/><stop offset="1" stop-color="#c2dbff"/></linearGradient><path fill="url(#p)" d="M295.9 122.5c-7.4 0-14.4 1.7-19.5 4.7-4.8 2.8-7.4 6.4-7.4 10.2s2.8 7.4 7.5 10.2c5.2 3 12.1 4.7 19.5 4.7s14.4-1.7 19.5-4.7c4.8-2.8 7.4-6.4 7.4-10.2s-2.8-7.4-7.5-10.2c-5.2-3-12.1-4.7-19.5-4.7z"/><path fill="#95BDE5" d="M310.1 128l-2-1.2c-.4-.2-1.1-.2-1.4 0l-1.7 1c-2.3-1-4.6-1.3-6.7-1.2-2.2.1-4.1.6-5.6 1.6-1.7 1-2.5 1.9-2.5 3 0 1 .5 2 1.6 3.2.1.1.4.5.8 1 1 1.1 1.6 1.9 1.8 2.5.2.6.1 1.1-.6 1.4-1.4.8-3.2.7-5.2-.4-1.2-.7-2.2-1.4-2.9-2.4-.4-.5-.7-1-1-1.4l-.4-.4c-.6-.4-1.4-.4-2 0l-2.4 1.3c-.4.2-.5.5-.2.7.8 1.2 2.2 2.4 4 3.6l-1.9 1.1c-.4.2-.4.6 0 .8l2 1.2c.4.2 1.1.2 1.4 0l2-1.2c2.2.8 4.3 1.2 6.5 1.1s4.1-.7 5.8-1.7c1.2-.7 1.9-1.4 2.2-2.2s.2-1.4-.1-2.3c-.4-.7-1.1-1.6-1.9-2.5-.7-.8-1.3-1.4-1.6-1.8-.4-.4-.5-.8-.5-1.2s.2-.7.8-1.1c.7-.4 1.4-.6 2.4-.5 1 .1 1.8.5 2.8 1 1.1.6 1.8 1.3 2.4 2.2.2.4.5.7.6 1.1l.4.4c.6.4 1.4.4 2 0l2.4-1.4c.4-.2.5-.5.2-.7-.4-.5-.7-1-1.1-1.3-.5-.5-1.1-1.1-1.9-1.6l1.6-1c.4-.1.4-.4-.1-.7m13.6 4.9z"/><path fill="#95BDE5" d="M322.3 128.3c-1.3-2.5-3.8-4.9-7.3-7-3.8-2.3-8.6-3.7-13.5-4.4l-1.7-1h-10.4l-1.7.8c-5 .7-9.8 2.2-13.8 4.4-3.5 2-5.9 4.4-7.2 7.1l-1.2.7v6.7c.1 4.3 2.9 8.5 8.5 11.7 11.4 6.6 29.7 6.6 41 0 5.6-3.2 8.4-7.4 8.4-11.7V129l-1.1-.7z"/><linearGradient id="q" gradientUnits="userSpaceOnUse" x1="265.623" y1="158.778" x2="323.637" y2="158.778" gradientTransform="matrix(1 0 0 -1 0 287.531)"><stop offset="0" stop-color="#fff"/><stop offset="1" stop-color="#c2dbff"/></linearGradient><path fill="url(#q)" d="M315.1 116.9c-11.4-6.6-29.7-6.6-41 0-11.4 6.6-11.4 17.3 0 23.7 11.4 6.6 29.7 6.6 41 0 11.4-6.5 11.3-17.1 0-23.7"/><path fill="#95BDE5" d="M294.5 113.9c-7.4 0-14.4 1.7-19.5 4.7-4.8 2.8-7.4 6.4-7.4 10.2 0 3.8 2.8 7.4 7.5 10.2 5.2 3 12.1 4.7 19.5 4.7s14.4-1.7 19.5-4.7c4.8-2.8 7.4-6.4 7.4-10.2 0-3.8-2.8-7.4-7.5-10.2-5.1-3-12-4.7-19.5-4.7z"/><linearGradient id="r" gradientUnits="userSpaceOnUse" x1="268.649" y1="157.459" x2="322.752" y2="157.459" gradientTransform="matrix(1 0 0 -1 0 287.531)"><stop offset="0" stop-color="#fff"/><stop offset="1" stop-color="#c2dbff"/></linearGradient><path fill="url(#r)" d="M295.6 115.2c-7.4 0-14.4 1.7-19.5 4.7-4.8 2.8-7.4 6.4-7.4 10.2 0 3.8 2.8 7.4 7.5 10.2 5.2 3 12.1 4.7 19.5 4.7s14.4-1.7 19.5-4.7c4.8-2.8 7.4-6.4 7.4-10.2 0-3.8-2.8-7.4-7.5-10.2-5.1-3-12.1-4.7-19.5-4.7z"/><path fill="#95BDE5" d="M309.9 120.6l-2-1.2c-.4-.2-1.1-.2-1.4 0l-1.7 1c-2.3-1-4.6-1.3-6.7-1.2-2.2.1-4.1.6-5.6 1.6-1.7 1-2.5 1.9-2.5 3 0 1 .5 2 1.6 3.2.1.1.4.5.8 1 1 1.1 1.6 1.9 1.8 2.5.2.6.1 1.1-.6 1.4-1.4.8-3.2.7-5.2-.4-1.2-.7-2.2-1.4-2.9-2.4-.4-.5-.7-1-1-1.4l-.4-.4c-.6-.4-1.4-.4-2 0l-2.4 1.3c-.4.2-.5.5-.2.7.8 1.2 2.2 2.4 4 3.6l-1.9 1.1c-.4.2-.4.6 0 .8l2 1.2c.4.2 1.1.2 1.4 0l2-1.2c2.2.8 4.3 1.2 6.5 1.1s4.1-.7 5.8-1.7c1.2-.7 1.9-1.4 2.2-2.2.2-.7.2-1.4-.1-2.3-.4-.7-1.1-1.6-1.9-2.5-.7-.8-1.3-1.4-1.6-1.8-.4-.4-.5-.8-.5-1.2s.2-.7.8-1.1c.7-.4 1.4-.6 2.4-.5 1 .1 1.8.5 2.8 1 1.1.6 1.8 1.3 2.4 2.2.2.4.5.7.6 1.1l.4.4c.6.4 1.4.4 2 0l2.4-1.4c.4-.2.5-.5.2-.7-.4-.5-.7-1-1.1-1.3-.5-.5-1.1-1.1-1.9-1.6l1.6-1c.4 0 .4-.5-.1-.7m15.4 2.9z"/><path fill="#95BDE5" d="M324.1 118.7c-1.3-2.5-3.8-4.9-7.3-7-3.8-2.3-8.6-3.7-13.5-4.4l-1.7-1h-10.4l-1.7.8c-5 .7-9.8 2.2-13.8 4.4-3.5 2-5.9 4.4-7.2 7.1l-1.2.7v6.7c.1 4.3 2.9 8.5 8.5 11.7 11.4 6.6 29.7 6.6 41 0 5.6-3.2 8.4-7.4 8.4-11.7v-6.7l-1.1-.6z"/><linearGradient id="s" gradientUnits="userSpaceOnUse" x1="267.342" y1="168.364" x2="325.372" y2="168.364" gradientTransform="matrix(1 0 0 -1 0 287.531)"><stop offset="0" stop-color="#fff"/><stop offset="1" stop-color="#c2dbff"/></linearGradient><path fill="url(#s)" d="M316.8 107.3c-11.4-6.6-29.7-6.6-41 0s-11.3 17.3.1 23.7c11.4 6.6 29.7 6.6 41 0 11.3-6.4 11.3-17.1-.1-23.7"/><path fill="#95BDE5" d="M296.2 104.3c-7.4 0-14.4 1.7-19.5 4.7-4.8 2.8-7.4 6.4-7.4 10.2s2.8 7.4 7.5 10.2c5.2 3 12.1 4.7 19.5 4.7s14.4-1.7 19.5-4.7c4.8-2.8 7.4-6.4 7.4-10.2s-2.8-7.4-7.5-10.2c-5.1-3-12.1-4.7-19.5-4.7z"/><linearGradient id="t" gradientUnits="userSpaceOnUse" x1="270.446" y1="167.046" x2="324.549" y2="167.046" gradientTransform="matrix(1 0 0 -1 0 287.531)"><stop offset="0" stop-color="#fff"/><stop offset="1" stop-color="#c2dbff"/></linearGradient><path fill="url(#t)" d="M297.4 105.6c-7.4 0-14.4 1.7-19.5 4.7-4.8 2.8-7.4 6.4-7.4 10.2s2.8 7.4 7.5 10.2c5.2 3 12.1 4.7 19.5 4.7s14.4-1.7 19.5-4.7c4.8-2.8 7.4-6.4 7.4-10.2s-2.8-7.4-7.5-10.2c-5.2-3-12.2-4.7-19.5-4.7z"/><path fill="#95BDE5" d="M311.7 111.1l-2-1.2c-.4-.2-1.1-.2-1.4 0l-1.7 1c-2.3-1-4.6-1.3-6.7-1.2-2.2.1-4.1.6-5.6 1.6-1.7 1-2.5 1.9-2.5 3 0 1 .5 2 1.6 3.2.1.1.4.5.8 1 1 1.1 1.6 1.9 1.8 2.5.2.6.1 1.1-.6 1.4-1.4.8-3.2.7-5.2-.4-1.2-.7-2.2-1.4-2.9-2.4-.4-.5-.7-1-1-1.4l-.4-.4c-.6-.4-1.4-.4-2 0l-2.4 1.3c-.4.2-.5.5-.2.7.8 1.2 2.2 2.4 4 3.6l-1.9 1.1c-.4.2-.4.6 0 .8l2 1.2c.4.2 1.1.2 1.4 0l2-1.2c2.2.8 4.3 1.2 6.5 1.1 2.2-.1 4.1-.7 5.8-1.7 1.2-.7 1.9-1.4 2.2-2.2.2-.7.2-1.4-.1-2.3-.4-.7-1.1-1.6-1.9-2.5-.7-.8-1.3-1.4-1.6-1.8-.4-.4-.5-.8-.5-1.2 0-.4.2-.7.8-1.1.7-.4 1.4-.6 2.4-.5 1 .1 1.8.5 2.8 1 1.1.6 1.8 1.3 2.4 2.2.2.4.5.7.6 1.1l.4.4c.6.4 1.4.4 2 0l2.4-1.4c.4-.2.5-.5.2-.7-.4-.5-.7-1-1.1-1.3-.5-.5-1.1-1.1-1.9-1.6l1.6-1c.2-.1.2-.4-.1-.7m12.8 3.6z"/><path fill="#95BDE5" d="M323.2 110.1c-1.3-2.5-3.8-4.9-7.3-7-3.8-2.3-8.6-3.7-13.5-4.4l-1.7-1h-10.4l-1.7.8c-5 .7-9.8 2.2-13.8 4.4-3.5 2-5.9 4.4-7.2 7.1l-1.2.7v6.7c.1 4.3 2.9 8.5 8.5 11.7 11.4 6.6 29.7 6.6 41 0 5.6-3.2 8.4-7.4 8.4-11.7v-6.7c0 .1-1.1-.6-1.1-.6z"/><linearGradient id="u" gradientUnits="userSpaceOnUse" x1="266.47" y1="176.992" x2="324.5" y2="176.992" gradientTransform="matrix(1 0 0 -1 0 287.531)"><stop offset="0" stop-color="#fff"/><stop offset="1" stop-color="#c2dbff"/></linearGradient><path fill="url(#u)" d="M316 98.7c-11.4-6.6-29.7-6.6-41 0s-11.3 17.3.1 23.7c11.4 6.6 29.7 6.6 41 0 11.3-6.5 11.1-17.1-.1-23.7"/><path fill="#95BDE5" d="M295.4 95.7c-7.4 0-14.4 1.7-19.5 4.7-4.8 2.8-7.4 6.4-7.4 10.2 0 3.8 2.8 7.4 7.5 10.2 5.2 3 12.1 4.7 19.5 4.7s14.4-1.7 19.5-4.7c4.8-2.8 7.4-6.4 7.4-10.2 0-3.8-2.8-7.4-7.5-10.2-5.1-3-12.1-4.7-19.5-4.7z"/><linearGradient id="v" gradientUnits="userSpaceOnUse" x1="269.488" y1="175.674" x2="323.592" y2="175.674" gradientTransform="matrix(1 0 0 -1 0 287.531)"><stop offset="0" stop-color="#fff"/><stop offset="1" stop-color="#c2dbff"/></linearGradient><path fill="url(#v)" d="M296.4 97c-7.4 0-14.4 1.7-19.5 4.7-4.8 2.8-7.4 6.4-7.4 10.2 0 3.8 2.8 7.4 7.5 10.2 5.2 3 12.1 4.7 19.5 4.7s14.4-1.7 19.5-4.7c4.8-2.8 7.4-6.4 7.4-10.2 0-3.8-2.8-7.4-7.5-10.2-5.1-3-12-4.7-19.5-4.7z"/><path fill="#95BDE5" d="M310.7 102.4l-2-1.2c-.4-.2-1.1-.2-1.4 0l-1.7 1c-2.3-1-4.6-1.3-6.7-1.2-2.2.1-4.1.6-5.6 1.6-1.7 1-2.5 1.9-2.5 3 0 1 .5 2 1.6 3.2.1.1.4.5.8 1 1 1.1 1.6 1.9 1.8 2.5s.1 1.1-.6 1.4c-1.4.8-3.2.7-5.2-.4-1.2-.7-2.2-1.4-2.9-2.4-.4-.5-.7-1-1-1.4l-.4-.4c-.6-.4-1.4-.4-2 0l-2.4 1.3c-.4.2-.5.5-.2.7.8 1.2 2.2 2.4 4 3.6l-2 1.1c-.4.2-.4.6 0 .8l2 1.2c.4.2 1.1.2 1.4 0l2-1.2c2.2.8 4.3 1.2 6.5 1.1 2.2-.1 4.1-.7 5.8-1.7 1.2-.7 1.9-1.4 2.2-2.2.2-.7.2-1.4-.1-2.3-.4-.7-1.1-1.6-1.9-2.5-.7-.8-1.3-1.4-1.6-1.8-.4-.4-.5-.8-.5-1.2 0-.4.2-.7.8-1.1.7-.4 1.4-.6 2.4-.5 1 .1 1.8.5 2.8 1 1.1.6 1.8 1.3 2.4 2.2.2.4.5.7.6 1.1l.4.4c.6.4 1.4.4 2 0l2.4-1.4c.4-.2.5-.5.2-.7-.4-.5-.7-1-1.1-1.3-.5-.5-1.1-1.1-1.9-1.6l1.6-1c.5 0 .5-.5 0-.7m13.8.6z"/><path fill="#95BDE5" d="M323.2 98.2c-1.3-2.5-3.8-4.9-7.3-7-3.8-2.3-8.6-3.7-13.5-4.4l-1.7-1h-10.4l-1.7.8c-5 .7-9.8 2.2-13.8 4.4-3.5 2-5.9 4.4-7.2 7.1l-1.2.7v6.7c.1 4.3 2.9 8.5 8.5 11.7 11.4 6.6 29.7 6.6 41 0 5.6-3.2 8.4-7.4 8.4-11.7v-6.7c0 .1-1.1-.6-1.1-.6z"/><linearGradient id="w" gradientUnits="userSpaceOnUse" x1="266.47" y1="188.736" x2="324.5" y2="188.736" gradientTransform="matrix(1 0 0 -1 0 287.531)"><stop offset="0" stop-color="#fff"/><stop offset="1" stop-color="#c2dbff"/></linearGradient><path fill="url(#w)" d="M316 86.9c-11.4-6.6-29.7-6.6-41 0s-11.3 17.3.1 23.7c11.4 6.6 29.7 6.6 41 0 11.3-6.5 11.1-17.2-.1-23.7"/><path fill="#95BDE5" d="M295.4 83.9c-7.4 0-14.4 1.7-19.5 4.7-4.8 2.8-7.4 6.4-7.4 10.2 0 3.8 2.8 7.4 7.5 10.2 5.2 3 12.1 4.7 19.5 4.7s14.4-1.7 19.5-4.7c4.8-2.8 7.4-6.4 7.4-10.2 0-3.8-2.8-7.4-7.5-10.2-5.1-3-12.1-4.7-19.5-4.7z"/><linearGradient id="x" gradientUnits="userSpaceOnUse" x1="269.488" y1="187.418" x2="323.592" y2="187.418" gradientTransform="matrix(1 0 0 -1 0 287.531)"><stop offset="0" stop-color="#fff"/><stop offset="1" stop-color="#c2dbff"/></linearGradient><path fill="url(#x)" d="M296.4 85.3c-7.4 0-14.4 1.7-19.5 4.7-4.8 2.8-7.4 6.4-7.4 10.2s2.8 7.4 7.5 10.2c5.2 3 12.1 4.7 19.5 4.7s14.4-1.7 19.5-4.7c4.8-2.8 7.4-6.4 7.4-10.2s-2.8-7.4-7.5-10.2c-5.1-3.2-12-4.7-19.5-4.7z"/><path fill="#95BDE5" d="M310.7 90.6l-2-1.2c-.4-.2-1.1-.2-1.4 0l-1.7 1c-2.3-1-4.6-1.3-6.7-1.2-2.2.1-4.1.6-5.6 1.6-1.7 1-2.5 1.9-2.5 3 0 1 .5 2 1.6 3.2.1.1.4.5.8 1 1 1.1 1.6 1.9 1.8 2.5.2.6.1 1.1-.6 1.4-1.4.8-3.2.7-5.2-.4-1.2-.7-2.2-1.4-2.9-2.4-.4-.5-.7-1-1-1.4l-.4-.4c-.6-.4-1.4-.4-2 0l-2.4 1.3c-.4.2-.5.5-.2.7.8 1.2 2.2 2.4 4 3.6l-1.9 1.1c-.4.2-.4.6 0 .8l2 1.2c.4.2 1.1.2 1.4 0l2-1.2c2.2.8 4.3 1.2 6.5 1.1s4.1-.7 5.8-1.7c1.2-.7 1.9-1.4 2.2-2.2.2-.7.2-1.4-.1-2.3-.4-.7-1.1-1.6-1.9-2.5-.7-.8-1.3-1.4-1.6-1.8-.4-.4-.5-.8-.5-1.2s.2-.7.8-1.1c.7-.4 1.4-.6 2.4-.5 1 .1 1.8.5 2.8 1 1.1.6 1.8 1.3 2.4 2.2.2.4.5.7.6 1.1l.4.4c.6.4 1.4.4 2 0l2.4-1.4c.4-.2.5-.5.2-.7-.4-.5-.7-1-1.1-1.3-.5-.5-1.1-1.1-1.9-1.6l1.6-1c.4-.1.4-.4-.1-.7m11.3 3.3z"/><path fill="#95BDE5" d="M320.8 89.1c-1.3-2.5-3.8-4.9-7.3-7-3.8-2.3-8.6-3.7-13.5-4.4l-1.7-1h-10.4l-1.7.8c-5 .7-9.8 2.2-13.8 4.4-3.5 2-5.9 4.4-7.2 7.1l-1.2.7v6.7c.1 4.3 2.9 8.5 8.5 11.7 11.4 6.6 29.7 6.6 41 0 5.6-3.2 8.4-7.4 8.4-11.7v-6.7l-1.1-.6z"/><linearGradient id="y" gradientUnits="userSpaceOnUse" x1="264.05" y1="197.963" x2="322.08" y2="197.963" gradientTransform="matrix(1 0 0 -1 0 287.531)"><stop offset="0" stop-color="#fff"/><stop offset="1" stop-color="#c2dbff"/></linearGradient><path fill="url(#y)" d="M313.5 77.7c-11.4-6.6-29.7-6.6-41 0s-11.3 17.3.1 23.7c11.4 6.6 29.7 6.6 41 0 11.2-6.4 11.2-17.1-.1-23.7"/><path fill="#95BDE5" d="M293 74.8c-7.4 0-14.4 1.7-19.5 4.7-4.8 2.8-7.4 6.4-7.4 10.2 0 3.8 2.8 7.4 7.5 10.2 5.2 3 12.1 4.7 19.5 4.7s14.4-1.7 19.5-4.7c4.8-2.8 7.4-6.4 7.4-10.2 0-3.8-2.8-7.4-7.5-10.2-5.3-3.1-12.2-4.7-19.5-4.7z"/><linearGradient id="z" gradientUnits="userSpaceOnUse" x1="267.091" y1="196.645" x2="321.194" y2="196.645" gradientTransform="matrix(1 0 0 -1 0 287.531)"><stop offset="0" stop-color="#fff"/><stop offset="1" stop-color="#c2dbff"/></linearGradient><path fill="url(#z)" d="M294.1 76c-7.4 0-14.4 1.7-19.5 4.7-4.8 2.8-7.4 6.4-7.4 10.2s2.8 7.4 7.5 10.2c5.2 3 12.1 4.7 19.5 4.7s14.4-1.7 19.5-4.7c4.8-2.8 7.4-6.4 7.4-10.2 0-3.8-2.8-7.4-7.5-10.2-5.3-3-12.2-4.7-19.5-4.7z"/><path fill="#95BDE5" d="M308.3 81.5l-2-1.2c-.4-.2-1.1-.2-1.4 0l-1.7 1c-2.3-1-4.6-1.3-6.7-1.2-2.2.1-4.1.6-5.6 1.6-1.7 1-2.5 1.9-2.5 3 0 1 .5 2 1.6 3.2.1.1.4.5.8 1 1 1.1 1.6 1.9 1.8 2.5.2.6.1 1.1-.6 1.4-1.4.8-3.2.7-5.2-.4-1.2-.7-2.2-1.4-2.9-2.4-.4-.5-.7-1-1-1.4l-.4-.4c-.6-.4-1.4-.4-2 0l-2.4 1.3c-.4.2-.5.5-.2.7.8 1.2 2.2 2.4 4 3.6l-1.9 1.1c-.4.2-.4.6 0 .8l2 1.2c.4.2 1.1.2 1.4 0l2-1.2c2.2.8 4.3 1.2 6.5 1.1 2.2-.1 4.1-.7 5.8-1.7 1.2-.7 1.9-1.4 2.2-2.2s.2-1.4-.1-2.3c-.4-.7-1.1-1.6-1.9-2.5-.7-.8-1.3-1.4-1.6-1.8-.4-.4-.5-.8-.5-1.2 0-.4.2-.7.8-1.1.7-.4 1.4-.6 2.4-.5 1 .1 1.8.5 2.8 1 1.1.6 1.8 1.3 2.4 2.2.2.4.5.7.6 1.1l.4.4c.6.4 1.4.4 2 0l2.4-1.4c.4-.2.5-.5.2-.7-.4-.5-.7-1-1.1-1.3-.5-.5-1.1-1.1-1.9-1.6l1.6-1c.3-.1.3-.4-.1-.7m15.2 4.1z"/><path fill="#95BDE5" d="M322.3 80.8c-1.3-2.5-3.8-4.9-7.3-7-3.8-2.3-8.6-3.7-13.5-4.4l-1.7-1h-10.4l-1.7.8c-5 .7-9.8 2.2-13.8 4.4-3.5 2-5.9 4.4-7.2 7.1l-1.2.7v6.7c.1 4.3 2.9 8.5 8.5 11.7 11.4 6.6 29.7 6.6 41 0 5.6-3.2 8.4-7.4 8.4-11.7v-6.7l-1.1-.6z"/><linearGradient id="A" gradientUnits="userSpaceOnUse" x1="265.544" y1="206.231" x2="323.574" y2="206.231" gradientTransform="matrix(1 0 0 -1 0 287.531)"><stop offset="0" stop-color="#fff"/><stop offset="1" stop-color="#c2dbff"/></linearGradient><path fill="url(#A)" d="M315 69.4c-11.4-6.6-29.7-6.6-41 0s-11.3 17.3.1 23.7c11.4 6.6 29.7 6.6 41 0 11.3-6.4 11.3-17.1-.1-23.7"/><path fill="#95BDE5" d="M294.4 66.6c-7.4 0-14.4 1.7-19.5 4.7-4.8 2.8-7.4 6.4-7.4 10.2 0 3.8 2.8 7.4 7.5 10.2 5.2 3 12.1 4.7 19.5 4.7s14.4-1.7 19.5-4.7c4.8-2.8 7.4-6.4 7.4-10.2s-2.8-7.4-7.5-10.2c-5.1-3.1-12.1-4.7-19.5-4.7z"/><linearGradient id="B" gradientUnits="userSpaceOnUse" x1="268.649" y1="204.913" x2="322.752" y2="204.913" gradientTransform="matrix(1 0 0 -1 0 287.531)"><stop offset="0" stop-color="#fff"/><stop offset="1" stop-color="#c2dbff"/></linearGradient><path fill="url(#B)" d="M295.6 67.8c-7.4 0-14.4 1.7-19.5 4.7-4.8 2.8-7.4 6.4-7.4 10.2s2.8 7.4 7.5 10.2c5.2 3 12.1 4.7 19.5 4.7s14.4-1.7 19.5-4.7c4.8-2.8 7.4-6.4 7.4-10.2 0-3.8-2.8-7.4-7.5-10.2-5.2-3.1-12.2-4.7-19.5-4.7z"/><path fill="#95BDE5" d="M309.9 73.3l-2-1.2c-.4-.2-1.1-.2-1.4 0l-1.7 1c-2.3-1-4.6-1.3-6.7-1.2s-4.1.6-5.6 1.6c-1.7 1-2.5 1.9-2.5 3 0 1 .5 2 1.6 3.2.1.1.4.5.8 1 1 1.1 1.6 1.9 1.8 2.5.2.6.1 1.1-.6 1.4-1.4.8-3.2.7-5.2-.4-1.2-.7-2.2-1.4-2.9-2.4-.4-.5-.7-1-1-1.4l-.4-.4c-.6-.4-1.4-.4-2 0l-2.5 1.1c-.4.2-.5.5-.2.7.8 1.2 2.2 2.4 4 3.6l-1.9 1.1c-.4.2-.4.6 0 .8l2 1.2c.4.2 1.1.2 1.4 0l2-1.2c2.2.8 4.3 1.2 6.5 1.1s4.1-.7 5.8-1.7c1.2-.7 1.9-1.4 2.2-2.2.2-.7.2-1.4-.1-2.3-.4-.7-1.1-1.6-1.9-2.5-.7-.8-1.3-1.4-1.6-1.8-.4-.4-.5-.8-.5-1.2s.2-.7.8-1.1c.7-.4 1.4-.6 2.4-.5 1 .1 1.8.5 2.8 1 1.1.6 1.8 1.3 2.4 2.2.2.4.5.7.6 1.1l.4.4c.6.4 1.4.4 2 0l2.4-1.4c.4-.2.5-.5.2-.7-.4-.5-.7-1-1.1-1.3-.5-.5-1.1-1.1-1.9-1.6l1.6-1c.3.1.3-.3 0-.5m16.4 3.7z"/><path fill="#95BDE5" d="M325 72.2c-1.3-2.5-3.8-4.9-7.3-7-3.8-2.3-8.6-3.7-13.5-4.4l-1.7-1H292l-1.6.8c-5 .7-9.8 2.2-13.8 4.4-3.5 2-5.9 4.4-7.2 7.1l-1.2.7v6.7c.1 4.3 2.9 8.5 8.5 11.7 11.4 6.6 29.7 6.6 41 0 5.6-3.2 8.4-7.4 8.4-11.7v-6.7c.1.1-1.1-.6-1.1-.6z"/><linearGradient id="C" gradientUnits="userSpaceOnUse" x1="268.271" y1="214.859" x2="326.301" y2="214.859" gradientTransform="matrix(1 0 0 -1 0 287.531)"><stop offset="0" stop-color="#fff"/><stop offset="1" stop-color="#c2dbff"/></linearGradient><path fill="url(#C)" d="M317.8 60.8c-11.4-6.6-29.7-6.6-41 0s-11.3 17.3.1 23.7c11.4 6.6 29.7 6.6 41 0 11.3-6.4 11.1-17.1-.1-23.7"/><path fill="#95BDE5" d="M297.2 57.8c-7.4 0-14.4 1.7-19.5 4.7-4.8 2.8-7.4 6.4-7.4 10.2 0 3.8 2.8 7.4 7.5 10.2 5.2 3 12.1 4.7 19.5 4.7s14.4-1.7 19.5-4.7c4.8-2.8 7.4-6.4 7.4-10.2 0-3.8-2.8-7.4-7.5-10.2-5.2-3-12.1-4.7-19.5-4.7z"/><linearGradient id="D" gradientUnits="userSpaceOnUse" x1="271.285" y1="213.541" x2="325.388" y2="213.541" gradientTransform="matrix(1 0 0 -1 0 287.531)"><stop offset="0" stop-color="#fff"/><stop offset="1" stop-color="#c2dbff"/></linearGradient><path fill="url(#D)" d="M298.2 59.1c-7.4 0-14.4 1.7-19.5 4.7-4.8 2.8-7.4 6.4-7.4 10.2s2.8 7.4 7.5 10.2c5.2 3 12.1 4.7 19.5 4.7s14.4-1.7 19.5-4.7c4.8-2.8 7.4-6.4 7.4-10.2s-2.8-7.4-7.5-10.2c-5.1-3-12-4.7-19.5-4.7z"/><path fill="#95BDE5" d="M274.5 197.4zm-1.3-4.7c-1.3-2.5-3.8-4.9-7.3-7-3.8-2.3-8.6-3.7-13.5-4.4l-1.7-1h-10.4l-1.7.8c-5 .7-9.8 2.2-13.8 4.4-3.5 2-5.9 4.4-7.2 7.1l-1.2.7v6.7c.1 4.3 2.9 8.5 8.5 11.7 11.4 6.6 29.7 6.6 41 0 5.6-3.2 8.4-7.4 8.4-11.7v-6.7l-1.1-.6z"/><linearGradient id="E" gradientUnits="userSpaceOnUse" x1="216.477" y1="94.308" x2="274.491" y2="94.308" gradientTransform="matrix(1 0 0 -1 0 287.531)"><stop offset="0" stop-color="#fff"/><stop offset="1" stop-color="#c2dbff"/></linearGradient><path fill="url(#E)" d="M265.9 181.4c-11.4-6.6-29.7-6.6-41 0s-11.3 17.3.1 23.7c11.4 6.6 29.7 6.6 41 0 11.4-6.6 11.3-17.1-.1-23.7"/><path fill="#95BDE5" d="M245.4 178.4c-7.4 0-14.4 1.7-19.5 4.7-4.8 2.8-7.4 6.4-7.4 10.2 0 3.8 2.8 7.4 7.5 10.2 5.2 3 12.1 4.7 19.5 4.7s14.4-1.7 19.5-4.7c4.8-2.8 7.4-6.4 7.4-10.2 0-3.8-2.8-7.4-7.5-10.2-5.1-3.1-12.1-4.7-19.5-4.7z"/><linearGradient id="F" gradientUnits="userSpaceOnUse" x1="219.517" y1="92.99" x2="273.62" y2="92.99" gradientTransform="matrix(1 0 0 -1 0 287.531)"><stop offset="0" stop-color="#fff"/><stop offset="1" stop-color="#c2dbff"/></linearGradient><path fill="url(#F)" d="M246.5 179.7c-7.4 0-14.4 1.7-19.5 4.7-4.8 2.8-7.4 6.4-7.4 10.2s2.8 7.4 7.5 10.2c5.2 3 12.1 4.7 19.5 4.7s14.4-1.7 19.5-4.7c4.8-2.8 7.4-6.4 7.4-10.2s-2.8-7.4-7.5-10.2c-5.1-3-12.1-4.7-19.5-4.7z"/><path fill="#95BDE5" d="M260.7 185.1l-2-1.2c-.4-.2-1.1-.2-1.4 0l-1.7 1c-2.3-1-4.6-1.3-6.7-1.2-2.2.1-4.1.6-5.6 1.6-1.7 1-2.5 1.9-2.5 3 0 1 .5 2 1.6 3.2.1.1.4.5.8 1 1 1.1 1.6 1.9 1.8 2.5.2.6.1 1.1-.6 1.4-1.4.8-3.2.7-5.2-.4-1.2-.7-2.2-1.4-2.9-2.4-.4-.5-.7-1-1-1.4l-.4-.4c-.6-.4-1.4-.4-2 0l-2.4 1.3c-.4.2-.5.5-.2.7.8 1.2 2.2 2.4 4 3.6l-1.9 1.1c-.4.2-.4.6 0 .8l2 1.2c.4.2 1.1.2 1.4 0l2-1.2c2.2.8 4.3 1.2 6.5 1.1 2.2-.1 4.1-.7 5.8-1.7 1.2-.7 1.9-1.4 2.2-2.2s.2-1.4-.1-2.3c-.4-.7-1.1-1.6-1.9-2.5-.7-.8-1.3-1.4-1.6-1.8-.4-.4-.5-.8-.5-1.2s.2-.7.8-1.1c.7-.4 1.4-.6 2.4-.5 1 .1 1.8.5 2.8 1 1.1.6 1.8 1.3 2.4 2.2.2.4.5.7.6 1.1l.4.4c.6.4 1.4.4 2 0l2.4-1.4c.4-.2.5-.5.2-.7-.4-.5-.7-1-1.1-1.3-.5-.5-1.1-1.1-1.9-1.6l1.6-1c.4-.1.4-.5-.1-.7m13 3.7z"/><path fill="#95BDE5" d="M272.4 184c-1.3-2.5-3.8-4.9-7.3-7-3.8-2.3-8.6-3.7-13.5-4.4l-1.7-1h-10.4l-1.7.8c-5 .7-9.8 2.2-13.8 4.4-3.5 2-5.9 4.4-7.2 7.1l-1.2.7v6.7c.1 4.3 2.9 8.5 8.5 11.7 11.4 6.6 29.7 6.6 41 0 5.6-3.2 8.4-7.4 8.4-11.7v-6.7c-.1.1-1.1-.6-1.1-.6z"/><linearGradient id="G" gradientUnits="userSpaceOnUse" x1="215.638" y1="102.936" x2="273.652" y2="102.936" gradientTransform="matrix(1 0 0 -1 0 287.531)"><stop offset="0" stop-color="#fff"/><stop offset="1" stop-color="#c2dbff"/></linearGradient><path fill="url(#G)" d="M265.1 172.7c-11.4-6.6-29.7-6.6-41 0s-11.3 17.3.1 23.7c11.4 6.6 29.7 6.6 41 0 11.4-6.5 11.2-17.2-.1-23.7"/><path fill="#95BDE5" d="M244.6 169.7c-7.4 0-14.4 1.7-19.5 4.7-4.8 2.8-7.4 6.4-7.4 10.2 0 3.8 2.8 7.4 7.5 10.2 5.2 3 12.1 4.7 19.5 4.7s14.4-1.7 19.5-4.7c4.8-2.8 7.4-6.4 7.4-10.2 0-3.8-2.8-7.4-7.5-10.2-5.2-3-12.1-4.7-19.5-4.7z"/><linearGradient id="H" gradientUnits="userSpaceOnUse" x1="218.679" y1="101.618" x2="272.782" y2="101.618" gradientTransform="matrix(1 0 0 -1 0 287.531)"><stop offset="0" stop-color="#fff"/><stop offset="1" stop-color="#c2dbff"/></linearGradient><path fill="url(#H)" d="M245.6 171.1c-7.4 0-14.4 1.7-19.5 4.7-4.8 2.8-7.4 6.4-7.4 10.2 0 3.8 2.8 7.4 7.5 10.2 5.2 3 12.1 4.7 19.5 4.7s14.4-1.7 19.5-4.7c4.8-2.8 7.4-6.4 7.4-10.2 0-3.8-2.8-7.4-7.5-10.2-5.1-3.2-12-4.7-19.5-4.7z"/><path fill="#95BDE5" d="M259.9 176.4l-2-1.2c-.4-.2-1.1-.2-1.4 0l-1.7 1c-2.3-1-4.6-1.3-6.7-1.2s-4.1.6-5.6 1.6c-1.7 1-2.5 1.9-2.5 3 0 1 .5 2 1.6 3.2.1.1.4.5.8 1 1 1.1 1.6 1.9 1.8 2.5.2.6.1 1.1-.6 1.4-1.4.8-3.2.7-5.2-.4-1.2-.7-2.2-1.4-2.9-2.4-.4-.5-.7-1-1-1.4l-.4-.4c-.6-.4-1.4-.4-2 0l-2.4 1.3c-.4.2-.5.5-.2.7.8 1.2 2.2 2.4 4 3.6l-1.9 1.1c-.4.2-.4.6 0 .8l2 1.2c.4.2 1.1.2 1.4 0l2-1.2c2.2.8 4.3 1.2 6.5 1.1 2.2-.1 4.1-.7 5.8-1.7 1.2-.7 1.9-1.4 2.2-2.2s.2-1.4-.1-2.3c-.4-.7-1.1-1.6-1.9-2.5-.7-.8-1.3-1.4-1.6-1.8-.4-.4-.5-.8-.5-1.2s.2-.7.8-1.1c.7-.4 1.4-.6 2.4-.5 1 .1 1.8.5 2.8 1 1.1.6 1.8 1.3 2.4 2.2.2.4.5.7.6 1.1l.4.4c.6.4 1.4.4 2 0l2.4-1.4c.4-.2.5-.5.2-.7-.4-.5-.7-1-1.1-1.3-.5-.5-1.1-1.1-1.9-1.6l1.6-1c.3-.1.3-.4-.1-.7m15.3 4.1z"/><path fill="#95BDE5" d="M273.9 175.8c-1.3-2.5-3.8-4.9-7.3-7-3.8-2.3-8.6-3.7-13.5-4.4l-1.7-1H241l-1.7.8c-5 .7-9.8 2.2-13.8 4.4-3.5 2-5.9 4.4-7.2 7.1l-1.2.7v6.7c.1 4.3 2.9 8.5 8.5 11.7 11.4 6.6 29.7 6.6 41 0 5.6-3.2 8.4-7.4 8.4-11.7v-6.7c0 .2-1.1-.6-1.1-.6z"/><linearGradient id="I" gradientUnits="userSpaceOnUse" x1="217.196" y1="111.204" x2="275.226" y2="111.204" gradientTransform="matrix(1 0 0 -1 0 287.531)"><stop offset="0" stop-color="#fff"/><stop offset="1" stop-color="#c2dbff"/></linearGradient><path fill="url(#I)" d="M266.6 164.5c-11.4-6.6-29.7-6.6-41 0s-11.3 17.3.1 23.7c11.4 6.6 29.7 6.6 41 0s11.3-17.1-.1-23.7"/><path fill="#95BDE5" d="M246.1 161.5c-7.4 0-14.4 1.7-19.5 4.7-4.8 2.8-7.4 6.4-7.4 10.2 0 3.8 2.8 7.4 7.5 10.2 5.2 3 12.1 4.7 19.5 4.7s14.4-1.7 19.5-4.7c4.8-2.8 7.4-6.4 7.4-10.2 0-3.8-2.8-7.4-7.5-10.2-5.2-3.1-12.2-4.7-19.5-4.7z"/><linearGradient id="J" gradientUnits="userSpaceOnUse" x1="220.236" y1="109.886" x2="274.339" y2="109.886" gradientTransform="matrix(1 0 0 -1 0 287.531)"><stop offset="0" stop-color="#fff"/><stop offset="1" stop-color="#c2dbff"/></linearGradient><path fill="url(#J)" d="M247.2 162.8c-7.4 0-14.4 1.7-19.5 4.7-4.8 2.8-7.4 6.4-7.4 10.2s2.8 7.4 7.5 10.2c5.2 3 12.1 4.7 19.5 4.7s14.4-1.7 19.5-4.7c4.8-2.8 7.4-6.4 7.4-10.2s-2.8-7.4-7.5-10.2c-5.1-3-12.1-4.7-19.5-4.7z"/><path fill="#95BDE5" d="M261.5 168.2l-2-1.2c-.4-.2-1.1-.2-1.4 0l-1.7 1c-2.3-1-4.6-1.3-6.7-1.2-2.2.1-4.1.6-5.6 1.6-1.7 1-2.5 1.9-2.5 3 0 1 .5 2 1.6 3.2.1.1.4.5.8 1 1 1.1 1.6 1.9 1.8 2.5.2.6.1 1.1-.6 1.4-1.4.8-3.2.7-5.2-.4-1.2-.7-2.2-1.4-2.9-2.4-.4-.5-.7-1-1-1.4l-.4-.4c-.6-.4-1.4-.4-2 0l-2.4 1.3c-.4.2-.5.5-.2.7.8 1.2 2.2 2.4 4 3.6l-1.9 1.1c-.4.2-.4.6 0 .8l2 1.2c.4.2 1.1.2 1.4 0l2-1.2c2.2.8 4.3 1.2 6.5 1.1 2.2-.1 4.1-.7 5.8-1.7 1.2-.7 1.9-1.4 2.2-2.2.2-.7.2-1.4-.1-2.3-.4-.7-1.1-1.6-1.9-2.5-.7-.8-1.3-1.4-1.6-1.8-.4-.4-.5-.8-.5-1.2s.2-.7.8-1.1c.7-.4 1.4-.6 2.4-.5 1 .1 1.8.5 2.8 1 1.1.6 1.8 1.3 2.4 2.2.2.4.5.7.6 1.1l.4.4c.6.4 1.4.4 2 0l2.4-1.4c.4-.2.5-.5.2-.7-.4-.5-.7-1-1.1-1.3-.5-.5-1.1-1.1-1.9-1.6l1.6-1c.2 0 .2-.5-.1-.7m12.8 3.7z"/><path fill="#95BDE5" d="M273.1 167.1c-1.3-2.5-3.8-4.9-7.3-7-3.8-2.3-8.6-3.7-13.5-4.4l-1.7-1H240l-1.7.8c-5 .7-9.8 2.2-13.8 4.4-3.5 2-5.9 4.4-7.2 7.1l-1.2.7v6.7c.1 4.3 2.9 8.5 8.5 11.7 11.4 6.6 29.7 6.6 41 0 5.6-3.2 8.4-7.4 8.4-11.7v-6.7c0 .1-.9-.6-.9-.6z"/><linearGradient id="K" gradientUnits="userSpaceOnUse" x1="216.286" y1="119.832" x2="274.315" y2="119.832" gradientTransform="matrix(1 0 0 -1 0 287.531)"><stop offset="0" stop-color="#fff"/><stop offset="1" stop-color="#c2dbff"/></linearGradient><path fill="url(#K)" d="M265.8 155.8c-11.4-6.6-29.7-6.6-41 0s-11.3 17.3.1 23.7c11.4 6.6 29.7 6.6 41 0 11.3-6.5 11.3-17.1-.1-23.7"/><path fill="#95BDE5" d="M245.2 152.8c-7.4 0-14.4 1.7-19.5 4.7-4.8 2.8-7.4 6.4-7.4 10.2s2.8 7.4 7.5 10.2c5.2 3 12.1 4.7 19.5 4.7s14.4-1.7 19.5-4.7c4.8-2.8 7.4-6.4 7.4-10.2s-2.8-7.4-7.5-10.2c-5.2-3-12.1-4.7-19.5-4.7z"/><linearGradient id="L" gradientUnits="userSpaceOnUse" x1="219.34" y1="118.514" x2="273.443" y2="118.514" gradientTransform="matrix(1 0 0 -1 0 287.531)"><stop offset="0" stop-color="#fff"/><stop offset="1" stop-color="#c2dbff"/></linearGradient><path fill="url(#L)" d="M246.2 154.2c-7.4 0-14.4 1.7-19.5 4.7-4.8 2.8-7.4 6.4-7.4 10.2 0 3.8 2.8 7.4 7.5 10.2 5.2 3 12.1 4.7 19.5 4.7s14.4-1.7 19.5-4.7c4.8-2.8 7.4-6.4 7.4-10.2 0-3.8-2.8-7.4-7.5-10.2-5.1-3.2-12-4.7-19.5-4.7z"/><path fill="#95BDE5" d="M260.6 159.6l-2-1.2c-.4-.2-1.1-.2-1.4 0l-1.7 1c-2.3-1-4.6-1.3-6.7-1.2-2.2.1-4.1.6-5.6 1.6-1.7 1-2.5 1.9-2.5 3 0 1 .5 2 1.6 3.2.1.1.4.5.8 1 1 1.1 1.6 1.9 1.8 2.5.2.6.1 1.1-.6 1.4-1.4.8-3.2.7-5.2-.4-1.2-.7-2.2-1.4-2.9-2.4-.4-.5-.7-1-1-1.4l-.4-.4c-.6-.4-1.4-.4-2 0l-2.4 1.3c-.4.2-.5.5-.2.7.8 1.2 2.2 2.4 4 3.6l-1.9 1.1c-.4.2-.4.6 0 .8l2 1.2c.4.2 1.1.2 1.4 0l2-1.2c2.2.8 4.3 1.2 6.5 1.1s4.1-.7 5.8-1.7c1.2-.7 1.9-1.4 2.2-2.2.2-.7.2-1.4-.1-2.3-.4-.7-1.1-1.6-1.9-2.5-.7-.8-1.3-1.4-1.6-1.8-.4-.4-.5-.8-.5-1.2 0-.4.2-.7.8-1.1.7-.4 1.4-.6 2.4-.5s1.8.5 2.8 1c1.1.6 1.8 1.3 2.4 2.2.2.4.5.7.6 1.1l.4.4c.6.4 1.4.4 2 0l2.4-1.4c.4-.2.5-.5.2-.7-.4-.5-.7-1-1.1-1.3-.5-.5-1.1-1.1-1.9-1.6l1.6-1c.3-.2.3-.5-.1-.7m12.4 3.7z"/><path fill="#95BDE5" d="M271.6 158.5c-1.3-2.5-3.8-4.9-7.3-7-3.8-2.3-8.6-3.7-13.5-4.4l-1.7-1h-10.4l-1.7.9c-5 .7-9.8 2.2-13.8 4.4-3.5 2-5.9 4.4-7.2 7.1l-1.2.7v6.7c.1 4.3 2.9 8.5 8.5 11.7 11.4 6.6 29.7 6.6 41 0 5.6-3.2 8.4-7.4 8.4-11.7v-6.7l-1.1-.7z"/><linearGradient id="M" gradientUnits="userSpaceOnUse" x1="214.937" y1="128.46" x2="272.967" y2="128.46" gradientTransform="matrix(1 0 0 -1 0 287.531)"><stop offset="0" stop-color="#fff"/><stop offset="1" stop-color="#c2dbff"/></linearGradient><path fill="url(#M)" d="M264.5 147.2c-11.4-6.6-29.7-6.6-41 0s-11.3 17.3.1 23.7c11.4 6.6 29.7 6.6 41 0 11.2-6.6 11.1-17.2-.1-23.7"/><path fill="#95BDE5" d="M243.8 144.2c-7.4 0-14.4 1.7-19.5 4.7-4.8 2.8-7.4 6.4-7.4 10.2 0 3.8 2.8 7.4 7.5 10.2 5.2 3 12.1 4.7 19.5 4.7s14.4-1.7 19.5-4.7c4.8-2.8 7.4-6.4 7.4-10.2 0-3.8-2.8-7.4-7.5-10.2-5.1-3-12-4.7-19.5-4.7z"/><linearGradient id="N" gradientUnits="userSpaceOnUse" x1="217.959" y1="127.142" x2="272.063" y2="127.142" gradientTransform="matrix(1 0 0 -1 0 287.531)"><stop offset="0" stop-color="#fff"/><stop offset="1" stop-color="#c2dbff"/></linearGradient><path fill="url(#N)" d="M244.9 145.5c-7.4 0-14.4 1.7-19.5 4.7-4.8 2.8-7.4 6.4-7.4 10.2 0 3.8 2.8 7.4 7.5 10.2 5.2 3 12.1 4.7 19.5 4.7s14.4-1.7 19.5-4.7c4.8-2.8 7.4-6.4 7.4-10.2 0-3.8-2.8-7.4-7.5-10.2-5.1-3.1-12-4.7-19.5-4.7z"/><path fill="#95BDE5" d="M259.2 150.9l-2-1.2c-.4-.2-1.1-.2-1.4 0l-1.7 1c-2.3-1-4.6-1.3-6.7-1.2s-4.1.6-5.6 1.6c-1.7 1-2.5 1.9-2.5 3 0 1 .5 2 1.6 3.2.1.1.4.5.8 1 1 1.1 1.6 1.9 1.8 2.5.2.6.1 1.1-.6 1.4-1.4.8-3.2.7-5.2-.4-1.2-.7-2.2-1.4-2.9-2.4-.4-.5-.7-1-1-1.4l-.4-.4c-.6-.4-1.4-.4-2 0L229 159c-.4.2-.5.5-.2.7.8 1.2 2.2 2.4 4 3.6l-1.9 1.1c-.4.2-.4.6 0 .8l2 1.2c.4.2 1.1.2 1.4 0l2-1.2c2.2.8 4.3 1.2 6.5 1.1 2.2-.1 4.1-.7 5.8-1.7 1.2-.7 1.9-1.4 2.2-2.2s.2-1.4-.1-2.3c-.4-.7-1.1-1.6-1.9-2.5-.7-.8-1.3-1.4-1.6-1.8-.4-.4-.5-.8-.5-1.2s.2-.7.8-1.1c.7-.4 1.4-.6 2.4-.5 1 .1 1.8.5 2.8 1 1.1.6 1.8 1.3 2.4 2.2.2.4.5.7.6 1.1l.4.4c.6.4 1.4.4 2 0l2.4-1.4c.4-.2.5-.5.2-.7-.4-.5-.7-1-1.1-1.3-.5-.5-1.1-1.1-1.9-1.6l1.6-.8c.4-.4.4-.7-.1-1m17.5 4.1z"/><path fill="#95BDE5" d="M275.4 150.2c-1.3-2.5-3.8-4.9-7.3-7-3.8-2.3-8.6-3.7-13.5-4.4l-1.7-1h-10.4l-1.7.8c-5 .7-9.8 2.2-13.8 4.4-3.5 2-5.9 4.4-7.2 7.1l-1.2.7v6.7c.1 4.3 2.9 8.5 8.5 11.7 11.4 6.6 29.7 6.6 41 0 5.6-3.2 8.4-7.4 8.4-11.7v-6.7c-.1.1-1.1-.6-1.1-.6z"/><linearGradient id="O" gradientUnits="userSpaceOnUse" x1="218.667" y1="136.728" x2="276.697" y2="136.728" gradientTransform="matrix(1 0 0 -1 0 287.531)"><stop offset="0" stop-color="#fff"/><stop offset="1" stop-color="#c2dbff"/></linearGradient><path fill="url(#O)" d="M268.2 138.9c-11.4-6.6-29.7-6.6-41 0s-11.3 17.3.1 23.7c11.4 6.6 29.7 6.6 41 0 11.3-6.5 11.3-17.2-.1-23.7"/><path fill="#95BDE5" d="M247.6 135.9c-7.4 0-14.4 1.7-19.5 4.7-4.8 2.8-7.4 6.4-7.4 10.2 0 3.8 2.8 7.4 7.5 10.2 5.2 3 12.1 4.7 19.5 4.7s14.4-1.7 19.5-4.7c4.8-2.8 7.4-6.4 7.4-10.2 0-3.8-2.8-7.4-7.5-10.2-5.2-3-12.1-4.7-19.5-4.7z"/><linearGradient id="P" gradientUnits="userSpaceOnUse" x1="221.674" y1="135.41" x2="275.777" y2="135.41" gradientTransform="matrix(1 0 0 -1 0 287.531)"><stop offset="0" stop-color="#fff"/><stop offset="1" stop-color="#c2dbff"/></linearGradient><path fill="url(#P)" d="M248.6 137.3c-7.4 0-14.4 1.7-19.5 4.7-4.8 2.8-7.4 6.4-7.4 10.2s2.8 7.4 7.5 10.2c5.2 3 12.1 4.7 19.5 4.7s14.4-1.7 19.5-4.7c4.8-2.8 7.4-6.4 7.4-10.2s-2.8-7.4-7.5-10.2c-5.1-3.2-12-4.7-19.5-4.7z"/><path fill="#95BDE5" d="M263 142.7l-2-1.2c-.4-.2-1.1-.2-1.4 0l-1.7 1c-2.3-1-4.6-1.3-6.7-1.2-2.2.1-4.1.6-5.6 1.6-1.7 1-2.5 1.9-2.5 3 0 1 .5 2 1.6 3.2.1.1.4.5.8 1 1 1.1 1.6 1.9 1.8 2.5.2.6.1 1.1-.6 1.4-1.4.8-3.2.7-5.2-.4-1.2-.7-2.2-1.4-2.9-2.4-.4-.5-.7-1-1-1.4l-.4-.4c-.6-.4-1.4-.4-2 0l-2.4 1.3c-.4.2-.5.5-.2.7.8 1.2 2.2 2.4 4 3.6l-1.9 1.1c-.4.2-.4.6 0 .8l2 1.2c.4.2 1.1.2 1.4 0l2-1.2c2.2.8 4.3 1.2 6.5 1.1 2.2-.1 4.1-.7 5.8-1.7 1.2-.7 1.9-1.4 2.2-2.2.2-.7.2-1.4-.1-2.3-.4-.7-1.1-1.6-1.9-2.5-.7-.8-1.3-1.4-1.6-1.8-.4-.4-.5-.8-.5-1.2s.2-.7.8-1.1c.7-.4 1.4-.6 2.4-.5 1 .1 1.8.5 2.8 1 1.1.6 1.8 1.3 2.4 2.2.2.4.5.7.6 1.1l.4.4c.6.4 1.4.4 2 0l2.4-1.4c.4-.2.5-.5.2-.7-.4-.5-.7-1-1.1-1.3-.5-.5-1.1-1.1-1.9-1.6l1.6-1c.3-.1.3-.5-.1-.7m10.7 3.7z"/><path fill="#95BDE5" d="M272.4 141.6c-1.3-2.5-3.8-4.9-7.3-7-3.8-2.3-8.6-3.7-13.5-4.4l-1.7-1h-10.4l-1.7 1c-5 .7-9.8 2.2-13.8 4.4-3.5 2-5.9 4.4-7.2 7.1l-1.2.7v6.7c.1 4.3 2.9 8.5 8.5 11.7 11.4 6.6 29.7 6.6 41 0 5.6-3.2 8.4-7.4 8.4-11.7v-6.7c-.1 0-1.1-.8-1.1-.8z"/><linearGradient id="Q" gradientUnits="userSpaceOnUse" x1="215.638" y1="145.356" x2="273.652" y2="145.356" gradientTransform="matrix(1 0 0 -1 0 287.531)"><stop offset="0" stop-color="#fff"/><stop offset="1" stop-color="#c2dbff"/></linearGradient><path fill="url(#Q)" d="M265.1 130.3c-11.4-6.6-29.7-6.6-41 0s-11.3 17.3.1 23.7c11.4 6.6 29.7 6.6 41 0 11.4-6.6 11.2-17.2-.1-23.7"/><path fill="#95BDE5" d="M244.6 127.3c-7.4 0-14.4 1.7-19.5 4.7-4.8 2.8-7.4 6.4-7.4 10.2 0 3.8 2.8 7.4 7.5 10.2 5.2 3 12.1 4.7 19.5 4.7s14.4-1.7 19.5-4.7c4.8-2.8 7.4-6.4 7.4-10.2 0-3.8-2.8-7.4-7.5-10.2-5.2-3-12.1-4.7-19.5-4.7z"/><linearGradient id="R" gradientUnits="userSpaceOnUse" x1="218.679" y1="144.038" x2="272.782" y2="144.038" gradientTransform="matrix(1 0 0 -1 0 287.531)"><stop offset="0" stop-color="#fff"/><stop offset="1" stop-color="#c2dbff"/></linearGradient><path fill="url(#R)" d="M245.6 128.6c-7.4 0-14.4 1.7-19.5 4.7-4.8 2.8-7.4 6.4-7.4 10.2 0 3.8 2.8 7.4 7.5 10.2 5.2 3 12.1 4.7 19.5 4.7s14.4-1.7 19.5-4.7c4.8-2.8 7.4-6.4 7.4-10.2 0-3.8-2.8-7.4-7.5-10.2-5.1-3.1-12-4.7-19.5-4.7z"/><path fill="#95BDE5" d="M259.9 134l-2-1.2c-.4-.2-1.1-.2-1.4 0l-1.8 1c-2.3-1-4.6-1.3-6.7-1.2s-4.1.6-5.6 1.6c-1.7 1-2.5 1.9-2.5 3 0 1 .5 2 1.6 3.2.1.1.4.5.8 1 1 1.1 1.6 1.9 1.8 2.5.2.6.1 1.1-.6 1.4-1.4.8-3.2.7-5.2-.4-1.2-.7-2.2-1.4-2.9-2.4-.4-.5-.7-1-1-1.4l-.4-.4c-.6-.4-1.4-.4-2 0l-2.4 1.3c-.4.2-.5.5-.2.7.8 1.2 2.2 2.4 4 3.6l-1.9 1.1c-.4.2-.4.6 0 .8l2 1.2c.4.2 1.1.2 1.4 0l2-1.2c2.2.8 4.3 1.2 6.5 1.1 2.2-.1 4.1-.7 5.8-1.7 1.2-.7 1.9-1.4 2.2-2.2s.2-1.4-.1-2.3c-.4-.7-1.1-1.6-1.9-2.5-.7-.8-1.3-1.4-1.6-1.8-.4-.4-.5-.8-.5-1.2s.2-.7.8-1.1c.7-.4 1.4-.6 2.4-.5 1 .1 1.8.5 2.8 1 1.1.6 1.8 1.3 2.4 2.2.2.4.5.7.6 1.1l.4.4c.6.4 1.4.4 2 0l2.4-1.4c.4-.2.5-.5.2-.7-.4-.5-.7-1-1.1-1.3-.5-.5-1.1-1.1-1.9-1.6l1.6-1c.4-.1.4-.4 0-.7m12.8 3.7z"/><path fill="#95BDE5" d="M271.5 132.9c-1.3-2.5-3.8-4.9-7.3-7-3.8-2.3-8.6-3.7-13.5-4.4l-1.7-1h-10.4l-1.7.8c-5 .7-9.8 2.2-13.8 4.4-3.5 2-5.9 4.4-7.2 7.1l-1.2.7v6.7c.1 4.3 2.9 8.5 8.5 11.7 11.4 6.6 29.7 6.6 41 0 5.6-3.2 8.4-7.4 8.4-11.7v-6.7c0 .2-1.1-.6-1.1-.6z"/><linearGradient id="S" gradientUnits="userSpaceOnUse" x1="214.74" y1="154.104" x2="272.77" y2="154.104" gradientTransform="matrix(1 0 0 -1 0 287.531)"><stop offset="0" stop-color="#fff"/><stop offset="1" stop-color="#c2dbff"/></linearGradient><path fill="url(#S)" d="M264.2 121.6c-11.4-6.6-29.7-6.6-41 0s-11.3 17.3.1 23.7c11.4 6.6 29.7 6.6 41 0 11.3-6.5 11.3-17.1-.1-23.7"/><path fill="#95BDE5" d="M243.6 118.7c-7.4 0-14.4 1.7-19.5 4.7-4.8 2.8-7.4 6.4-7.4 10.2 0 3.8 2.8 7.4 7.5 10.2 5.2 3 12.1 4.7 19.5 4.7s14.4-1.7 19.5-4.7c4.8-2.8 7.4-6.4 7.4-10.2 0-3.8-2.8-7.4-7.5-10.2-5.1-3-12.1-4.7-19.5-4.7z"/><linearGradient id="T" gradientUnits="userSpaceOnUse" x1="217.84" y1="152.786" x2="271.943" y2="152.786" gradientTransform="matrix(1 0 0 -1 0 287.531)"><stop offset="0" stop-color="#fff"/><stop offset="1" stop-color="#c2dbff"/></linearGradient><path fill="url(#T)" d="M244.8 119.9c-7.4 0-14.4 1.7-19.5 4.7-4.8 2.8-7.4 6.4-7.4 10.2 0 3.8 2.8 7.4 7.5 10.2 5.2 3 12.1 4.7 19.5 4.7s14.4-1.7 19.5-4.7c4.8-2.8 7.4-6.4 7.4-10.2s-2.8-7.4-7.5-10.2c-5.2-3-12.2-4.7-19.5-4.7z"/><path fill="#95BDE5" d="M347.4 222.3zm-1.2-4.8c-1.3-2.5-3.8-4.9-7.3-7-3.8-2.3-8.6-3.7-13.5-4.4l-1.7-1h-10.4l-1.7.8c-5 .7-9.8 2.2-13.8 4.4-3.5 2-5.9 4.4-7.2 7.1l-1.2.7v6.7c.1 4.3 2.9 8.5 8.5 11.7 11.4 6.6 29.7 6.6 41 0 5.6-3.2 8.4-7.4 8.4-11.7v-6.7l-1.1-.6z"/><linearGradient id="U" gradientUnits="userSpaceOnUse" x1="289.454" y1="69.383" x2="347.484" y2="69.383" gradientTransform="matrix(1 0 0 -1 0 287.531)"><stop offset="0" stop-color="#fff"/><stop offset="1" stop-color="#c2dbff"/></linearGradient><path fill="url(#U)" d="M338.9 206.3c-11.4-6.6-29.7-6.6-41 0s-11.3 17.3.1 23.7c11.4 6.6 29.7 6.6 41 0s11.3-17.2-.1-23.7"/><path fill="#95BDE5" d="M318.4 203.3c-7.4 0-14.4 1.7-19.5 4.7-4.8 2.8-7.4 6.4-7.4 10.2s2.8 7.4 7.5 10.2c5.2 3 12.1 4.7 19.5 4.7s14.4-1.7 19.5-4.7c4.8-2.8 7.4-6.4 7.4-10.2s-2.8-7.4-7.5-10.2c-5.3-3-12.2-4.7-19.5-4.7z"/><linearGradient id="V" gradientUnits="userSpaceOnUse" x1="292.495" y1="68.184" x2="346.598" y2="68.184" gradientTransform="matrix(1 0 0 -1 0 287.531)"><stop offset="0" stop-color="#fff"/><stop offset="1" stop-color="#c2dbff"/></linearGradient><path fill="url(#V)" d="M319.5 204.5c-7.4 0-14.4 1.7-19.5 4.7-4.8 2.8-7.4 6.4-7.4 10.2 0 3.8 2.8 7.4 7.5 10.2 5.2 3 12.1 4.7 19.5 4.7s14.4-1.7 19.5-4.7c4.8-2.8 7.4-6.4 7.4-10.2 0-3.8-2.8-7.4-7.5-10.2-5.3-3-12.2-4.7-19.5-4.7z"/><path fill="#95BDE5" d="M333.7 210l-2-1.2c-.4-.2-1.1-.2-1.4 0l-1.7 1c-2.3-1-4.6-1.3-6.7-1.2s-4.1.6-5.6 1.6c-1.7 1-2.5 1.9-2.5 3 0 1 .5 2 1.6 3.2.1.1.4.5.8 1 1 1.1 1.6 1.9 1.8 2.5.2.6.1 1.1-.6 1.4-1.4.8-3.2.7-5.2-.4-1.2-.7-2.2-1.4-2.9-2.4-.4-.5-.7-1-1-1.4l-.4-.4c-.6-.4-1.4-.4-2 0l-2.4 1.3c-.4.2-.5.5-.2.7.8 1.2 2.2 2.4 4 3.6l-1.9 1.1c-.4.2-.4.6 0 .8l2 1.2c.4.2 1.1.2 1.4 0l2-1.2c2.2.8 4.3 1.2 6.5 1.1s4.1-.7 5.8-1.7c1.2-.7 1.9-1.4 2.2-2.2.2-.7.2-1.4-.1-2.3-.4-.7-1.1-1.6-1.9-2.5-.7-.8-1.3-1.4-1.6-1.8-.4-.4-.5-.8-.5-1.2 0-.4.2-.7.8-1.1.7-.4 1.4-.6 2.4-.5 1 .1 1.8.5 2.8 1 1.1.6 1.8 1.3 2.4 2.2.2.4.5.7.6 1.1l.4.4c.6.4 1.4.4 2 0l2.4-1.4c.4-.2.5-.5.2-.7-.4-.5-.7-1-1.1-1.3-.5-.5-1.1-1.1-1.9-1.6l1.6-1c.3-.1.3-.5-.1-.7m15.5 2.8z"/><path fill="#95BDE5" d="M347.9 208c-1.3-2.5-3.8-4.9-7.3-7-3.8-2.3-8.6-3.7-13.5-4.4l-1.7-1H315l-1.7.8c-5 .7-9.8 2.2-13.8 4.4-3.5 2-5.9 4.4-7.2 7.1l-1.2.7v6.7c.1 4.3 2.9 8.5 8.5 11.7 11.4 6.6 29.7 6.6 41 0 5.6-3.2 8.4-7.4 8.4-11.7v-6.7c-.1.1-1.1-.6-1.1-.6z"/><linearGradient id="W" gradientUnits="userSpaceOnUse" x1="291.132" y1="78.969" x2="349.146" y2="78.969" gradientTransform="matrix(1 0 0 -1 0 287.531)"><stop offset="0" stop-color="#fff"/><stop offset="1" stop-color="#c2dbff"/></linearGradient><path fill="url(#W)" d="M340.5 196.7c-11.4-6.6-29.7-6.6-41 0s-11.3 17.3.1 23.7c11.4 6.6 29.7 6.6 41 0 11.5-6.6 11.3-17.2-.1-23.7"/><path fill="#95BDE5" d="M320.1 193.7c-7.4 0-14.4 1.7-19.5 4.7-4.8 2.8-7.4 6.4-7.4 10.2 0 3.8 2.8 7.4 7.5 10.2 5.2 3 12.1 4.7 19.5 4.7s14.4-1.7 19.5-4.7c4.8-2.8 7.4-6.4 7.4-10.2 0-3.8-2.8-7.4-7.5-10.2-5.2-3-12.1-4.7-19.5-4.7z"/><linearGradient id="X" gradientUnits="userSpaceOnUse" x1="294.173" y1="77.651" x2="348.276" y2="77.651" gradientTransform="matrix(1 0 0 -1 0 287.531)"><stop offset="0" stop-color="#fff"/><stop offset="1" stop-color="#c2dbff"/></linearGradient><path fill="url(#X)" d="M321.1 195c-7.4 0-14.4 1.7-19.5 4.7-4.8 2.8-7.4 6.4-7.4 10.2 0 3.8 2.8 7.4 7.5 10.2 5.2 3 12.1 4.7 19.5 4.7s14.4-1.7 19.5-4.7c4.8-2.8 7.4-6.4 7.4-10.2 0-3.8-2.8-7.4-7.5-10.2-5.1-3.1-12-4.7-19.5-4.7z"/><path fill="#95BDE5" d="M335.4 200.4l-2-1.2c-.4-.2-1.1-.2-1.4 0l-1.7 1c-2.3-1-4.6-1.3-6.7-1.2s-4.1.6-5.6 1.6c-1.7 1-2.5 1.9-2.5 3 0 1 .5 2 1.6 3.2.1.1.4.5.8 1 1 1.1 1.6 1.9 1.8 2.5s.1 1.1-.6 1.4c-1.4.8-3.2.7-5.2-.4-1.2-.7-2.2-1.4-2.9-2.4-.4-.5-.7-1-1-1.4l-.4-.4c-.6-.4-1.4-.4-2 0l-2.4 1.3c-.4.2-.5.5-.2.7.8 1.2 2.2 2.4 4 3.6l-1.9 1.1c-.4.2-.4.6 0 .8l2 1.2c.4.2 1.1.2 1.4 0l2-1.2c2.2.8 4.3 1.2 6.5 1.1 2.2-.1 4.1-.7 5.8-1.7 1.2-.7 1.9-1.4 2.2-2.2.2-.7.2-1.4-.1-2.3-.4-.7-1.1-1.6-1.9-2.5-.7-.8-1.3-1.4-1.6-1.8-.4-.4-.5-.8-.5-1.2s.2-.7.8-1.1c.7-.4 1.4-.6 2.4-.5 1 .1 1.8.5 2.8 1 1.1.6 1.8 1.3 2.4 2.2.2.4.5.7.6 1.1l.4.4c.6.4 1.4.4 2 0l2.4-1.4c.4-.2.5-.5.2-.7-.4-.5-.7-1-1.1-1.3-.5-.5-1.1-1.1-1.9-1.6l1.6-1c.4-.1.4-.4-.1-.7m12.8 3.7z"/><path fill="#95BDE5" d="M347 199.3c-1.3-2.5-3.8-4.9-7.3-7-3.8-2.3-8.6-3.7-13.5-4.4l-1.7-1h-10.4l-1.7.8c-5 .7-9.8 2.2-13.8 4.4-3.5 2-5.9 4.4-7.2 7.1l-1.2.7v6.7c.1 4.3 2.9 8.5 8.5 11.7 11.4 6.6 29.7 6.6 41 0 5.6-3.2 8.4-7.4 8.4-11.7v-6.7l-1.1-.6z"/><linearGradient id="Y" gradientUnits="userSpaceOnUse" x1="290.293" y1="87.717" x2="348.323" y2="87.717" gradientTransform="matrix(1 0 0 -1 0 287.531)"><stop offset="0" stop-color="#fff"/><stop offset="1" stop-color="#c2dbff"/></linearGradient><path fill="url(#Y)" d="M339.7 188c-11.4-6.6-29.7-6.6-41 0s-11.3 17.3.1 23.7c11.4 6.6 29.7 6.6 41 0 11.3-6.5 11.3-17.2-.1-23.7"/><path fill="#95BDE5" d="M319.1 185.1c-7.4 0-14.4 1.7-19.5 4.7-4.8 2.8-7.4 6.4-7.4 10.2 0 3.8 2.8 7.4 7.5 10.2 5.2 3 12.1 4.7 19.5 4.7s14.4-1.7 19.5-4.7c4.8-2.8 7.4-6.4 7.4-10.2 0-3.8-2.8-7.4-7.5-10.2-5.1-3-12.1-4.7-19.5-4.7z"/><linearGradient id="Z" gradientUnits="userSpaceOnUse" x1="293.334" y1="86.399" x2="347.437" y2="86.399" gradientTransform="matrix(1 0 0 -1 0 287.531)"><stop offset="0" stop-color="#fff"/><stop offset="1" stop-color="#c2dbff"/></linearGradient><path fill="url(#Z)" d="M320.3 186.3c-7.4 0-14.4 1.7-19.5 4.7-4.8 2.8-7.4 6.4-7.4 10.2s2.8 7.4 7.5 10.2c5.2 3 12.1 4.7 19.5 4.7s14.4-1.7 19.5-4.7c4.8-2.8 7.4-6.4 7.4-10.2 0-3.8-2.8-7.4-7.5-10.2-5.2-3-12.2-4.7-19.5-4.7z"/><path fill="#95BDE5" d="M334.6 191.8l-2-1.2c-.4-.2-1.1-.2-1.4 0l-1.7 1c-2.3-1-4.6-1.3-6.7-1.2-2.2.1-4.1.6-5.6 1.6-1.7 1-2.5 1.9-2.5 3 0 1 .5 2 1.6 3.2.1.1.4.5.8 1 1 1.1 1.6 1.9 1.8 2.5.2.6.1 1.1-.6 1.4-1.4.8-3.2.7-5.2-.4-1.2-.7-2.2-1.4-2.9-2.4-.4-.5-.7-1-1-1.4l-.4-.4c-.6-.4-1.4-.4-2 0l-2.4 1.3c-.4.2-.5.5-.2.7.8 1.2 2.2 2.4 4 3.6l-1.9 1.1c-.4.2-.4.6 0 .8l2 1.2c.4.2 1.1.2 1.4 0l2-1.2c2.2.8 4.3 1.2 6.5 1.1s4.1-.7 5.8-1.7c1.2-.7 1.9-1.4 2.2-2.2.2-.7.2-1.4-.1-2.3-.4-.7-1.1-1.6-1.9-2.5-.7-.8-1.3-1.4-1.6-1.8-.4-.4-.5-.8-.5-1.2 0-.4.2-.7.8-1.1.7-.4 1.4-.6 2.4-.5 1 .1 1.8.5 2.8 1 1.1.6 1.8 1.3 2.4 2.2.2.4.5.7.6 1.1l.4.4c.6.4 1.4.4 2 0l2.4-1.4c.4-.2.5-.5.2-.7-.4-.5-.7-1-1.1-1.3-.5-.5-1.1-1.1-1.9-1.6l1.6-1c.2-.1.2-.5-.1-.7m13.6.6z"/><path fill="#95BDE5" d="M347 187.6c-1.3-2.5-3.8-4.9-7.3-7-3.8-2.3-8.6-3.7-13.5-4.4l-1.7-1h-10.4l-1.7.8c-5 .7-9.8 2.2-13.8 4.4-3.5 2-5.9 4.4-7.2 7.1l-1.2.7v6.7c.1 4.3 2.9 8.5 8.5 11.7 11.4 6.6 29.7 6.6 41 0 5.6-3.2 8.4-7.4 8.4-11.7v-6.7c0 .1-1.1-.6-1.1-.6z"/><linearGradient id="aa" gradientUnits="userSpaceOnUse" x1="290.293" y1="99.461" x2="348.323" y2="99.461" gradientTransform="matrix(1 0 0 -1 0 287.531)"><stop offset="0" stop-color="#fff"/><stop offset="1" stop-color="#c2dbff"/></linearGradient><path fill="url(#aa)" d="M339.7 176.2c-11.4-6.6-29.7-6.6-41 0s-11.3 17.3.1 23.7c11.4 6.6 29.7 6.6 41 0 11.3-6.4 11.3-17.1-.1-23.7"/><path fill="#95BDE5" d="M319.1 173.2c-7.4 0-14.4 1.7-19.5 4.7-4.8 2.8-7.4 6.4-7.4 10.2s2.8 7.4 7.5 10.2c5.2 3 12.1 4.7 19.5 4.7s14.4-1.7 19.5-4.7c4.8-2.8 7.4-6.4 7.4-10.2s-2.8-7.4-7.5-10.2c-5.1-3-12.1-4.7-19.5-4.7z"/><linearGradient id="ab" gradientUnits="userSpaceOnUse" x1="293.334" y1="98.142" x2="347.437" y2="98.142" gradientTransform="matrix(1 0 0 -1 0 287.531)"><stop offset="0" stop-color="#fff"/><stop offset="1" stop-color="#c2dbff"/></linearGradient><path fill="url(#ab)" d="M320.3 174.5c-7.4 0-14.4 1.7-19.5 4.7-4.8 2.8-7.4 6.4-7.4 10.2 0 3.8 2.8 7.4 7.5 10.2 5.2 3 12.1 4.7 19.5 4.7s14.4-1.7 19.5-4.7c4.8-2.8 7.4-6.4 7.4-10.2 0-3.8-2.8-7.4-7.5-10.2-5.2-3-12.2-4.7-19.5-4.7z"/><path fill="#95BDE5" d="M334.6 180l-2-1.2c-.4-.2-1.1-.2-1.4 0l-1.7 1c-2.3-1-4.6-1.3-6.7-1.2s-4.1.6-5.6 1.6c-1.7 1-2.5 1.9-2.5 3 0 1 .5 2 1.6 3.2.1.1.4.5.8 1 1 1.1 1.6 1.9 1.8 2.5s.1 1.1-.6 1.4c-1.4.8-3.2.7-5.2-.4-1.2-.7-2.2-1.4-2.9-2.4-.4-.5-.7-1-1-1.4l-.4-.4c-.6-.4-1.4-.4-2 0l-2.4 1.3c-.4.2-.5.5-.2.7.8 1.2 2.2 2.4 4 3.6l-1.9 1.1c-.4.2-.4.6 0 .8l2 1.2c.4.2 1.1.2 1.4 0l2-1.2c2.2.8 4.3 1.2 6.5 1.1 2.2-.1 4.1-.7 5.8-1.7 1.2-.7 1.9-1.4 2.2-2.2.2-.7.2-1.4-.1-2.3-.4-.7-1.1-1.6-1.9-2.5-.7-.8-1.3-1.4-1.6-1.8-.4-.4-.5-.8-.5-1.2s.2-.7.8-1.1c.7-.4 1.4-.6 2.4-.5 1 .1 1.8.5 2.8 1 1.1.6 1.8 1.3 2.4 2.2.2.4.5.7.6 1.1l.4.4c.6.4 1.4.4 2 0l2.4-1.4c.4-.2.5-.5.2-.7-.4-.5-.7-1-1.1-1.3-.5-.5-1.1-1.1-1.9-1.6l1.6-1c.2-.1.2-.4-.1-.7m11.2 3.2z"/><path fill="#95BDE5" d="M344.5 178.4c-1.3-2.5-3.8-4.9-7.3-7-3.8-2.3-8.6-3.7-13.5-4.4l-1.7-1h-10.4l-1.7.8c-5 .7-9.8 2.2-13.8 4.4-3.5 2-5.9 4.4-7.2 7.1l-1.2.7v6.7c.1 4.3 2.9 8.5 8.5 11.7 11.4 6.6 29.7 6.6 41 0 5.6-3.2 8.4-7.4 8.4-11.7V179c0 .1-1.1-.6-1.1-.6z"/><linearGradient id="ac" gradientUnits="userSpaceOnUse" x1="287.777" y1="108.568" x2="345.791" y2="108.568" gradientTransform="matrix(1 0 0 -1 0 287.531)"><stop offset="0" stop-color="#fff"/><stop offset="1" stop-color="#c2dbff"/></linearGradient><path fill="url(#ac)" d="M337.2 167.1c-11.4-6.6-29.7-6.6-41 0s-11.3 17.3.1 23.7c11.4 6.6 29.7 6.6 41 0 11.4-6.6 11.3-17.1-.1-23.7"/><path fill="#95BDE5" d="M316.7 164.1c-7.4 0-14.4 1.7-19.5 4.7-4.8 2.8-7.4 6.4-7.4 10.2s2.8 7.4 7.5 10.2c5.2 3 12.1 4.7 19.5 4.7s14.4-1.7 19.5-4.7c4.8-2.8 7.4-6.4 7.4-10.2s-2.8-7.4-7.5-10.2c-5.1-3-12.1-4.7-19.5-4.7z"/><linearGradient id="ad" gradientUnits="userSpaceOnUse" x1="290.818" y1="107.25" x2="344.921" y2="107.25" gradientTransform="matrix(1 0 0 -1 0 287.531)"><stop offset="0" stop-color="#fff"/><stop offset="1" stop-color="#c2dbff"/></linearGradient><path fill="url(#ad)" d="M317.8 165.4c-7.4 0-14.4 1.7-19.5 4.7-4.8 2.8-7.4 6.4-7.4 10.2 0 3.8 2.8 7.4 7.5 10.2 5.2 3 12.1 4.7 19.5 4.7s14.4-1.7 19.5-4.7c4.8-2.8 7.4-6.4 7.4-10.2 0-3.8-2.8-7.4-7.5-10.2-5.1-3.1-12.1-4.7-19.5-4.7z"/><path fill="#95BDE5" d="M332 170.8l-2-1.2c-.4-.2-1.1-.2-1.4 0l-1.7 1c-2.3-1-4.6-1.3-6.7-1.2-2.2.1-4.1.6-5.6 1.6-1.7 1-2.5 1.9-2.5 3 0 1 .5 2 1.6 3.2.1.1.4.5.8 1 1 1.1 1.6 1.9 1.8 2.5.2.6.1 1.1-.6 1.4-1.4.8-3.2.7-5.2-.4-1.2-.7-2.2-1.4-2.9-2.4-.4-.5-.7-1-1-1.4l-.4-.4c-.6-.4-1.4-.4-2 0l-2.4 1.3c-.4.2-.5.5-.2.7.8 1.2 2.2 2.4 4 3.6l-1.9 1.1c-.4.2-.4.6 0 .8l2 1.2c.4.2 1.1.2 1.4 0l2-1.2c2.2.8 4.3 1.2 6.5 1.1s4.1-.7 5.8-1.7c1.2-.7 1.9-1.4 2.2-2.2.2-.7.2-1.4-.1-2.3-.4-.7-1.1-1.6-1.9-2.5-.7-.8-1.3-1.4-1.6-1.8-.4-.4-.5-.8-.5-1.2s.2-.7.8-1.1c.7-.4 1.4-.6 2.4-.5 1 .1 1.8.5 2.8 1 1.1.6 1.8 1.3 2.4 2.2.2.4.5.7.6 1.1l.4.4c.6.4 1.4.4 2 0l2.4-1.4c.4-.2.5-.5.2-.7-.4-.5-.7-1-1.1-1.3-.5-.5-1.1-1.1-1.9-1.6l1.6-1c.4-.1.4-.4-.1-.7m15.4 4.1z"/><path fill="#95BDE5" d="M346.1 170.2c-1.3-2.5-3.8-4.9-7.3-7-3.8-2.3-8.6-3.7-13.5-4.4l-1.7-1h-10.4l-1.7.8c-5 .7-9.8 2.2-13.8 4.4-3.5 2-5.9 4.4-7.2 7.1l-1.2.7v6.7c.1 4.3 2.9 8.5 8.5 11.7 11.4 6.6 29.7 6.6 41 0 5.6-3.2 8.4-7.4 8.4-11.7v-6.7l-1.1-.6z"/><linearGradient id="ae" gradientUnits="userSpaceOnUse" x1="289.335" y1="116.836" x2="347.349" y2="116.836" gradientTransform="matrix(1 0 0 -1 0 287.531)"><stop offset="0" stop-color="#fff"/><stop offset="1" stop-color="#c2dbff"/></linearGradient><path fill="url(#ae)" d="M338.8 158.8c-11.4-6.6-29.7-6.6-41 0s-11.3 17.3.1 23.7c11.4 6.6 29.7 6.6 41 0 11.4-6.5 11.2-17.1-.1-23.7"/><path fill="#95BDE5" d="M318.3 155.8c-7.4 0-14.4 1.7-19.5 4.7-4.8 2.8-7.4 6.4-7.4 10.2s2.8 7.4 7.5 10.2c5.2 3 12.1 4.7 19.5 4.7s14.4-1.7 19.5-4.7c4.8-2.8 7.4-6.4 7.4-10.2s-2.8-7.4-7.5-10.2c-5.2-3-12.1-4.7-19.5-4.7z"/><linearGradient id="af" gradientUnits="userSpaceOnUse" x1="292.375" y1="115.518" x2="346.477" y2="115.518" gradientTransform="matrix(1 0 0 -1 0 287.531)"><stop offset="0" stop-color="#fff"/><stop offset="1" stop-color="#c2dbff"/></linearGradient><path fill="url(#af)" d="M319.3 157.2c-7.4 0-14.4 1.7-19.5 4.7-4.8 2.8-7.4 6.4-7.4 10.2 0 3.8 2.8 7.4 7.5 10.2 5.2 3 12.1 4.7 19.5 4.7s14.4-1.7 19.5-4.7c4.8-2.8 7.4-6.4 7.4-10.2 0-3.8-2.8-7.4-7.5-10.2-5.1-3.1-12-4.7-19.5-4.7z"/><path fill="#95BDE5" d="M333.6 162.5l-2-1.2c-.4-.2-1.1-.2-1.4 0l-1.7 1c-2.3-1-4.6-1.3-6.7-1.2-2.2.1-4.1.6-5.6 1.6-1.7 1-2.5 1.9-2.5 3 0 1 .5 2 1.6 3.2.1.1.4.5.8 1 1 1.1 1.6 1.9 1.8 2.5.2.6.1 1.1-.6 1.4-1.4.8-3.2.7-5.2-.4-1.2-.7-2.2-1.4-2.9-2.4-.4-.5-.7-1-1-1.4l-.4-.4c-.6-.4-1.4-.4-2 0l-2.4 1.3c-.4.2-.5.5-.2.7.8 1.2 2.2 2.4 4 3.6l-1.9 1.1c-.4.2-.4.6 0 .8l2 1.2c.4.2 1.1.2 1.4 0l2-1.2c2.2.8 4.3 1.2 6.5 1.1 2.2-.1 4.1-.7 5.8-1.7 1.2-.7 1.9-1.4 2.2-2.2.2-.7.2-1.4-.1-2.3-.4-.7-1.1-1.6-1.9-2.5-.7-.8-1.3-1.4-1.6-1.8-.4-.4-.5-.8-.5-1.2s.2-.7.8-1.1c.7-.4 1.4-.6 2.4-.5 1 .1 1.8.5 2.8 1 1.1.6 1.8 1.3 2.4 2.2.2.4.5.7.6 1.1l.4.4c.6.4 1.4.4 2 0l2.4-1.4c.4-.2.5-.5.2-.7-.4-.5-.7-1-1.1-1.3-.5-.5-1.1-1.1-1.9-1.6l1.6-1c.3.1.4-.4-.1-.7m12.8 3.8z"/><path fill="#95BDE5" d="M345.2 161.5c-1.3-2.5-3.8-4.9-7.3-7-3.8-2.3-8.6-3.7-13.5-4.4l-1.7-1h-10.4l-1.7.8c-5 .7-9.8 2.2-13.8 4.4-3.5 2-5.9 4.4-7.2 7.1l-1.2.7v6.7c.1 4.3 2.9 8.5 8.5 11.7 11.4 6.6 29.7 6.6 41 0 5.6-3.2 8.4-7.4 8.4-11.7v-6.7c0 .1-1.1-.6-1.1-.6z"/><linearGradient id="ag" gradientUnits="userSpaceOnUse" x1="288.496" y1="125.464" x2="346.525" y2="125.464" gradientTransform="matrix(1 0 0 -1 0 287.531)"><stop offset="0" stop-color="#fff"/><stop offset="1" stop-color="#c2dbff"/></linearGradient><path fill="url(#ag)" d="M337.9 150.2c-11.4-6.6-29.7-6.6-41 0s-11.3 17.3.1 23.7c11.4 6.6 29.7 6.6 41 0s11.3-17.1-.1-23.7"/><path fill="#95BDE5" d="M317.3 147.2c-7.4 0-14.4 1.7-19.5 4.7-4.8 2.8-7.4 6.4-7.4 10.2s2.8 7.4 7.5 10.2c5.2 3 12.1 4.7 19.5 4.7s14.4-1.7 19.5-4.7c4.8-2.8 7.4-6.4 7.4-10.2s-2.8-7.4-7.5-10.2c-5.1-3-12.1-4.7-19.5-4.7z"/><linearGradient id="ah" gradientUnits="userSpaceOnUse" x1="291.537" y1="124.146" x2="345.64" y2="124.146" gradientTransform="matrix(1 0 0 -1 0 287.531)"><stop offset="0" stop-color="#fff"/><stop offset="1" stop-color="#c2dbff"/></linearGradient><path fill="url(#ah)" d="M318.5 148.5c-7.4 0-14.4 1.7-19.5 4.7-4.8 2.8-7.4 6.4-7.4 10.2s2.8 7.4 7.5 10.2c5.2 3 12.1 4.7 19.5 4.7s14.4-1.7 19.5-4.7c4.8-2.8 7.4-6.4 7.4-10.2s-2.8-7.4-7.5-10.2c-5.2-3-12.2-4.7-19.5-4.7z"/><path fill="#95BDE5" d="M332.8 153.9l-2-1.2c-.4-.2-1.1-.2-1.4 0l-1.7 1c-2.3-1-4.6-1.3-6.7-1.2s-4.1.6-5.6 1.6c-1.7 1-2.5 1.9-2.5 3 0 1 .5 2 1.6 3.2.1.1.4.5.8 1 1 1.1 1.6 1.9 1.8 2.5.2.6.1 1.1-.6 1.4-1.4.8-3.2.7-5.2-.4-1.2-.7-2.2-1.4-2.9-2.4-.4-.5-.7-1-1-1.4l-.4-.4c-.6-.4-1.4-.4-2 0l-2.4 1.3c-.4.2-.5.5-.2.7.8 1.2 2.2 2.4 4 3.6l-1.9 1.1c-.4.2-.4.6 0 .8l2 1.2c.4.2 1.1.2 1.4 0l2-1.2c2.2.8 4.3 1.2 6.5 1.1s4.1-.7 5.8-1.7c1.2-.7 1.9-1.4 2.2-2.2.2-.7.2-1.4-.1-2.3-.4-.7-1.1-1.6-1.9-2.5-.7-.8-1.3-1.4-1.6-1.8-.4-.4-.5-.8-.5-1.2 0-.4.2-.7.8-1.1.7-.4 1.4-.6 2.4-.5 1 .1 1.8.5 2.8 1 1.1.6 1.8 1.3 2.4 2.2.2.4.5.7.6 1.1l.4.4c.6.4 1.4.4 2 0l2.4-1.4c.4-.2.5-.5.2-.7-.4-.5-.7-1-1.1-1.3-.5-.5-1.1-1.1-1.9-1.6l1.6-1c.2-.1.2-.4-.1-.7m12.3 3.7z"/><path fill="#95BDE5" d="M343.8 152.8c-1.3-2.5-3.8-4.9-7.3-7-3.8-2.3-8.6-3.7-13.5-4.4l-1.7-1h-10.4l-1.7.8c-5 .7-9.8 2.2-13.8 4.4-3.5 2-5.9 4.4-7.2 7.1l-1.2.7v6.7c.1 4.3 2.9 8.5 8.5 11.7 11.4 6.6 29.7 6.6 41 0 5.6-3.2 8.4-7.4 8.4-11.7v-6.7c0 .2-1.1-.6-1.1-.6z"/><linearGradient id="ai" gradientUnits="userSpaceOnUse" x1="287.091" y1="134.092" x2="345.121" y2="134.092" gradientTransform="matrix(1 0 0 -1 0 287.531)"><stop offset="0" stop-color="#fff"/><stop offset="1" stop-color="#c2dbff"/></linearGradient><path fill="url(#ai)" d="M336.6 141.6c-11.4-6.6-29.7-6.6-41 0s-11.3 17.3.1 23.7c11.4 6.6 29.7 6.6 41 0s11.3-17.3-.1-23.7"/><path fill="#95BDE5" d="M316 138.6c-7.4 0-14.4 1.7-19.5 4.7-4.8 2.8-7.4 6.4-7.4 10.2 0 3.8 2.8 7.4 7.5 10.2 5.2 3 12.1 4.7 19.5 4.7s14.4-1.7 19.5-4.7c4.8-2.8 7.4-6.4 7.4-10.2 0-3.8-2.8-7.4-7.5-10.2-5.1-3-12.1-4.7-19.5-4.7z"/><linearGradient id="aj" gradientUnits="userSpaceOnUse" x1="290.099" y1="132.774" x2="344.202" y2="132.774" gradientTransform="matrix(1 0 0 -1 0 287.531)"><stop offset="0" stop-color="#fff"/><stop offset="1" stop-color="#c2dbff"/></linearGradient><path fill="url(#aj)" d="M317.1 139.9c-7.4 0-14.4 1.7-19.5 4.7-4.8 2.8-7.4 6.4-7.4 10.2s2.8 7.4 7.5 10.2c5.2 3 12.1 4.7 19.5 4.7s14.4-1.7 19.5-4.7c4.8-2.8 7.4-6.4 7.4-10.2s-2.8-7.4-7.5-10.2c-5.2-3.1-12.1-4.7-19.5-4.7z"/><path fill="#95BDE5" d="M331.4 145.3l-2-1.2c-.4-.2-1.1-.2-1.4 0l-1.7 1c-2.3-1-4.6-1.3-6.7-1.2s-4.1.6-5.6 1.6c-1.7 1-2.5 1.9-2.5 3 0 1 .5 2 1.6 3.2.1.1.4.5.8 1 1 1.1 1.6 1.9 1.8 2.5.2.6.1 1.1-.6 1.4-1.4.8-3.2.7-5.2-.4-1.2-.7-2.2-1.4-2.9-2.4-.4-.5-.7-1-1-1.4l-.4-.4c-.6-.4-1.4-.4-2 0l-2.4 1.3c-.4.2-.5.5-.2.7.8 1.2 2.2 2.4 4 3.6l-1.9 1.1c-.4.2-.4.6 0 .8l2 1.2c.4.2 1.1.2 1.4 0l2-1.2c2.2.8 4.3 1.2 6.5 1.1 2.2-.1 4.1-.7 5.8-1.7 1.2-.7 1.9-1.4 2.2-2.2.2-.7.2-1.4-.1-2.3-.4-.7-1.1-1.6-1.9-2.5-.7-.8-1.3-1.4-1.6-1.8-.4-.4-.5-.8-.5-1.2s.2-.7.8-1.1c.7-.4 1.4-.6 2.4-.5 1 .1 1.8.5 2.8 1 1.1.6 1.8 1.3 2.4 2.2.2.4.5.7.6 1.1l.4.4c.6.4 1.4.4 2 0l2.4-1.4c.4-.2.5-.5.2-.7-.4-.5-.7-1-1.1-1.3-.5-.5-1.1-1.1-1.9-1.6l1.6-1c.3-.1.3-.5-.1-.7m17.4 4.1z"/><path fill="#95BDE5" d="M347.6 144.6c-1.3-2.5-3.8-4.9-7.3-7-3.8-2.3-8.6-3.7-13.5-4.4l-1.7-1h-10.4l-1.7.8c-5 .7-9.8 2.2-13.8 4.4-3.5 2-5.9 4.4-7.2 7.1l-1.2.7v6.7c.1 4.3 2.9 8.5 8.5 11.7 11.4 6.6 29.7 6.6 41 0 5.6-3.2 8.4-7.4 8.4-11.7v-6.7l-1.1-.6z"/><linearGradient id="ak" gradientUnits="userSpaceOnUse" x1="290.819" y1="142.361" x2="348.849" y2="142.361" gradientTransform="matrix(1 0 0 -1 0 287.531)"><stop offset="0" stop-color="#fff"/><stop offset="1" stop-color="#c2dbff"/></linearGradient><path fill="url(#ak)" d="M340.3 133.3c-11.4-6.6-29.7-6.6-41 0s-11.3 17.3.1 23.7c11.4 6.6 29.7 6.6 41 0s11.3-17.2-.1-23.7"/><path fill="#95BDE5" d="M319.7 130.3c-7.4 0-14.4 1.7-19.5 4.7-4.8 2.8-7.4 6.4-7.4 10.2 0 3.8 2.8 7.4 7.5 10.2 5.2 3 12.1 4.7 19.5 4.7s14.4-1.7 19.5-4.7c4.8-2.8 7.4-6.4 7.4-10.2 0-3.8-2.8-7.4-7.5-10.2-5.1-3-12.1-4.7-19.5-4.7z"/><linearGradient id="al" gradientUnits="userSpaceOnUse" x1="293.873" y1="141.042" x2="347.976" y2="141.042" gradientTransform="matrix(1 0 0 -1 0 287.531)"><stop offset="0" stop-color="#fff"/><stop offset="1" stop-color="#c2dbff"/></linearGradient><path fill="url(#al)" d="M320.8 131.6c-7.4 0-14.4 1.7-19.5 4.7-4.8 2.8-7.4 6.4-7.4 10.2s2.8 7.4 7.5 10.2c5.2 3 12.1 4.7 19.5 4.7s14.4-1.7 19.5-4.7c4.8-2.8 7.4-6.4 7.4-10.2s-2.8-7.4-7.5-10.2c-5.1-3.1-12.1-4.7-19.5-4.7z"/><path fill="#95BDE5" d="M335.2 137l-2-1.2c-.4-.2-1.1-.2-1.4 0l-1.7 1c-2.3-1-4.6-1.3-6.7-1.2s-4.1.6-5.6 1.6c-1.7 1-2.5 1.9-2.5 3 0 1 .5 2 1.6 3.2.1.1.4.5.8 1 1 1.1 1.6 1.9 1.8 2.5.2.6.1 1.1-.6 1.4-1.4.8-3.2.7-5.2-.4-1.2-.7-2.2-1.4-2.9-2.4-.4-.5-.7-1-1-1.4l-.4-.4c-.6-.4-1.4-.4-2 0L305 145c-.4.2-.5.5-.2.7.8 1.2 2.2 2.4 4 3.6l-1.9 1.1c-.4.2-.4.6 0 .8l2 1.2c.4.2 1.1.2 1.4 0l2-1.2c2.2.8 4.3 1.2 6.5 1.1s4.1-.7 5.8-1.7c1.2-.7 1.9-1.4 2.2-2.2s.2-1.4-.1-2.3c-.4-.7-1.1-1.6-1.9-2.5-.7-.8-1.3-1.4-1.6-1.8-.4-.4-.5-.8-.5-1.2 0-.4.2-.7.8-1.1.7-.4 1.4-.6 2.4-.5 1 .1 1.8.5 2.8 1 1.1.6 1.8 1.3 2.4 2.2.2.4.5.7.6 1.1l.4.4c.6.4 1.4.4 2 0l2.4-1.4c.4-.2.5-.5.2-.7-.4-.5-.7-1-1.1-1.3-.5-.5-1.1-1.1-1.9-1.6l1.6-1c.2-.1.2-.4-.1-.7m10.6 3.7z"/><path fill="#95BDE5" d="M344.5 135.9c-1.3-2.5-3.8-4.9-7.3-7-3.8-2.3-8.6-3.7-13.5-4.4l-1.7-1h-10.4l-1.7.8c-5 .7-9.8 2.2-13.8 4.4-3.5 2-5.9 4.4-7.2 7.1l-1.2.7v6.7c.1 4.3 2.9 8.5 8.5 11.7 11.4 6.6 29.7 6.6 41 0 5.6-3.2 8.4-7.4 8.4-11.7v-6.7l-1.1-.6z"/><linearGradient id="am" gradientUnits="userSpaceOnUse" x1="287.777" y1="150.989" x2="345.791" y2="150.989" gradientTransform="matrix(1 0 0 -1 0 287.531)"><stop offset="0" stop-color="#fff"/><stop offset="1" stop-color="#c2dbff"/></linearGradient><path fill="url(#am)" d="M337.2 124.7c-11.4-6.6-29.7-6.6-41 0s-11.3 17.3.1 23.7c11.4 6.6 29.7 6.6 41 0 11.4-6.6 11.3-17.2-.1-23.7"/><path fill="#95BDE5" d="M316.7 121.7c-7.4 0-14.4 1.7-19.5 4.7-4.8 2.8-7.4 6.4-7.4 10.2s2.8 7.4 7.5 10.2c5.2 3 12.1 4.7 19.5 4.7s14.4-1.7 19.5-4.7c4.8-2.8 7.4-6.4 7.4-10.2s-2.8-7.4-7.5-10.2c-5.1-3-12.1-4.7-19.5-4.7z"/><linearGradient id="an" gradientUnits="userSpaceOnUse" x1="290.818" y1="149.67" x2="344.921" y2="149.67" gradientTransform="matrix(1 0 0 -1 0 287.531)"><stop offset="0" stop-color="#fff"/><stop offset="1" stop-color="#c2dbff"/></linearGradient><path fill="url(#an)" d="M317.8 123c-7.4 0-14.4 1.7-19.5 4.7-4.8 2.8-7.4 6.4-7.4 10.2 0 3.8 2.8 7.4 7.5 10.2 5.2 3 12.1 4.7 19.5 4.7s14.4-1.7 19.5-4.7c4.8-2.8 7.4-6.4 7.4-10.2 0-3.8-2.8-7.4-7.5-10.2-5.1-3.1-12.1-4.7-19.5-4.7z"/><path fill="#95BDE5" d="M332 128.4l-2-1.2c-.4-.2-1.1-.2-1.4 0l-1.7 1c-2.3-1-4.6-1.3-6.7-1.2-2.2.1-4.1.6-5.6 1.6-1.7 1-2.5 1.9-2.5 3 0 1 .5 2 1.6 3.2.1.1.4.5.8 1 1 1.1 1.6 1.9 1.8 2.5.2.6.1 1.1-.6 1.4-1.4.8-3.2.7-5.2-.4-1.2-.7-2.2-1.4-2.9-2.4-.4-.5-.7-1-1-1.4l-.4-.4c-.6-.4-1.4-.4-2 0l-2.4 1.3c-.4.2-.5.5-.2.7.8 1.2 2.2 2.4 4 3.6l-1.9 1.1c-.4.2-.4.6 0 .8l2 1.2c.4.2 1.1.2 1.4 0l2-1.2c2.2.8 4.3 1.2 6.5 1.1 2.2-.1 4.1-.7 5.8-1.7 1.2-.7 1.9-1.4 2.2-2.2s.2-1.4-.1-2.3c-.4-.7-1.1-1.6-1.9-2.5-.7-.8-1.3-1.4-1.6-1.8-.4-.4-.5-.8-.5-1.2s.2-.7.8-1.1c.7-.4 1.4-.6 2.4-.5 1 .1 1.8.5 2.8 1 1.1.6 1.8 1.3 2.4 2.2.2.4.5.7.6 1.1l.4.4c.6.4 1.4.4 2 0l2.4-1.4c.4-.2.5-.5.2-.7-.4-.5-.7-1-1.1-1.3-.5-.5-1.1-1.1-1.9-1.6l1.6-1c.4-.1.4-.5-.1-.7m12.9 3.7z"/><path fill="#95BDE5" d="M343.7 127.3c-1.3-2.5-3.8-4.9-7.3-7-3.8-2.3-8.6-3.7-13.5-4.4l-1.7-1h-10.4l-1.7.8c-5 .7-9.8 2.2-13.8 4.4-3.5 2-5.9 4.4-7.2 7.1l-1.2.7v6.7c.1 4.3 2.9 8.5 8.5 11.7 11.4 6.6 29.7 6.6 41 0 5.6-3.2 8.4-7.4 8.4-11.7V128c-.1 0-1.1-.7-1.1-.7z"/><linearGradient id="ao" gradientUnits="userSpaceOnUse" x1="286.938" y1="159.617" x2="344.968" y2="159.617" gradientTransform="matrix(1 0 0 -1 0 287.531)"><stop offset="0" stop-color="#fff"/><stop offset="1" stop-color="#c2dbff"/></linearGradient><path fill="url(#ao)" d="M336.4 116.1c-11.4-6.6-29.7-6.6-41 0s-11.3 17.3.1 23.7c11.4 6.6 29.7 6.6 41 0 11.2-6.6 11.2-17.3-.1-23.7"/><path fill="#95BDE5" d="M315.9 113.1c-7.4 0-14.4 1.7-19.5 4.7-4.8 2.8-7.4 6.4-7.4 10.2 0 3.8 2.8 7.4 7.5 10.2 5.2 3 12.1 4.7 19.5 4.7s14.4-1.7 19.5-4.7c4.8-2.8 7.4-6.4 7.4-10.2s-2.8-7.4-7.5-10.2c-5.3-3.1-12.2-4.7-19.5-4.7z"/><linearGradient id="ap" gradientUnits="userSpaceOnUse" x1="289.979" y1="158.418" x2="344.082" y2="158.418" gradientTransform="matrix(1 0 0 -1 0 287.531)"><stop offset="0" stop-color="#fff"/><stop offset="1" stop-color="#c2dbff"/></linearGradient><path fill="url(#ap)" d="M316.9 114.3c-7.4 0-14.4 1.7-19.5 4.7-4.8 2.8-7.4 6.4-7.4 10.2 0 3.8 2.8 7.4 7.5 10.2 5.2 3 12.1 4.7 19.5 4.7s14.4-1.7 19.5-4.7c4.8-2.8 7.4-6.4 7.4-10.2 0-3.8-2.8-7.4-7.5-10.2-5.2-3.1-12-4.7-19.5-4.7z"/><linearGradient id="aq" gradientUnits="userSpaceOnUse" x1="226.035" y1="153.138" x2="263.265" y2="153.138" gradientTransform="matrix(1 0 0 -1 0 287.531)"><stop offset="0" stop-color="#ef8135"/><stop offset=".074" stop-color="#ee7c3c"/><stop offset=".618" stop-color="#e5576a"/><stop offset=".891" stop-color="#e1497c"/></linearGradient><path fill="url(#aq)" d="M255.7 136.7c.5-1.4.2-2.9-1.2-4.2-2.2-2-4.9-2.4-7.7-1.4-.1 0-.2.1-.4.1l6 5.6-4.3.1-5-4.7-1.6.6 4.7 4.3-4.3.2-3.6-3.4-.4.1c-3 1.1-3.8 2.5-1.6 4.7 1.6 1.4 4 2.4 6.5 3l-7 2.4c-3-1.4-4.4-2.4-6.5-4.4-5.9-5.4-4.6-8.4 3-11.1l-2-2 4.3-.1 1.3 1.2 1.7-.5-2.3-2.2 4.2-.2 1.2 1.1.5-.2c7.1-2.5 13.4-.4 18.3 4.3 2.4 2.2 3.5 3.8 3.7 6.4l-7.5.3z"/><linearGradient id="ar" gradientUnits="userSpaceOnUse" x1="299.296" y1="159.069" x2="336.525" y2="159.069" gradientTransform="matrix(1 0 0 -1 0 287.531)"><stop offset="0" stop-color="#ef8135"/><stop offset=".074" stop-color="#ee7c3c"/><stop offset=".618" stop-color="#e5576a"/><stop offset=".891" stop-color="#e1497c"/></linearGradient><path fill="url(#ar)" d="M328.9 130.9c.5-1.4.2-2.9-1.2-4.2-2.2-2-4.9-2.4-7.7-1.4-.1 0-.2.1-.4.1l6 5.6-4.3.1-5-4.7-1.6.6 4.7 4.3-4.3.1-3.6-3.4-.4.1c-3 1.1-3.8 2.5-1.6 4.7 1.6 1.4 4 2.4 6.5 3l-7 2.4c-3-1.4-4.4-2.4-6.5-4.4-5.9-5.4-4.6-8.4 3-11.1l-2.3-2.2 4.3-.1 1.3 1.2 1.7-.5-2.3-2.2 4.2-.2 1.2 1.1.5-.2c7.1-2.5 13.4-.4 18.3 4.3 2.4 2.2 3.5 3.8 3.7 6.4.3 0-7.2.6-7.2.6z"/><linearGradient id="as" gradientUnits="userSpaceOnUse" x1="279.555" y1="214.312" x2="316.783" y2="214.312" gradientTransform="matrix(1 0 0 -1 0 287.531)"><stop offset="0" stop-color="#ef8135"/><stop offset=".074" stop-color="#ee7c3c"/><stop offset=".618" stop-color="#e5576a"/><stop offset=".891" stop-color="#e1497c"/></linearGradient><path fill="url(#as)" d="M309.3 75.7c.5-1.4.2-2.9-1.2-4.2-2.2-2-4.9-2.4-7.7-1.4-.1 0-.2.1-.4.1l6 5.6-4.3.1-5-4.7-1.6.6 4.7 4.3-4.3.1-3.6-3.4-.4.1c-3 1.1-3.8 2.5-1.6 4.7 1.6 1.4 4 2.4 6.5 3l-7 2.4c-3-1.4-4.4-2.4-6.5-4.4-5.9-5.4-4.6-8.4 3-11.1l-2.3-2.2 4.3-.1 1.3 1.2 1.7-.5-2.3-2.2 4.2-.2 1.2 1.1.5-.2c7.1-2.5 13.4-.4 18.3 4.3 2.4 2.2 3.5 3.8 3.7 6.4.2 0-7.2.6-7.2.6z"/><path fill="#FFF" d="M235.2 63.3c-.6 2.3-.9 4.7-1.2 7-.2 1.7-.3 3.4-.4 5.1l-1.6-1.6c-1.1-1-2.2-2-3.4-2.9.8 1.3 1.7 2.5 2.7 3.6.5.6 1 1.2 1.5 1.7h-5.1c-2.4.1-4.7.3-7.1.6 2.3.6 4.7.9 7 1.2 1.7.2 3.4.3 5.1.4l-1.6 1.6c-1 1.1-2 2.2-2.9 3.4 1.3-.8 2.5-1.7 3.6-2.7.6-.5 1.2-1 1.7-1.5v5.1c.1 2.4.3 4.7.6 7.1.6-2.3.9-4.7 1.2-7 .2-1.7.3-3.4.4-5.1l1.6 1.6c1.1 1 2.2 2 3.4 2.9-.8-1.3-1.7-2.5-2.7-3.6-.5-.6-1-1.2-1.5-1.7h5.1c2.4-.1 4.7-.3 7.1-.6-2.3-.6-4.7-.9-7-1.2-1.7-.2-3.4-.3-5.1-.4l1.6-1.6c1-1.1 2-2.2 2.9-3.4-1.3.8-2.5 1.7-3.6 2.7-.6.5-1.2 1-1.7 1.5v-5.1c0-2.4-.2-4.7-.6-7.1m-14.4-20.6c-.3 1-.4 2.1-.5 3.1-.1.8-.1 1.5-.2 2.3l-.7-.7c-.5-.5-1-.9-1.5-1.3.4.6.8 1.1 1.2 1.6.2.3.4.5.6.8h-2.3c-1.1 0-2.1.1-3.2.3 1 .3 2.1.4 3.1.5.8.1 1.5.1 2.3.2l-.7.7c-.5.5-.9 1-1.3 1.5.6-.4 1.1-.8 1.6-1.2.3-.2.5-.4.8-.6v2.3c0 1.1.1 2.1.3 3.2.3-1 .4-2.1.5-3.1.1-.8.1-1.5.2-2.3l.7.7c.5.5 1 .9 1.5 1.3-.4-.6-.8-1.1-1.2-1.6-.2-.3-.4-.5-.6-.8h2.3c1.1 0 2.1-.1 3.2-.3-1-.3-2.1-.4-3.1-.5-.8-.1-1.5-.1-2.3-.2l.7-.7c.5-.5.9-1 1.3-1.5-.6.4-1.1.8-1.6 1.2-.3.2-.5.4-.8.6v-2.3c-.1-1.1-.1-2.1-.3-3.2"/></svg>