<svg xmlns="http://www.w3.org/2000/svg" viewBox="0 0 573.7 499.4"><linearGradient id="a" gradientUnits="userSpaceOnUse" x1="183.629" y1="336.585" x2="206.737" y2="335.955"><stop offset="0" stop-color="#91beff"/><stop offset="1" stop-color="#c2dbff"/></linearGradient><path fill="url(#a)" d="M45.2 364v-13.6l18.5-1.6 274.3-100c10.5-3.8 21.9-3.8 32.4 0l120 43.7 12.9-1.1v13.7c-.1 4.1-2.5 8.2-7.1 9.8L209.8 419.5c-10.5 3.8-21.9 3.8-32.4 0L52.5 374c-4.7-1.7-7.1-5.8-7.3-10z"/><path fill="#FFF" d="M52.5 362.8l124.9 45.5c10.5 3.8 21.9 3.8 32.4 0l286.4-104.5c9.5-3.5 9.5-16.9 0-20.4l-125.8-45.8c-10.5-3.8-21.9-3.8-32.4 0L52.5 341.8c-9.8 3.5-9.8 17.4 0 21z"/><path fill="#C2DBFF" d="M52.5 362.2l124.9 45.5c10.5 3.8 21.9 3.8 32.4 0l286.4-104.5c9.5-3.5 9.5-16.9 0-20.4L370.3 237c-10.5-3.8-21.9-3.8-32.4 0L52.5 341.1c-9.8 3.6-9.8 17.5 0 21.1z"/><linearGradient id="b" gradientUnits="userSpaceOnUse" x1="50.468" y1="321.349" x2="498.167" y2="321.349"><stop offset=".185" stop-color="#ef8135"/><stop offset=".463" stop-color="#e2497c"/><stop offset=".765" stop-color="#7a33d1"/><stop offset="1" stop-color="#7991ee"/></linearGradient><path fill="url(#b)" d="M55.1 357.3l123.8 45.1c9.6 3.5 20.2 3.5 29.9 0l284.9-103.8c6.1-2.2 6.1-10.9 0-13.1l-123.8-45.1c-9.6-3.5-20.2-3.5-29.9 0L55.1 344.2c-6.2 2.2-6.2 10.8 0 13.1z"/><path fill="#2848BD" d="M533 367.9c2.9 3.3 2.1 7.9 3.4 10.3 2.6 4.9 3 6.7 5.3 7.7 8.6 4 15 11.5 19.6 12.8 7.6 2.3 11.2-.8 12.1-1.7.9-.9.5-6.8-5.5-10.3-6.5-3.8-13.3-4.7-19.1-11.6-4.1-4.9-7.1-11.2-7.1-11.2l-8.7 4z"/><path fill="#FFF" d="M529.8 367.1c2.9 3.3 3.5 5.1 4.8 7.5 2.6 4.9 3 6.7 5.3 7.7 8.6 4 15 11.5 19.6 12.8 7.6 2.3 11.2-.8 12.1-1.7.9-.9 1.3-3.9-4.7-7.3-6.5-3.8-14.1-7.7-19.9-14.6-4.1-4.9-7.1-11.2-7.1-11.2l-10.1 6.8z"/><path fill="#2848BD" d="M503.7 324.8c9.9 11.4 25.3 41.5 26.1 42.3 3.5 3.7 13.8-2 11.6-5.2-11.9-17.3-24.4-77.8-36.6-83.7-10.8-5.2-81.1-32.9-81.1-32.9l-11 25.4 78.9 23.8c0-.1 3 19.8 12.1 30.3z"/><path fill="#0D146E" d="M424.5 264.4c5.7-7.5 3.9-6.8 5.7-4.4 5.9 7.7 21.3 13.8 25.1 14.9 19.6 5.5 32.4 6.7 35.7 10.1 4.6 4.6 8.9 10.6 12 19.7s18.1 39.5 22.7 47.8c4.5 8.3 7.2 15.4 7.2 15.4l-3.2-.8-37.2-57.4s-78.6-31.2-68-45.3z"/><path fill="#2848BD" d="M374.1 264.1c.4 20.6 19.6 33 35.9 34.5 21.2 2 59.6 11.8 63.1 14.7 3.6 2.8.3-.7-3.1 19.9-2.5 15.7 12.4 37.1 7.4 61.7-1 4.8 14 4.8 14 2.3 0-14.2 3.3-70.6 6.3-84.6 3.1-14.7-6-18.1-17-23.9-6.3-3.3-56.2-24.3-53.8-27.8 6.1-9.2-3.2-15.6-3.2-15.6l-43-1.4c0-.1-6.7 14.9-6.6 20.2z"/><path fill="#0D146E" d="M420.2 253.9c-14.5 10.3-27.2 7.4-28.5 16.1-1.3 8.8 7.1 13.9 21 17 13.9 3.1 56.7 11.3 66 13.6 9.3 2.3 9.6 11.9 6.5 15-3.1 3.1.5 26.9.5 32.9s-3.4 41.3-8.4 46.3c-1.3 1.3-.9-26.6-7.6-56.2-2.6-11.2 7.4-24.5 3.3-25.4-16.4-3.8-56.7-13.9-72-16.3-23-3.6-32.3-24.8-26.5-37.1.4-.8 6.1-16 6.1-16l40-1.9-.4 12z"/><path fill="#2848BD" d="M509.4 419.9c11.4-.8 11.7-8.2 3.6-9.9-6.4-1.4-20.1-2.3-21.7-9.6-.2.1-8.7 2.5-14-2.3-1.6 7.2-6.4 16.6.6 18 17.3 3.5 21.3 4.5 31.5 3.8z"/><path fill="#FFF" d="M509.4 416.8c11.4-.8 11.1-6 3-7.7-6.4-1.4-19.4-4.5-21-11.8-.2.1-8.7 2.5-14-2.3-1.6 7.2-6.4 16.6.6 18 17.2 3.5 21.2 4.5 31.4 3.8z"/><path fill="#F9329C" d="M398.3 107.6c-14.7-3.2-9.1 14.1-19.8 17.9-10.8 3.8-17.4 1-18.7 12.3-1.3 11.3-6.1 4.5-17.1 10.2-6.4 3.3-6.9 10.2-3.1 13.1 3.8 2.9 8.6-6.5 20.2 1.9 12.6 9.1 22.9 5.7 23.6-6 .6-11.7.2-13.6 6.8-13.8 6.6-.3 9.6-10.6 10.6-18.7s6.7-8.3 6.7-8.3 2.1-6.1-9.2-8.6z"/><linearGradient id="c" gradientUnits="userSpaceOnUse" x1="340.633" y1="138.891" x2="406.866" y2="138.891"><stop offset="0" stop-color="#b02788"/><stop offset="1" stop-color="#e72e98"/></linearGradient><path fill="url(#c)" d="M395.9 112.2c-.8 3.9-2.2 13.7-9 17-6.8 3.2-14.2 1.5-15.7 10.8s-6.6 10.9-16.7 9.6c-8.7-1.1-18.1 5.1-11.9 11.9 3.5-1 8.4-4.8 17.1 1.6 12.6 9.1 22.9 5.7 23.6-6 .6-11.7.2-13.6 6.8-13.8 6.6-.3 9.6-10.6 10.6-18.7.8-6.5 4.6-7.9 6.1-8.2 0-.6 0-1-.1-1.4-2.2-6.6-10-6.7-10.8-2.8z"/><linearGradient id="d" gradientUnits="userSpaceOnUse" x1="411.267" y1="144.289" x2="451.48" y2="144.289"><stop offset="0" stop-color="#b02788"/><stop offset="1" stop-color="#e72e98"/></linearGradient><path fill="url(#d)" d="M444.7 178.2c11.6-9.6-4.3-13.8-.2-23.9s10.3-13.6 3.1-20.2c-7.2-6.6.7-6.9 3.6-18 1.7-6.5-3.9-12.2-8.7-8.9-3.8 2.7-8.6 7.4-22 12.1-14.5 5.1-9.6 16.9-1.6 23.1 7.9 6.3 9.5 6.9 5.6 12-4 5.1 1.5 12.5 6.7 17.3 5.1 4.8 1.7 9.2 1.7 9.2s2.9 4.6 11.8-2.7z"/><path fill="#95BDE5" d="M435.7 170.1c7.3 9.6 23.1 37 24.1 36.3 1-.7 27.3-12 27.1-14.4-.3-2.4-.3-4 0-6.1.3-2.1-.4-5.4 1.2-5.8 1.6-.4 1.6.4 1.8 2.4.2 2 1.7 4.2 4.1 3.1 1.4-.7 3.1-2 5.4-2.5 1.5-.3 3.3-.1 5.5 1 5.3 2.8 3.2 4 1.5 3.6-1.7-.4-3-2.2-4.9-1.8-1.9.5 1.3 1.7 2.2 3.9.9 2.3-2.5 8.9-6 9.6-3.6.6-5-1-8.2 1.4-2.7 2-22.1 16.6-26.3 19.6-4.3 3-5.2 4.1-7 3.4-4.9-1.7-17.5-21.6-17.5-21.6l-3-32.1z"/><path fill="#F9329C" d="M439.8 162.4c.3-2.9.7-6.1 1.1-8.9 1.1-7.4-6.6-25.1-3-42.9-3.5 2.5-8.6 5.6-17.4 8.7-14.5 5.1-9.6 16.9-1.6 23.1 7.9 6.3 9.5 6.9 5.6 12-4 5.1 1.5 12.5 6.7 17.3.4.4.8.8 1.1 1.2 4.1-1.9 7-5.8 7.5-10.5z"/><path fill="#95BDE5" d="M493.2 187.6c-5 .8-2.8 6.9-4.6 7.5-1.8.7-29.8 15.2-31.8 15.9-2 .7-5.4-6.6-11.4-17l-7.4.7.7 7.5s12.6 19.8 17.5 21.6c1.8.6 2.7-.4 7-3.4s23.6-17.6 26.3-19.6c.9-.7 1.7-1 2.4-1.2 0 0-3.5-9.2 6.4-12.3 1.8-.7-2.9-.1-5.1.3z"/><path fill="#F9329C" d="M422.4 162.9c-3.4 2.1-1 7 .7 16 2 10.2 8.1 20.7 8.1 20.7s7.4 2.3 20.2-6.5c0 0-5.6-12.9-9.5-19.7-2.4-4.2-15.4-13.1-19.5-10.5z"/><path fill="#001F99" d="M411.1 127.3c-13-6.7-8.1-16.2-2.6-14.6 6.5 1.8 8.4 4.9 8.4 4.9l-5.8 9.7zM429 120.7c3.3-14.3 13.6-11.9 13.5-6.1-.1 6.7-2.7 9.4-2.7 9.4l-10.8-3.3z"/><path fill="#F9329C" d="M410.2 155.2c.4-5.7-5.4-18.7-4-26.5 1.4-7.8 12.7-19.3 21.1-16 12.6 4.9 4.9 9.6 4.9 9.6l-22 32.9zM398.8 152.9c9.8 5.2 28.7 17.2 28.7 17.2l4-4.6c8.2 4.6 8.2 8.6 10.4 18.5 8 35.2-2.9 26.8-13.3 60.7-3.6 11.7-55.4 20.9-48.2-1.6 3.5-11 7.2-30.9 3.5-43.9-3.7-12.9-8.1-17.6 9.2-33.6l5.7-12.7z"/><path fill="#AD236D" d="M390.2 180.2c4.7-8.3 17.6-2.5 21.1-19l-.4-1.4c-4.3-2.6-8.7-5.2-12.1-6.9l-5.7 12.8c-17.3 16-12.9 20.7-9.2 33.6 3.7 12.9 1.7-10.8 6.3-19.1z"/><path fill="#95BDE5" d="M416.3 147.5c0-5.6-.9-5.2-.9-5.2-.5-1.6.2-4.3-2.7-5.1-5.7-1.6-4.8 12.6-2 12.4 3.6-.3-4.2 10.7-4.2 10.7-1.2 4.1 21 9.8 21 9.8-.8-5.9 2.3-12.5 3.1-16.7.7-3.2-9.1-6.3-14.3-5.9z"/><path fill="#AD236D" d="M427.5 170.1c-.7-5.5.5-7.2.6-7.6.1-.5 4.4.8 3.2 3.8-1.3 3-3.8 3.8-3.8 3.8z"/><path fill="#95BDE5" d="M417.6 131.4c-2.5 12.5-5.4 17-1.6 23.2 5.5 9.1 7.4 9.4 12.1 10.2 4.6.8 11.6-10.9 12.8-13.3 1.9-3.8.4-4.2 1.4-8.3.6-2.6 1.3-2.7 2.1-7.9 2-13.8-23.8-19.2-26.8-3.9z"/><path fill="#649DCC" d="M453 135.5L437.9 120l-14.1 4.1-8.6 17.6c-3.3 2.3-3.1 8-3.1 14.8 0 3.3-3 6.2-1.6 7.8 1.6 1.8 15.1 6.4 13.7 4.9-12.1-12.8 4.7-2.6 3.8-4.3-3.6-7-4-10-3.5-11.9 3.5-12.4-1.6-13.6 9.4-17.2 3.4-1.1 8.7 7.9 12.2 7.8 2.8-.1 6.9-8.1 6.9-8.1z"/><path fill="#F9329C" d="M415.2 141.6c2.6 1.9 6.1 1.1 8.5-2.5 2.4-3.7 6.3-14.5 13.9-9.3 1.4 1 5-3.2 3.1 6.1-1.2 5.8.4 11.9 3.2 17.7 2.9 5.8 4.3 6.6 2.5 13.9 4-6.8 8.5-9.1 6-18.9-2-7.8 5.7-17 2.9-23.9-2.8-6.9-15.4-14.5-24.7-8.8 0 0-5.2-2.2-10.1 3.2-8.1 9.2-5.3 22.5-5.3 22.5z"/><linearGradient id="e" gradientUnits="userSpaceOnUse" x1="415.232" y1="143.379" x2="449.113" y2="143.379"><stop offset="0" stop-color="#b02788"/><stop offset="1" stop-color="#e72e98"/></linearGradient><path fill="url(#e)" d="M415.2 141.6c6.8-6.5 12.5-16.1 18-15.5 5.5.6-2.2-6.1-.8-6.8 3.9-2 16.7 7 13.2 19.7-2.2 8 8 20.1.8 28.7.4-1.3 1.2-9.4-5.5-17.9-5-6.2-2-11.2-.7-17.2.9-4.1-.5-1.3-2.7-2.8-7-4.7-13.2 20.7-20.7 13.5l-1.6-1.7z"/><path fill="#6D1648" d="M410.4 153.9c-4.2-1.5-11-2.2-11.6-1-1.5 3.3 4.2 7.7 11.7 11.3 0 0-3.4-2.3-2.7-4.3.7-1.6 1.5-2.8 2.6-6z"/><path fill="#AD236D" d="M402.8 193c6.2 7.4 2.5 26.5 9.3 27.5 9.6 1.3 31.9-11.6 27.6-5.5-16.6 23-19.4 8.3-32 35.2-6.1 13.1-31.9 6.1-28-3.7 3-7.4 6.6-34.5 5.4-40.8-1.2-6.4 17.7-12.7 17.7-12.7z"/><path fill="#95BDE5" d="M394 170.1c-13.9 6.2-15.7 15.2-11.8 31.6 2.4 10.2 10.3 24.8 15.9 35.3 3.4 6.3 4.2 11.5 7.4 12.1 20.6 3.5 41.7-6.8 71.4-14.7 0 0 .2-3.6-2.5-7.2 0 0-32.9 5.4-45.7 6.6l-14 1.2s-8.5-18.4-12.3-31.6c-3.9-13.5-8.4-33.3-8.4-33.3z"/><path fill="#95BDE5" d="M411.3 241.1c-3.1-2.6-14.5-19.5-20.5-35.5l-6.8 2.3c3.4 9.4 9.5 20.6 14 29 3.4 6.3 4.2 11.5 7.4 12.1 13.8 2.4 27.8-1.5 44.4-6.6-13.5 1.4-35.4 1.3-38.5-1.3z"/><path fill="#F9329C" d="M395.3 168.7c-13.2 4.3-14.9 10.2-14.9 19.3 0 10.4 3.9 21.9 3.9 21.9s6.8 3.7 21.1-2.5c0 0-5.8-25.1-5.6-25.5.1-.4-4.5-13.2-4.5-13.2z"/><path fill="#AD236D" d="M397.5 175.1c-1.1-3.2-2.3-6.3-2.3-6.3-13.2 4.3-14.9 10.2-14.9 19.4 0 10.4 3.9 21.9 3.9 21.9s2.4 1.3 7.4 1c-1.3-7.3-4.6-30.1 5.9-36z"/><path fill="#2848BD" d="M491.2 210.8l12.1-4.4c.5-.2 1 0 1.3.3.3.3 2.1 1.8 1.8 2.2L491 232.5c-.8 1.5-2.1 2.6-3.7 3.3l-11.8 6.8c-.4.2-1.5-1.3-1.7-1.5-.4-.4-.7-.9-.4-1.5l13.6-25.1c.9-1.8 2.4-3 4.2-3.7z"/><path fill="#172182" d="M492.7 212.4l12.1-4.4c1-.4 1.9.7 1.4 1.6L492.5 234c-.8 1.5-2.1 2.6-3.7 3.3l-12.5 5.3c-1 .4-2-.6-1.5-1.6l13.6-25.1c1.1-1.6 2.5-2.9 4.3-3.5z"/><path fill="#95BDE5" d="M474 227.3c4.4-2.6 4.9-4.5 6.9-6.4 2.1-1.9 2.3-.1 1.2 2.7-1.1 2.8 6.3 2.9 8.3 1.6 2-1.3 1.8-3.4 2.6-3.8.7-.4 2 0 1.2 2.2 0 0 .5-.2.8.5s.1 2.9-1.1 4.8c-1.3 2-1.1 5-2.8 5.8s-9.9.7-14.4-.5c-4.6-1.2-2.7-6.9-2.7-6.9z"/><path fill="#C2DBFF" d="M115.2 197.1c-9.1 19.7-15.5 49.1-15.8 54.1-.3 5-1.9 4.8-1.3 7 .6 2.2-6.9.8-4 6.7 1.9 3.8 18.2 20.4 25 13.6 6.9-6.8 3.8-22 5-25.5 1.2-3.5.6-6.4.6-6.4s-4.8-16-4.4-32.8c.5-18.2-3.9-19.3-5.1-16.7z"/><path fill="#2848BD" d="M58.3 489c-7.3 4.1-8.8.5-15.5 1.4-6.7.9-14.1 2.7-18.3 2.4-7-.5-19-7.9-21.2-12.8l-1.7 1.4-1.6 1.8c1.6 11.4 17.3 16.1 29.3 16.2h1.9s25.3-2.6 24.8-3.2c-.5-.8 2.3-7.2 2.3-7.2z"/><path fill="#FFF" d="M61.3 470.8c-1.1 4.4-1.9 20.4-5 21.7-3.1 1.3-21 3.6-29.6 3.6-8.6 0-19.6-5.6-21.2-8.5-2.8-5.1-5.1-9 2-8.3 10.4 1 26.9-4.6 30.8-12.1 3.8-7.5 23 3.6 23 3.6z"/><path fill="#2848BD" d="M93.4 443.8c-4.1 5.9-10.6 6.3-15.2 9.3-4.6 3-15.1 8.9-18.5 8.8s-5.5-3.4-9.8-3.3c-4.3.1-5.7 3.4-5.7 3.4l17 8.8 13.4-6.5s18.8-9.8 22.2-13.5c.6-.5-3.4-7-3.4-7z"/><path fill="#FFF" d="M93.1 434.7c.5 4.1 3.4 11.2 1.6 13.3-1.9 2.1-21.9 12.2-28.2 15-6.3 2.9-17.2.1-19-1.2-1.8-1.4 2.8-5.6 9.5-10.2s14.5-9.7 15.1-17.3c.7-7.7 21 .4 21 .4z"/><path fill="#91BEFF" d="M90 363c-4.9 3.8 7.7 3.7 3.9 58.4-.5 7.8-.8 10.6-.8 13.3 0 2.6-18.4 1-17.7-2.9 3.5-18.9-10.5-54.5-14.4-73.6-1.9-9.3-6.9-13.8 21-33.2 26.7-18.6 53.6-27.6 57.2-30.4 19.5-14.8 76.5-6.6 47.5 24.3-19.8 21.2-74.1 26.5-96.7 44.1z"/><path fill="#C2DBFF" d="M95.3 375.9c-5.9 1.9 3.3 24.9-34 94.9-4.4 8.2-21.6-3.3-19.9-6.6 9.6-19.7 18.2-70.3 19.9-94.5.8-11.8 7.2-17.9 36.1-35.7 36.6-22.5 46.4-33.1 50.8-34.5 16-5 41-11.1 44.4 2.5 1.5 6.2.5 29.4-11.2 36-25.4 14.4-58.8 29-86.1 37.9z"/><path fill="#95BDE5" d="M134 260.4c12.1.4 25.9.6 33 1 0 0 2.1-13.8 4.1-23.8 1.8-9.1-3-18.1 1.6-24.4 4.7-6.3 7.1-12.2 13.6-5s.8 23.3-3 34.3c-3.7 11-4.3 22.1-6.8 27.7-3.2 7.2-5.3 8.4-12.9 6.5-8.8-2.2-22.5-2.2-33.6-7.7-3.7-1.8-.8-8.7 4-8.6z"/><path fill="#001F99" d="M161.5 178.9c-4.8-2.5-15.9-.6-15.9-.6l-18.5 7.9-10.8 25.8 47.1-23.2-1.9-9.9z"/><path fill="#95BDE5" d="M131.1 184.2c1.1 11 9.8 10.9 9.8 10.9l1.1 8.2s-16.6 3.5-16.6 3c-.1-.5 2.3-11.6 2.3-11.6l3.4-10.5z"/><path fill="#95BDE5" d="M136.4 168.7c4-2.9 5.5-3.9 5.5-3.9.3-1.6-.2-5 2.7-6.2 5.7-2.4 6.8 11.2 3.9 11.4-3.8.3 3.8 15.4 12.4 19.7 5.3 2.7-19.1 11.3-25.3 10.2-10.8-1.9.1-18.1-7.2-23.2-2.7-1.9 2.6-7.6 8-8z"/><path fill="#95BDE5" d="M134.4 162.9c4.8 6.1 12.2 6.2 9.3 12.7-4.3 9.5-6.3 10-11.1 11.5-4.6 1.5-12.8-6.5-14.1-8.8-2.5-4.5-2.6-7.3-3.7-9.4-1.2-2.3-2.4-2.2-3.3-7.2 0 0 4.3-1.3 7.9-5 2.2-2.3 5-2.4 8.3-.9 3.4 1.6 3.3 2.8 6.7 7.1z"/><path fill="#649DCC" d="M113.6 157.1c1.2-5.3 23.3-5.2 33 1.3 4.6 3.1.8 4.6.9 13.3 0 4.1 4.7 10.4 9.8 15.7 3.9 4-17.2-3.7-15-2.7l-9.6 2.5c-.4.2-.1 2.7 1.2-6.9.5-4-5.5-3.5-3.9-14.9.6-5-20 8.1-16.4-8.3z"/><linearGradient id="f" gradientUnits="userSpaceOnUse" x1="1485.34" y1="1033.082" x2="1554.967" y2="990.318" gradientTransform="scale(-1 1) rotate(8.534 6445.09 -10491.78)"><stop offset=".037" stop-color="#0f1782"/><stop offset=".123" stop-color="#0f1782"/><stop offset="1" stop-color="#0168ff"/></linearGradient><path fill="url(#f)" d="M106.8 164.5c-11.5-8.7-2.2-17.5 5.6-25.6 3.1-3.2 16.5-12.7 23.6-3.8 4.4-1.3 9.1.3 11.6 10.2 6.2 24.1-4.8 7-4.4 17.5l.8 8.2-8.2-7.3c-1.7-1.5-3.8-2.6-6.1-3.1l-4.2-.9-18.7 4.8z"/><path fill="#0D146E" d="M135.5 157.8c-4.4-5-8.2-5.2-7.4-12.4.2-1.5 2.6-6.2 6-9.5.1-1.7-1.7-2.9-5.2-.3-4.4 3.3-4.3 6.8-7.9 14.2-3.3 6.7-5 5.5-12.1 10.1-2.1 1.4-2 4.6-2 4.6l8.9.1c1.5-.1 3.1-.3 4.5-.6l9.2-1.9c2.4-.5 4.5-2 5.9-4l.1-.3z"/><path fill="#97B6E6" d="M124.8 316.1c19.2 2.2 22.5 10.5 25 24.2 0 0 12.6-5.1 23.9-10.9 11.3-5.8 19.5-17.7 19.5-17.7l-40.8-15.4-27.6 19.8z"/><path fill="#C2DBFF" d="M193.2 310.4c-39.3 17.4-69.2-7.2-69.2-7.2l-9.4-86.1 16.1-27.8s-1.2 14.9 24 4.9c25.2-9.9 38.5 116.2 38.5 116.2z"/><path fill="#95ABC4" d="M131.3 201.4s-1.2 20.6.5 32c1.7 11.4 1.6 29.7 4 42.7 2.4 13-11.7 27.2-11.7 27.2s-.6-.2.7-7.5c3.1-16.7-3.4-91.2-3.4-91.2s3.8-18.3 6.5-17.2c3.4 1.4 3.4 14 3.4 14z"/><path fill="#2848BD" d="M144 194.8c13.7-6.4 17.5-15.9 17.5-15.9s7.1 7.4 9.5 9.3c2.4 2 3.2 2.8 11.4 5.8 7.6 2.8 13.3 35.9 13 44.2-1.3 45.7-1.9 41.2 2 69.4 1.8 12.6-38.4 20.1-38.4 20.1-16.4-163.6-8.9-112.4-9.6-118.8-.5-4.4-5.4-14.1-5.4-14.1z"/><path fill="#0D146E" d="M111.2 304c13.3-9.1 10.8-4.1 10.2-17.5-.8-20.5-9.3-43.1-9.1-63.2.1-8.7-1.9-27.5 5.9-30.8 8.3-3.6 8.9-6.3 8.9-6.3s-1.7 2.7-.9 5.2c0 0 3.2 13.2 3.1 14.7-2.1 27.6 0 49.3-.2 83.5-.1 8.7-10.5 24.4-17.9 26.5V304zM174.9 216.9c-12 9.9-11.1 40-12 44.3-.9 4.2-2.5 5.6-2.2 8 .4 2.5 1.3 4.2-1.4 4.4-3.5.2-.9 4.3-6.1 3.8-5.2-.5-7.2-7.9-7.9-.6-.6 6.4 13.5 51 13.5 51 5.2-1.6 16.6-4.3 16.6-4.3-3.3-16 1.7-38 1.7-40.5 0-5.7 5.3-16.7 5.3-16.7s3.5-15.1 6.1-29.6c3.1-15.8-12-21.1-13.6-19.8z"/><path fill="#0D146E" d="M149.3 192.1c18 10.2 26.5 10.9 26.5 10.9.4 8.2-16.9 112.5-16.9 116.3-.1 3.8-10-29.8-10-29.8s-1.5-70.9-1.4-73c.1-2.1-.8-7.6-1.3-8.8-.5-1.2-2.9-12.8-2.9-12.8l6-2.8z"/><path fill="#FFF" d="M174.9 199.4c-21.6 11.2-18.7 49.7-20.1 54.7-1.4 5-5.8 7.4-5 10.4.9 3-.1 5.7-5 5.8-6.6 0-.4 25.2 14.5 25.2s14.5-5.2 14.2-9.1c-.5-6.8 5-8.8 3.2-12.3-1.7-3.5-.8-5.2 2.1-7.7 2.9-2.4 2.3-6.1 2.3-6.1s5.3-17.9 8.9-35.2c4.1-18.7-12.3-27.2-15.1-25.7z"/><path fill="#C2DBFF" d="M171 201.9c9.5 3.5 10.7 11.8 8.2 23.2-2.5 11.4-2.6 35.2-7.4 35.8-4.8.6-7.2.8-5.3 4.6 1.8 3.9 5.8 7.2 5.8 8.5s-9.3-3-11.1-1.7c-1.8 1.3 13.4 10.7 12 15.3-2.7 8.8-13.7 4.8-13.7 4.8l-17.2-8.4 3.4-4.7c-3.4-7.9 13.9-1.8 7.2-14.8l6.7-6.8c4.1-4.8-2-5.8-2.6-8.3l1.8-15.7c.2-2.1.6-4.2 1.2-6.2l3.7-13.3 3.8-8.7 3.5-3.6z"/><path fill="#95BDE5" d="M97.8 263.8c6.4-2.3 17 2.2 19.1 8.5 2.1 6.2-24.8 20.3-24.8 20.3l-12.5-2.9 18.2-25.9z"/><path fill="#649DCC" d="M97.8 263.8c6.4-2.3 17 2.2 19.1 8.5 2.1 6.2-24.8 20.3-24.8 20.3l-12.5-2.9 18.2-25.9z"/><path fill="#2848BD" d="M86.3 273.1l-12.1-4.4c-.5-.2-1 0-1.3.3-.3.3-2.1 1.8-1.8 2.2l15.3 23.5c.8 1.5 2.1 2.6 3.7 3.3l11.8 6.8c.4.2 1.5-1.3 1.7-1.5.4-.4.7-.9.4-1.5l-13.6-25.1c-.9-1.7-2.4-3-4.1-3.6z"/><path fill="#172182" d="M84.7 274.6l-12.1-4.4c-1-.4-1.9.7-1.4 1.6l13.6 24.4c.8 1.5 2.1 2.6 3.7 3.3l12.5 5.3c1 .4 2-.6 1.5-1.6l-13.6-25.1c-1-1.6-2.4-2.8-4.2-3.5z"/><path fill="#95BDE5" d="M153.4 278.3c6.4-.7 15.5 9.3 17.1 13.1 1.6 3.8-30.3 4.9-37.7 4.9-13.3 0-23.6-3-34.1 3.9-3.3 2.2-8.8 3.4-15.2-.7-6.4-4-5.1-9.5-5.9-12.1-.8-2.6 4.8-1.3 7.5-.3 0 0 5.5 1.6 7.6-.5 2.1-2.1-3.1-3-3.8-5.4-.7-2.4.4-3 6.6.7 6.2 3.7 7.9 4.1 15.4 2.6 7.6-1.5 37.7-5.7 42.5-6.2z"/><path fill="#649DCC" d="M154.4 282.6c6.4-.7 14.4 5.1 16.1 8.8 1.6 3.8-30.3 4.9-37.7 4.9-13.3 0-23.6-3-34.1 3.9-3.3 2.2-8.8 3.4-15.2-.7-6.4-4-5.1-9.5-5.9-12.1-.8-2.6 5.7 4.1 8.5 5.1 0 0 14.4-.6 16.5-2.7 2.1-2.1 6.1-.8 13.7-2.3 7.5-1.4 33.3-4.4 38.1-4.9z"/><linearGradient id="g" gradientUnits="userSpaceOnUse" x1="608.117" y1="-24.041" x2="567.285" y2="65.006" gradientTransform="rotate(-6.142 2934.744 2974.68)"><stop offset="0" stop-color="#fff"/><stop offset="1" stop-color="#f2f2f1"/></linearGradient><path fill="url(#g)" d="M289.1 246.7c-4.7-2.1-10.8-.3-18.5 5.3-15.8 11.6-22.7 27.3-20.5 47.3 1.1 9.6 4 15.6 8.6 18 .1.1.3.1.4.2l40.8 18.2c-.1-.1-.3-.1-.4-.2-4.7-2.3-7.6-8.3-8.6-18-2.2-19.9 4.6-35.7 20.5-47.3 7.7-5.6 13.8-7.3 18.5-5.3l-40.8-18.2z"/><linearGradient id="h" gradientUnits="userSpaceOnUse" x1="290.606" y1="300.272" x2="339.073" y2="300.272"><stop offset="0" stop-color="#ef8135"/><stop offset=".074" stop-color="#ee7c3c"/><stop offset=".618" stop-color="#e5576a"/><stop offset=".891" stop-color="#e1497c"/></linearGradient><path fill="url(#h)" d="M311.5 270.2c7.8-5.7 14-7.4 18.7-5.2 4.7 2.2 7.5 8.1 8.6 17.6 1 9.4-.2 18.3-3.8 26.8-3.5 8.5-9.2 15.6-16.8 21.2-7.7 5.6-13.8 7.2-18.5 4.8-4.7-2.3-7.6-8.3-8.6-18-2.3-19.9 4.5-35.7 20.4-47.2z"/><path fill="#DDD" d="M293.4 262.6l-40.9-18.2-1.4-12.6 40.9 18.1z"/><path fill="#FFF" d="M287.9 50.4l40.8 18.2c5.3 2.4 8.5 8.4 9.6 18.2 1.1 9.5.1 19.1-2.9 28.6-3 9.6-10.2 25.3-21.6 47.1-9.7 18.2-16.1 33.7-19.3 46.4-3.3 12.8-4.1 26.5-2.5 41l-40.8-18.2c-1.6-14.5-.8-28.2 2.5-41 3.2-12.8 9.7-28.3 19.3-46.4 11.5-21.8 18.7-37.5 21.6-47.1 3-9.6 3.9-19.1 2.9-28.6-1.1-9.7-4.3-15.8-9.6-18.2zM313.6 2.5l40.8 18.2c-1.3-.6-2.7-1.1-4.2-1.5L309.4 1c1.4.4 2.8.9 4.2 1.5z"/><path fill="#DDD" d="M247.3 135.6l-40.8-18.1-17.4-25 40.8 18.2z"/><path fill="#FFF" d="M229.9 110.7l-40.8-18.2C209.3 61.6 232 37 257 18.8 278.1 3.3 295.6-2.6 309.4 1l40.8 18.2c-13.8-3.6-31.3 2.3-52.4 17.7-25 18.3-47.7 42.9-67.9 73.8z"/><linearGradient id="i" gradientUnits="userSpaceOnUse" x1="229.904" y1="140.394" x2="375.265" y2="140.394"><stop offset="0" stop-color="#ef8135"/><stop offset=".074" stop-color="#ee7c3c"/><stop offset=".618" stop-color="#e5576a"/><stop offset=".891" stop-color="#e1497c"/></linearGradient><path fill="url(#i)" d="M350.2 19.2c13.8 3.6 21.9 16.6 24.4 38.9 1.1 9.9.9 19.6-.6 29-1.5 9.5-4.3 19.4-8.3 29.9-4 10.5-11.3 25.7-21.8 45.5-9 17-14.8 29.9-17.5 38.7-2.7 8.8-3.4 18.6-2.3 29.3l1 8.9-31.7 23.2-1.4-12.7c-1.6-14.5-.8-28.2 2.5-41 3.2-12.8 9.7-28.3 19.3-46.4 11.5-21.8 18.7-37.5 21.6-47.1 3-9.6 3.9-19.1 2.9-28.6-1.2-11.1-5.2-17.4-11.9-18.9s-15.7 1.8-27 10.1c-10.2 7.5-19.5 16.2-27.9 26.1-8.3 9.9-16.4 20.5-24.1 31.5L230 110.7c20.2-30.9 42.9-55.5 67.9-73.8 21-15.4 38.5-21.3 52.3-17.7z"/><path fill="#457DA3" d="M144.4 165.1c.1-4.1 2.4-4.4 3.4-3 1 1.4 2 8.1-1.6 6.9-1.5-.6-1.8-2.9-1.8-3.9zM414.3 142.8c-1.9-3.6-2.5-3.3-3.2-1.7-.8 1.6-1.1 7.7 2.5 6.9 4.4-1 .7-5.2.7-5.2z"/></svg>