<svg xmlns="http://www.w3.org/2000/svg" viewBox="0 0 509.3 596.1"><linearGradient id="a" gradientUnits="userSpaceOnUse" x1="311.773" y1="539.013" x2="72.253" y2="-432.518"><stop offset="0" stop-color="#fff"/><stop offset="1" stop-color="#c2dbff"/></linearGradient><path fill="url(#a)" d="M306.1 1.3l-139 50.6c-11 4-20 16.2-20 27.2v375.4c0 11 8.9 16.7 20 12.7l139-50.6c11-4 20-16.2 20-27.2V14c0-11-8.9-16.7-20-12.7z"/><linearGradient id="b" gradientUnits="userSpaceOnUse" x1="147.151" y1="89.962" x2="326.116" y2="89.962"><stop offset="0" stop-color="#ef8135"/><stop offset=".074" stop-color="#ee7c3c"/><stop offset=".618" stop-color="#e5576a"/><stop offset=".891" stop-color="#e1497c"/></linearGradient><path fill="url(#b)" d="M326.1 114.8l-179 65.1V79.1c0-11 8.9-23.2 20-27.2l139-50.6c11-4 20 1.7 20 12.7v100.8z"/><path fill="#FFF" d="M306 171.5L178.2 218c-5.3 1.9-9.6-.8-9.6-6.1V101.4c0-5.3 4.3-11.2 9.6-13.2L306 41.6c5.3-1.9 9.6.8 9.6 6.1v110.5c.1 5.4-4.2 11.3-9.6 13.3z"/><ellipse transform="rotate(-61.308 247.229 126.254)" fill="#E3EEFA" cx="247.2" cy="126.3" rx="29.5" ry="20.4"/><path fill="#83A9FF" d="M254.4 116.9c0-4.4-3.1-6.8-6.9-5.5s-6.9 6.1-6.9 10.5 3.1 8.6 6.9 7.2c3.8-1.4 6.9-7.8 6.9-12.2zM260.1 134.8c0-3.7-5.6-4.7-12.6-2.1-6.9 2.5-12.6 7.6-12.6 11.3 0 3.7 5.6 6.1 12.6 3.6 6.9-2.6 12.6-9.1 12.6-12.8z"/><path fill="#95BDE5" d="M254.7 403.5c0 .2-107.5 39-107.5 39v12.9c0 9.2 9.2 15.7 17.9 12.5l140.1-51c12.6-4.6 21-16.6 21-30v-9.3l-71.5 25.9z"/><path fill="#FFF" d="M274.3 271.1l30.1-11c3.5-1.3 6.4-5.2 6.4-8.8v-36.7c0-3.5-2.9-5.4-6.4-4.1l-30.1 11c-3.5 1.3-6.4 5.2-6.4 8.8V267c0 3.6 2.8 5.4 6.4 4.1zM179.3 415.1l30.1-11c3.5-1.3 6.4-5.2 6.4-8.8v-36.7c0-3.5-2.9-5.4-6.4-4.1l-30.1 11c-3.5 1.3-6.4 5.2-6.4 8.8V411c0 3.6 2.9 5.4 6.4 4.1z"/><path fill="#83A9FF" d="M305.4 264.4l-30.1 11c-3.5 1.3-6.4 5.2-6.4 8.8V321c0 3.5 2.9 5.4 6.4 4.1l30.1-11c3.5-1.3 6.4-5.2 6.4-8.8v-36.7c0-3.7-2.9-5.5-6.4-4.2z"/><path fill="#95BDE5" d="M161.9 317.8l-30.1 11c-3.5 1.3-6.4 5.2-6.4 8.8v36.7c0 3.5 2.9 5.4 6.4 4.1l30.1-11c3.5-1.3 6.4-5.2 6.4-8.8v-36.7c.1-3.5-2.8-5.4-6.4-4.1z"/><path fill="#83A9FF" d="M113.2 284.2l-30.1 11c-3.5 1.3-6.4 5.2-6.4 8.8v36.7c0 3.5 2.9 5.4 6.4 4.1l30.1-11c3.5-1.3 6.4-5.2 6.4-8.8v-36.7c0-3.6-2.9-5.4-6.4-4.1z"/><path fill="#95BDE5" d="M305.4 319.4l-77.5 28.4c-3.5 1.3-6.4 5.2-6.4 8.8v36.7c0 3.5 2.9 5.4 6.4 4.1l77.5-28.4c3.5-1.3 6.4-5.2 6.4-8.8v-36.7c0-3.6-2.9-5.4-6.4-4.1z"/><path fill="#FFF" d="M260.4 351.1v20.5c0 1 1.2 1.4 1.9.7l12.1-14.1c.6-.8.4-1.9-.5-2.4l-11.8-5.8c-.8-.4-1.7.2-1.7 1.1z"/><path fill="#94BDE5" d="M363.8 262.8c-2.5 18.5-35.5 54.1-37.1 55-1.6.9-17.2.2-23-1.3-5.8-1.5-21.7-2.6-26.5-2.6s-9.2.9-11.6.2c-2.4-.6-6.5-6.3-6.7-7.8-.2-1.5-2.9-6.9-.1-8.4 2.2-1.2 5.7-.4 5.7-.4s-.4-1.2-2.8-2.8c-1.6-1.1-.5-3.9 5.7-.9 4.7 2.3 5.5 6 6.6 7.7 1.1 1.8 3 2.6 7.4 3.3 4.3.7 26.5-.4 38.5.5 12.1.9 21.6-49.3 27.6-53.7l16.3 11.2z"/><path fill="#2848BD" d="M375.6 564.2s.7 3.9.9 5.9c.2 2.1 7.5 1.5 7.8.1.4-1.8 2.2-6.4 2.1-8.3 0-1.9-10.8 2.3-10.8 2.3z"/><path fill="#2848BD" d="M369.6 543.1c0 9.1-7.5 13.4-11.6 14.9s-8.8 0-12.7 3.9c-3.9 3.9 8.4 7.8 13.8 7.8s11.2-4.9 17.9-3.7c6.7 1.1 10.1-1.5 9.3-6-.7-4.5-4.3-15.7-4.3-15.7l-12.4-1.2z"/><path fill="#B7CFF5" d="M266 307.8l-48.8 18.6c-3.1 1.2-6.9.4-8.7-1.8l-33.4-41c-1.8-2.2-.7-4.8 2.3-6l48.8-18.6c3.1-1.2 6.9-.4 8.7 1.8l33.4 41c1.8 2.2.8 4.9-2.3 6z"/><path fill="#FFF" d="M266.5 307.4L217.6 326c-3.1 1.2-6.9.4-8.7-1.8l-33.4-41c-1.8-2.2-.7-4.8 2.3-6l48.8-18.6c3.1-1.2 6.9-.4 8.7 1.8l33.4 41c1.9 2.2.8 4.9-2.2 6z"/><path fill="#E3EEFA" d="M216.9 323.1l-36.7-43.6.2-.1 49.9-18.3 36.7 43.6-.2.1-49.9 18.3zm-36.1-43.4l36.2 43 49.4-18.1-36.2-43-49.4 18.1z"/><path fill="#E3EEFA" d="M205.2 270.542l.306-.257 36.36 43.372-.306.257zM193.04 274.948l.307-.257 36.36 43.373-.307.257zM217.995 266.03l.306-.258 36.366 43.373-.307.257z"/><path fill="#E3EEFA" d="M207.56 311.532l49.751-18.274.138.375-49.75 18.275zM198.652 301.064l49.751-18.275.138.376-49.75 18.274zM189.757 290.575l49.751-18.274.138.375-49.751 18.275z"/><ellipse transform="rotate(-68.845 219.38 308.333)" fill="#172182" cx="219.4" cy="308.3" rx="6.6" ry="9.5"/><path fill="#C2DBFF" d="M249.6 296.8c1 1.1.7 2.4-.6 2.9-1.3.5-3.1-.1-4.1-1.2-1-1.1-.7-2.4.6-2.9 1.3-.4 3.1.1 4.1 1.2zM244 309.2c1 1.1.7 2.4-.6 2.9-1.3.5-3.1-.1-4.1-1.2-1-1.1-.7-2.4.6-2.9 1.3-.4 3.1.1 4.1 1.2z"/><path fill="#F9329C" d="M201.2 284.7c1.9 2.3 1.4 5-1.2 5.9-2.6 1-6.3-.1-8.3-2.4-1.9-2.3-1.4-5 1.2-5.9 2.7-1 6.3.1 8.3 2.4zM241 270.2c1.9 2.3 1.4 5-1.2 5.9-2.6 1-6.3-.1-8.3-2.4-1.9-2.3-1.4-5 1.2-5.9 2.7-1 6.4.1 8.3 2.4z"/><ellipse transform="rotate(-68.845 222.291 287.163)" fill="#F9329C" cx="222.3" cy="287.2" rx="8.8" ry="12.7"/><path fill="#95BDE5" d="M354.9 373.5c-.4 9.8-1.2 17.4-1.1 24.9.4 40.1 6.5 45.4 7.3 54.7.9 11.1 3.8 25.3 3.8 27.1 0 1.8 5.4 52.6 4.7 62.9-.4 5.2 12.1 4 12.5 1.2 1.1-8.2 8.2-45.3 8.8-56.2.6-10.9-5.9-32.8-6.8-39.2-.8-6.3 6.1-33.8 10.8-39.4 12.1-14.2 20.4-22.9 17-40.7-3.4-17.8-57 4.7-57 4.7z"/><path fill="#6486A0" d="M354.9 373.5c-.4 9.8-1.2 17.4-1.1 24.9.4 40.1 6.5 45.4 7.3 54.7.9 11.1 3.8 25.3 3.8 27.1 0 1.8 5.4 52.6 4.7 62.9-.4 5.2 12.1 4 12.5 1.2 1.1-8.2 8.2-45.3 8.8-56.2.6-10.9-11.3-30.9-12.1-37.2-.8-6.3 11.4-35.8 16.2-41.4 12.1-14.2 20.4-22.9 17-40.7-3.5-17.8-57.1 4.7-57.1 4.7z"/><path fill="#94BDE5" d="M235.8 320.2c-7.4.5-10-1.4-13.3-1.9-3.3-.5-6.6-3.7-8.2-3.7-1.7 0-1.3 1.7 1.6 4.6 2.9 2.9-3.6 4.2-7 2.9-3.4-1.2-7.3-3.7-8.2-2.2-.9 1.6 1 5.2 3.8 9.3s4.8 6.9 9.3 6.1c4.5-.8 21.1-5.8 23.2-4.9 2 .7-1.2-10.2-1.2-10.2z"/><path fill="#6486A0" d="M204 320c5.3 5.3 10 7.7 15 5.9 5-1.8 18.3-4.8 18.3-4.8l.1 8.9-21.4 4.9c-3 1.3-7.6.5-9.4-1.8l-4.8-8.2-1.4-3.7c-.4-1.6.6-2.6 3.6-1.2z"/><path fill="#2848BD" d="M287.2 303.9c-9.1-.9-8.8 4.8-7.8 7.7 1 3 17 4.1 27.4 7 10.4 2.9 19.2 3.2 21.5.9 2.3-2.3 8.5-12.5 8.5-12.5l-8.8-16.4s-4.4 12.8-8.3 13.4c-4.8.7-32.5-.1-32.5-.1z"/><path fill="#173475" d="M284.3 308.5c4.7-.7 2.3-4.4 10.4-2.8 8.2 1.7 26.3 4.3 28.1 2.5 1.8-1.8 9.9-15.8 9.9-15.8l9.8 7.9-13.2 17.9c-2 3.8-8.2 2.4-10.5 2.8l-33.3-6.1-1.2-6.4z"/><path fill="#95BDE5" d="M320.7 259.8s1.1-.3 4-4.2c1.6-2.2-.3-11.3 0-15.9.2-4.5 8.8-9.4 11.2-6.1 2.3 3.3 9.2 15.2 12.6 15.3 3.4.2 5.5.5 7.9 10 2 8-7.1 12.9-12.8 7.9-5.7-5-16.8-7.5-21.8-7.5l-1.1.5z"/><path fill="#6486A0" d="M326.6 241.7c4.2 5.2 1.2 15.5-4.8 17.7-6.2 2.3 34.2 14.6 34.2 14.6l6.4-16.1s-12.8-1.2-18.4-4.1c-9.3-4.9-12.3-23.9-12.3-23.9l-6.4-.5-5.6 6.2 6.9 6.1z"/><path fill="#95BDE5" d="M323.7 228.1c1.3 2.2 3 5.5 1.3 8.3 3.5 3.3 4.3 8.8 4 9-5.3 2.9-6.6 3.4-8.7 3.7-4.4.6-8.3-12.6-8.9-15-.9-3.9.8-4.7.8-8.7 0-2.3-2.3-6.2-2.3-6.2 3-1.9 3.6-1.6 8.2 7 1.1 2.2 1.7-5 5.6 1.9z"/><path fill="#6486A0" d="M333.3 248.4c-10.5-1.7-20.2-7.8-13.9-15.8 1.4-1.8-7.3-7.2-9.6-13.4-1.9-5.1-.1-11-1.9-12.6l11.2-3.9c.8 0 51.3 51.6 14.2 45.7z"/><linearGradient id="c" gradientUnits="userSpaceOnUse" x1="-1447.567" y1="416.087" x2="-1673.608" y2="544.892" gradientTransform="matrix(-1 0 0 1 -1266.674 0)"><stop offset="0" stop-color="#f7fbff"/><stop offset=".854" stop-color="#b7cff5"/></linearGradient><path fill="url(#c)" d="M341 493.6l-.1 60.5 35-13.2v-60.5z"/><linearGradient id="d" gradientUnits="userSpaceOnUse" x1="-1650.473" y1="450.088" x2="-1521.029" y2="546.548" gradientTransform="matrix(-1 0 0 1 -1266.674 0)"><stop offset="0" stop-color="#f7fbff"/><stop offset=".854" stop-color="#c2dbff"/></linearGradient><path fill="url(#d)" d="M341 493.6l-.1 60.5-75.7-27.5.1-60.3z"/><path fill="#FFF" d="M340.9 493.6l35-13.2-75.7-27.3-35 13.2z"/><linearGradient id="e" gradientUnits="userSpaceOnUse" x1="324.596" y1="491.441" x2="315.56" y2="450.923"><stop offset="0" stop-color="#fff"/><stop offset="1" stop-color="#f7fbff"/></linearGradient><path fill="url(#e)" d="M340.9 493.6l35-13.2-75.7-27.3-35 13.2z"/><path fill="#C2DBFF" d="M354.2 488.6l9.4-3.4-13.8-5-9.4 3.4z"/><path fill="#91BEFF" d="M354.2 488.6l9.4-3.4v11.4l-9.4 3.4z"/><linearGradient id="f" gradientUnits="userSpaceOnUse" x1="-1437.773" y1="463.511" x2="-1676.441" y2="599.511" gradientTransform="matrix(-1 0 0 1 -1266.674 0)"><stop offset="0" stop-color="#f7fbff"/><stop offset=".854" stop-color="#b7cff5"/></linearGradient><path fill="url(#f)" d="M327.8 567v29.1l61.5-22.5v-29z"/><linearGradient id="g" gradientUnits="userSpaceOnUse" x1="-1590.108" y1="534.821" x2="-1477.345" y2="618.851" gradientTransform="matrix(-1 0 0 1 -1266.674 0)"><stop offset="0" stop-color="#f7fbff"/><stop offset=".854" stop-color="#c2dbff"/></linearGradient><path fill="url(#g)" d="M327.8 567v29.1l-90.2-32.9v-28.9z"/><path fill="#FFF" d="M327.8 567l61.5-22.4-90.2-32.7-61.5 22.4z"/><linearGradient id="h" gradientUnits="userSpaceOnUse" x1="318.454" y1="561.865" x2="307.247" y2="511.618"><stop offset="0" stop-color="#fff"/><stop offset="1" stop-color="#f7fbff"/></linearGradient><path fill="url(#h)" d="M327.8 567l61.5-22.4-90.2-32.7-61.5 22.4z"/><path fill="#C2DBFF" d="M353.1 557.8l14.8-5.4-21.7-7.8-14.7 5.4z"/><path fill="#91BEFF" d="M353.1 557.8l14.8-5.4v17.9l-14.8 5.4z"/><linearGradient id="i" gradientUnits="userSpaceOnUse" x1="439.599" y1="528.271" x2="113.222" y2="525.235"><stop offset="0" stop-color="#fff"/><stop offset="1" stop-color="#c2dbff"/></linearGradient><path fill="url(#i)" d="M253.8 534.5h13.7v4.9h38.3l35.2-12.2-15.5-5.6-20.6-7.4z"/><path fill="#91BEFF" d="M276.5 451.9h-.5v-11.1c0-4.1 2.4-7.7 6.2-9.3 1.3-.5 2.7-.4 3.9.4 1.2.8 1.8 2 1.8 3.4V448h-.5v-12.7c0-1.2-.6-2.3-1.6-3-1-.7-2.3-.8-3.4-.3-3.5 1.5-5.8 4.9-5.8 8.8v11.1z"/><linearGradient id="j" gradientUnits="userSpaceOnUse" x1="281.795" y1="487.37" x2="180.767" y2="460.209"><stop offset="0" stop-color="#f7fbff"/><stop offset=".854" stop-color="#b7cff5"/></linearGradient><path fill="url(#j)" d="M253.8 459.3v75.2l19.6-2.3 34.2-17.3v-75.2z"/><path fill="#B7CFF5" d="M321.3 444.7l-53.8 19.6.5-5.5-14.2.5 53.8-19.6-.9 4.6z"/><path fill="#91BEFF" d="M306.7 444.2v5.7l14.6-5.3z"/><linearGradient id="k" gradientUnits="userSpaceOnUse" x1="431.771" y1="577.051" x2="199.179" y2="433.169"><stop offset="0" stop-color="#f7fbff"/><stop offset=".854" stop-color="#b7cff5"/></linearGradient><path fill="url(#k)" d="M267.5 464.3v75.1l53.8-19.6v-75.1z"/><path fill="#91BEFF" d="M276.9 455.5c.4-.5.5-1.1.2-1.4-.3-.3-1-.2-1.4.3-.4.5-.5 1.1-.2 1.4.4.3 1 .2 1.4-.3zM288.3 451.6c.4-.5.5-1.1.2-1.4-.3-.3-1-.2-1.4.3-.4.5-.5 1.1-.2 1.4.4.3 1 .1 1.4-.3zM292 459.8c-.1 0-.3-.1-.3-.3v-13.6c0-4.1 2.4-7.7 6.2-9.3 1.3-.5 2.7-.4 3.9.4 1.2.8 1.8 2 1.8 3.4v15.3c0 .1-.1.3-.3.3-.1 0-.3-.1-.3-.3v-15.3c0-1.2-.6-2.3-1.6-3-1-.7-2.3-.8-3.4-.3-3.5 1.5-5.8 4.9-5.8 8.8v13.6c.1.2 0 .3-.2.3z"/><path fill="#B7CFF5" d="M362.4 509.8l-48.8-18.6c-3.1-1.2-6.9-.4-8.7 1.8l-33.4 41c-1.8 2.2-.7 4.8 2.3 6l48.8 18.6c3.1 1.2 6.9.4 8.7-1.8l33.4-41c1.8-2.1.7-4.8-2.3-6z"/><linearGradient id="l" gradientUnits="userSpaceOnUse" x1="270.966" y1="525.338" x2="365.993" y2="525.338"><stop offset="0" stop-color="#c0dbff"/><stop offset=".707" stop-color="#fff"/></linearGradient><path fill="url(#l)" d="M362.8 510.2L314 491.6c-3.1-1.2-6.9-.4-8.7 1.8l-33.4 41c-1.8 2.2-.7 4.8 2.3 6L323 559c3.1 1.2 6.9.4 8.7-1.8l33.4-41c1.8-2.1.7-4.8-2.3-6z"/><ellipse transform="rotate(-21.156 315.738 509.342)" fill="#6377F6" cx="315.7" cy="509.3" rx="9.5" ry="6.6"/><path fill="#C2DBFF" d="M345.9 520.8c1-1.1.7-2.4-.6-2.9-1.3-.5-3.1.1-4.1 1.2-1 1.1-.7 2.4.6 2.9 1.4.5 3.2 0 4.1-1.2zM340.3 508.4c1-1.1.7-2.4-.6-2.9-1.3-.5-3.1.1-4.1 1.2-1 1.1-.7 2.4.6 2.9 1.3.5 3.1 0 4.1-1.2z"/><path fill="#F6DFD2" d="M297.5 533c1.9-2.3 1.4-5-1.2-5.9-2.6-1-6.3.1-8.3 2.4-1.9 2.3-1.4 5 1.2 5.9 2.7 1 6.4-.1 8.3-2.4z"/><path fill="#F9329C" d="M337.3 547.5c1.9-2.3 1.4-5-1.2-5.9-2.6-1-6.3.1-8.3 2.4-1.9 2.3-1.4 5 1.2 5.9 2.7 1 6.4-.1 8.3-2.4z"/><ellipse transform="rotate(-21.156 318.63 530.5)" fill="#9FDEEB" cx="318.6" cy="530.5" rx="12.7" ry="8.8"/><path fill="#6377F6" d="M356.9 96.8c3.5 0 6.4-3.1 6.4-6.8 0-3.8-2.9-6.8-6.4-6.8-3.5 0-6.4 3.1-6.4 6.8.1 3.7 2.9 6.8 6.4 6.8z"/><ellipse fill="#F6DFD2" cx="419.9" cy="165" rx="14.9" ry="16"/><path fill="#9FDEEB" d="M502.9 316.8c3.5 0 6.4-3.1 6.4-6.8 0-3.8-2.9-6.8-6.4-6.8-3.5 0-6.4 3.1-6.4 6.8.1 3.7 2.9 6.8 6.4 6.8z"/><ellipse fill="#FFF" cx="14.9" cy="280" rx="14.9" ry="16"/><path fill="#95BDE5" d="M396.6 360c19.7 22.9-32.5 96.4-24.9 97.3 7.6.8 12.1-1.8 31.6 6.4 19.5 8.2 23.8 12.5 28.6 14.4-5.3 2.8-5.3 10.8-5.3 10.8-3.5-1.5-43.3-8.5-56.8-11s-21.5-4.1-26.2-8.8c-9.6-9.6 10.1-70.7 10.1-70.7l42.9-38.4z"/><path fill="#6486A0" d="M397.5 356c16 37.9-11.3 67.5-14.6 72.3s-3.8 4.2-8 6.1c-4.3 1.9-11.7 2.9-12.8 4.4s-6.8 22.5-5.6 24.4c2.1 3.2 10.6 11.9 23.2 14.4 12.5 2.5 50.9 7.5 50.9 7.5l-4 3.7-70-11.4c-10.1-2.2-19.7-4.1-15.3-25.5l3.2-22.9 53-73z"/><path fill="#2848BD" d="M424.9 488.3c7.9 2.8 14.4 16.1 14.1 25.1-.1 3.5-3.3 14.7 1.5 13.4 6.8-1.9 11.5-17.4 10.5-25.9-.7-5.4-.6-3.9 2.8-8.1 3.6-4.4 3.1-7.6-4-9-6.9-1.3-19.5-6.3-19.5-6.3l-7.1 3.7 1.7 7.1z"/><path fill="#2848BD" d="M450 496.4c1.2.9 3.8 1.3 5.6 2.2 1.9.9 6-4.4 5-5.4-1.3-1.3-5-6.3-6.7-7.2-1.7-.9-7.5 8-3.9 10.4z"/><path fill="#172182" d="M460.8 493.5c-1.9-3.3-6.6 3.9-5.7 4.7 2 2.1 6.5-3.2 5.7-4.7z"/><path fill="#2848BD" d="M235.8 320.2c4.4-.4 26.6-8.6 38.5-10.9 11.9-2.2 15.6-14 20.3-20.1 4.7-6.1 5.5-17.6 13.8-22.9s12.9-6.5 17.2-8.8c3.1-1.6 14.6.1 21.3-1.6 1.8-.5.9-6.7 2.4-6.7 7 0 14.9 3.7 19 9.2 4.1 5.5 15.5 2.4 17.1 13.8 2.4 16.4 6.1 38.9 11.3 50.8 4.2 9.7 18.2 14.9 20 53.6.6 13.5 6.4 33.4 6.4 33.4-2.2 12.5-39.7 20.4-49.7 23.5-9.5 2.9-30 1.1-28.8-4.3 5.7-25.4 10.4-55.6 11.2-87.1.2-9.4-1.8-18.4-9.8-26.4-2.1-2.1-10.9-1.5-15-7.3s-1.7-13.1-6.3-18.6c-4.6-5.5-5.8-6-7.5-2.8-1.7 3.2-12.3 18.3-17.7 23.7-5.4 5.4-9.6 8.8-11 10.2s-15.9 3.4-21.7 4.8c-7.2 1.8-20.2 4.2-27.7 5.5-5.5.9-7.7-10.7-3.3-11z"/><path fill="#173475" d="M237.3 321c5.3-1.2 33.8-9.2 41.2-10.6 7.3-1.4 17.7-18.8 19.4-21.3 1.7-2.4 8.6-19.3 14.5-22.4 5.9-3.2 11.9-8.8 11.9-8.8l15-6.3c17.5 11.3 7.1 20.7 9.8 30.7 4.3 16.1 26.4 18.8 34.9 46.9 12.3 40.6-8.7-3.1-5.4 89.2.3 9.5-11.2 16.1-24.9 14.6-11.1-1.2 6-53.9 6-73.1 0-4.1.7-15.6-3.1-29.2-3-10.3-8-14.2-10.7-15.2-17.7-6.4-15-7.3-15.7-19.9-.5-9.1-11.6-10.6-11.6-10.6-4.3 9.1-24.6 34.5-30.3 35.7-32.2 7.1-49.4 10.4-49.4 10.4s-6.9-8.8-1.6-10.1z"/><linearGradient id="m" gradientUnits="userSpaceOnUse" x1="304.134" y1="241.911" x2="422.251" y2="241.911"><stop offset="0" stop-color="#b02788"/><stop offset="1" stop-color="#e72e98"/></linearGradient><path fill="url(#m)" d="M311.2 224.3c-9.6-2.9-7.5-10.8-5-15.4 2.8-5.3 14.4-17.5 29.6-13.3 15.2 4.2 12.6 5.6 21.2 8.6 8.5 3 23 2.2 26 9.5 12.6 30.4 14.2 12.7 29.2 24.2 10.9 8.3 14 26.3 3.5 27.5-17.9 2-11 14.4-21.1 21.6-8.3 5.9-24.4.9-33.8-23.8-2.2-5.7-17.4-3.1-21.6-11.5-3.8-7.6-14.3-5.3-18.6-9.7-5.4-5.7 11.8-11.5-9.4-17.7z"/></svg>