<svg xmlns="http://www.w3.org/2000/svg" viewBox="0 0 36 36"><path fill="#FFF" d="M16.1 26.2l-6.7-6.6 2.8-2.8 4 3.8 8.5-8.7 2.8 2.8-11.4 11.5zM35 17.9c-1.1-1.1-1.3-2.8-.6-4.1.5-1 .5-2.1.1-3.1-.5-1-1.3-1.7-2.4-2-1.5-.3-2.6-1.6-2.7-3.1-.1-1.1-.7-2.1-1.6-2.7-.9-.6-2.1-.7-3.1-.3-1.4.5-3 0-4-1.2C20.1.5 19.1 0 18 0s-2.1.5-2.8 1.4c-.9 1.2-2.5 1.7-4 1.2-1-.4-2.2-.2-3.1.3-.8.6-1.4 1.6-1.5 2.7-.1 1.5-1.2 2.8-2.7 3.1-1.1.2-1.9 1-2.4 2s-.4 2.2.1 3.1c.7 1.4.5 3-.6 4.1-.8.8-1.1 1.9-1 3 .2 1.1.8 2 1.8 2.6 1.3.7 2 2.3 1.7 3.8-.2 1.1.1 2.2.8 3 .7.8 1.8 1.3 2.9 1.2 1.5-.1 2.9.8 3.5 2.3.4 1 1.2 1.8 2.3 2.1 1 .3 2.2.1 3-.5 1.2-.9 2.9-.9 4.1 0 .9.7 2 .8 3 .5 1-.3 1.9-1.1 2.3-2.1.5-1.4 2-2.3 3.5-2.3 1.1.1 2.1-.4 2.9-1.2.7-.8 1-1.9.8-3-.3-1.5.4-3 1.7-3.8.9-.5 1.6-1.5 1.8-2.6 0-1.1-.3-2.2-1.1-3z"/></svg>