<svg width="545" height="125" viewBox="0 0 545 125" fill="none" xmlns="http://www.w3.org/2000/svg">
<g clip-path="url(#clip0)">
<path d="M29.7 108.6C27.7 114.1 27.3 115.5 27.3 115.5C25.3 121.9 25 123.2 29.4 123.4L50.9 123.6C53.7 123.6 56.2 123 56.6 120C56.6 120 57.3 115.2 57.7 111.1C48.5 111.3 37.7 110.3 29.7 108.6ZM105.4 101.9L112.1 120.5C113.1 123 115 124.2 117.7 124.2L139.2 124.4C144.9 124.4 143 121.9 142.7 120.9C142.7 120.9 134.2 98.4 130.6 89.3C124 94.6 115.3 98.9 105.4 101.9ZM222.5 102H206.9C204.8 102 203.3 101 202.5 99.1L191.2 76.9C190.5 75.7 189.5 75.1 188.2 75.1H173.7C175.5 75.1 179.6 76.8 179.7 81V99.3C179.7 100.1 179.5 102 176.9 102H161.7C159.1 102 158.9 100 158.9 99.3V34.3C158.9 31.6 158.9 24.8 168.6 24.8H192C229.9 24.6 224.8 62.4 211.2 70.7C209.6 71.7 210.3 73 210.5 73.3L224.5 98.6C224.7 99 226.2 102 222.5 102ZM201.6 49.9C201.6 46.9 201.6 40.6 191.8 40.6H172.7C174.5 40.6 178.9 42.6 178.8 46.5V55.5C178.8 56.4 178.8 58.8 182.1 58.8H191.8C201.6 58.8 201.6 53 201.6 49.9ZM292.8 24.5C295.7 24.5 295.7 26.5 295.7 27.3V39.7C295.7 40.5 295.7 42.6 292.8 42.5H267.1C268.7 42.5 273.4 43.8 273.4 48.3V99.1C273.4 99.9 273.4 101.8 270.5 101.8H255.1C252.5 101.8 252.2 100 252.2 99.1V45.8C252.2 42.7 249.8 42.5 248.9 42.5H232.8C229.9 42.4 229.9 40.5 229.9 39.7V34C229.9 30.3 230.9 24.5 239.6 24.5H292.8ZM386.6 27.4L374.8 98.2C374.3 100.6 372.8 101.8 370.4 101.8H359.2C356.1 101.8 355.4 99.8 355.2 99C355.2 99 344.5 69.5 344.2 69.5C343.9 69.5 333.2 99 333.2 99C333 99.7 332.5 101.8 329.1 101.8H318C315.6 101.8 314.1 100.6 313.6 98.2L301.8 27.4C301.1 24.5 303.4 24.5 304 24.5H318.4C320.5 24.5 321.7 25.3 322 26.9C322 26.9 328.6 66.7 328.9 66.7C329.3 66.7 336.3 44.5 336.3 44.5C337 42.5 338.2 41.5 340 41.5H348.3C350.1 41.5 351.3 42.5 352 44.5C352 44.5 359.2 66.6 359.4 66.6C359.7 66.6 366.4 26.9 366.4 26.9C366.7 24.5 369 24.5 369.8 24.5H384.2C387.1 24.5 386.6 27.4 386.6 27.4ZM391.4 98.9L417.1 28.1C417.9 26 419.4 24.9 421.5 24.9H438.7C440.8 24.9 442.3 26 443.1 28.1L468.8 98.9C468.9 99 470.1 102.2 466.6 102.2H452.3C450.4 102.2 449.2 101.4 448.5 99.8L442.7 84.2C431.6 89.7 409.9 89 409.5 89C410.8 89.2 414.1 91.2 413.1 95.7L411.5 99.9C410.8 101.5 409.6 102.3 407.7 102.3H393.4C389.9 102.2 391.3 99 391.4 98.9ZM420.1 73.1C428.8 73.1 436.7 69.7 438.6 68.7L430.1 44.3L420.1 73.1ZM497.8 99.3V79.6C497.9 76.2 496.7 73.8 496.2 72.9L472.2 28.3C470.7 25.5 473.6 24.7 474.2 24.7H488.7C491 24.7 491.9 25.3 492.7 27.1C495.4 31.9 507.8 54.8 508 54.8C508.2 54.8 520.8 31.9 523.4 27.1C524.4 25.5 525.7 24.7 527.4 24.7H542C545.2 24.7 544.2 27.9 544 28.3C539.7 36.3 520.2 72.6 520 72.8C519.5 73.8 518.3 76.1 518.4 79.2V99.3C518.4 100.2 518.5 102.2 515.5 102.1H500.4C497.9 102.1 497.8 100.1 497.8 99.3Z" fill="#09223D"/>
<path d="M118 26.8C158.9 30.8 159.6 59.5 113.5 81.7C90.2 92.9 61.8 97.8 46.2 92C58.2 102.7 99.9 93.8 126 79.7C144.4 69.7 156.6 58.6 158.9 47.7C152.6 77.5 97.3 101.5 54.5 99.5C32.8 98.5 23.2 88.5 33.9 74.8C13.8 91.6 31.3 104.4 58.5 104C77.7 103.7 99.6 98.2 119.8 89.6C69.5 111.7 12.7 110 20.4 84.1C23.9 72.2 42.1 58.8 66.6 51.3C34.5 57.4 10.3 79.1 11.4 92.9C12.2 102.6 23 108.5 39.7 110.4C-3.19998 106.2 -0.79998 75.1 48.6 53.5C71.2 43.6 97 39.8 111.5 45.2C99.5 34.5 57.8 43.4 31.7 57.5C13.2 67.5 60.4 35.7 103.2 37.7C124.9 38.7 134.5 48.7 123.8 62.4C143.9 45.6 126.4 32.8 99.2 33.2C80 33.5 58.1 39 38 47.7C88.3 25.5 145.1 27.2 137.4 53.1C133.9 65 115.7 78.4 91.2 85.9C123.4 79.8 147.5 58.1 146.4 44.3C145.6 34.6 134.8 28.7 118 26.8V26.8Z" fill="#09223D"/>
<path d="M162.5 58.4C159.4 63.3 154.6 68.6 148.2 73.5C143.4 77.2 137.9 80.4 132 83.2C137.7 80.2 142.9 76.9 147.2 73.3C152.9 68.6 156.8 63.6 159.1 59.1C159.8 57.6 160.3 56.4 160.4 55.9C160.5 55.3 161.6 54.5 162.7 54.2C163.8 53.9 164.6 54.1 164.4 54.7C164.5 54.9 163.8 56.4 162.5 58.4V58.4ZM17.6 63.2C21.8 59.4 29.7 53.9 39 49.3C46.5 45.7 51.9 43.7 58.4 41.9C65.3 40.1 70.8 39.4 75.2 39.6C65 41.8 61.2 43 57.5 44.1C55.9 44.7 48.7 46.8 39.3 51.2C31.9 54.6 24.3 58.8 17.6 63.2V63.2ZM98.2 100.2C93.1 102.7 84 105.7 73.7 107.5C65.5 108.9 59.7 109.3 53 109.2C45.9 109 40.4 108.1 36.2 106.7C46.6 107.5 73.7 107.6 98.2 100.2ZM21.5 99.4C17.8 99.4 14.6 96.9 14.4 92.5C14.2 88.4 16.4 83 20 77.8C18.1 82.8 16.7 87 16.9 91C17 94.5 18.6 97.6 21.5 99.4ZM146.9 35.2C152 36.4 155.8 40.7 154.8 47.1C153.8 53.2 148.8 60.4 141.7 66.7C146.2 60.1 149.8 54.2 150.7 48.4C151.5 43.2 150.1 38.6 146.9 35.2ZM6.99998 100.3C0.899982 96.6 -2.20002 89.5 1.79998 81.7C5.59998 74.2 15 67.1 26.9 61.8C18.4 68.4 11.3 74.6 7.69998 81.6C4.39998 88 4.19998 94.6 6.99998 100.3V100.3ZM110.6 27.8C116.1 28.3 121.1 29.2 125.5 30.6C135.1 33.7 139.1 37.8 140.5 43.4C138 38.2 133.2 34.5 123.1 32.1C118.6 31.1 113.5 30.5 108 30.2C101.3 29.9 94.2 30.3 90.9 30.6C89.1 30.8 88 30.2 88.4 29.3C88.8 28.4 90.6 27.5 92.4 27.3C93.1 27.3 101.4 26.9 110.6 27.8V27.8Z" fill="white"/>
<path d="M97.8 66.3L97.9 66.6C89.9 71.5 79.3 76.4 62.6 80C60 80.5 57.3 80.9 54.5 81.3C89.1 82.7 111.7 67.9 119.2 63.7L95.9 3.80001C94.7 1.10001 92.8 -0.0999947 90.1 5.33881e-06L68.3 1.20001C65.6 1.30001 63.8 2.80001 62.9 5.60001L40 79.3C62.7 79.9 88.3 71.6 97.8 66.3ZM80.4 25.2L90.7 53.1C81.8 60.5 73.9 62.3 68.9 62.8L80.4 25.2V25.2Z" fill="url(#paint0_linear)"/>
</g>
<defs>
<linearGradient id="paint0_linear" x1="31.521" y1="59.414" x2="106.074" y2="27.768" gradientUnits="userSpaceOnUse">
<stop offset="0.185" stop-color="#EF8135"/>
<stop offset="0.463" stop-color="#E2497C"/>
<stop offset="0.765" stop-color="#7A33D1"/>
<stop offset="1" stop-color="#7991EE"/>
</linearGradient>
<clipPath id="clip0">
<rect width="544.3" height="124.4" fill="white"/>
</clipPath>
</defs>
</svg>
