<svg xmlns="http://www.w3.org/2000/svg" viewBox="0 0 24 24"><path fill="0" d="M22.9 19.5c0 1 .6 2.4 1.1 3.5-1.4-.3-3.4-.8-4.4-1.4-3.4.8-6.1-.3-7.6-2.1 4.6-.7 8.2-3.6 9.5-7.3 1.5 1 2.5 2.5 2.5 4.3 0 1.1-.4 2.2-1.1 3zm-8.4-8.8c-.7 0-1.2-.6-1.2-1.2 0-.7.6-1.2 1.2-1.2s1.3.6 1.3 1.2c0 .7-.6 1.2-1.3 1.2zm-4.5 0c-.7 0-1.3-.6-1.3-1.2 0-.7.6-1.2 1.3-1.2.7 0 1.2.6 1.2 1.2.1.7-.5 1.2-1.2 1.2zm-4.5 0c-.7 0-1.2-.6-1.2-1.2 0-.7.6-1.2 1.2-1.2s1.2.6 1.2 1.2c0 .7-.5 1.2-1.2 1.2zM20 9.4C20 4.5 15.2 1 10 1 4.7 1 0 4.5 0 9.4c0 1.7.6 3.4 1.7 4.7 0 1.5-.9 3.7-1.7 5.3 2.2-.4 5.3-1.3 6.6-2.1C14.4 19.1 20 14.4 20 9.4z"/></svg>