<svg xmlns="http://www.w3.org/2000/svg" viewBox="0 0 164.5 124.4"><path fill="#09223D" d="M29.7 108.6c-2 5.5-2.4 6.9-2.4 6.9-2 6.4-2.3 7.7 2.1 7.9l21.5.2c2.8 0 5.3-.6 5.7-3.6 0 0 .7-4.8 1.1-8.9-9.2.2-20-.8-28-2.5zM105.4 101.9l6.7 18.6c1 2.5 2.9 3.7 5.6 3.7l21.5.2c5.7 0 3.8-2.5 3.5-3.5 0 0-8.5-22.5-12.1-31.6-6.6 5.3-15.3 9.6-25.2 12.6z"/><path fill="#09223D" d="M118 26.8c40.9 4 41.6 32.7-4.5 54.9C90.2 92.9 61.8 97.8 46.2 92c12 10.7 53.7 1.8 79.8-12.3 18.4-10 30.6-21.1 32.9-32-6.3 29.8-61.6 53.8-104.4 51.8-21.7-1-31.3-11-20.6-24.7-20.1 16.8-2.6 29.6 24.6 29.2 19.2-.3 41.1-5.8 61.3-14.4-50.3 22.1-107.1 20.4-99.4-5.5 3.5-11.9 21.7-25.3 46.2-32.8-32.1 6.1-56.3 27.8-55.2 41.6.8 9.7 11.6 15.6 28.3 17.5-42.9-4.2-40.5-35.3 8.9-56.9 22.6-9.9 48.4-13.7 62.9-8.3-12-10.7-53.7-1.8-79.8 12.3-18.5 10 28.7-21.8 71.5-19.8 21.7 1 31.3 11 20.6 24.7 20.1-16.8 2.6-29.6-24.6-29.2C80 33.5 58.1 39 38 47.7c50.3-22.2 107.1-20.5 99.4 5.4-3.5 11.9-21.7 25.3-46.2 32.8 32.2-6.1 56.3-27.8 55.2-41.6-.8-9.7-11.6-15.6-28.4-17.5z"/><path fill="#09223D" d="M162.5 58.4c-3.1 4.9-7.9 10.2-14.3 15.1-4.8 3.7-10.3 6.9-16.2 9.7 5.7-3 10.9-6.3 15.2-9.9 5.7-4.7 9.6-9.7 11.9-14.2.7-1.5 1.2-2.7 1.3-3.2.1-.6 1.2-1.4 2.3-1.7 1.1-.3 1.9-.1 1.7.5.1.2-.6 1.7-1.9 3.7zM17.6 63.2c4.2-3.8 12.1-9.3 21.4-13.9 7.5-3.6 12.9-5.6 19.4-7.4 6.9-1.8 12.4-2.5 16.8-2.3-10.2 2.2-14 3.4-17.7 4.5-1.6.6-8.8 2.7-18.2 7.1-7.4 3.4-15 7.6-21.7 12zM98.2 100.2c-5.1 2.5-14.2 5.5-24.5 7.3-8.2 1.4-14 1.8-20.7 1.7-7.1-.2-12.6-1.1-16.8-2.5 10.4.8 37.5.9 62-6.5zM21.5 99.4c-3.7 0-6.9-2.5-7.1-6.9-.2-4.1 2-9.5 5.6-14.7-1.9 5-3.3 9.2-3.1 13.2.1 3.5 1.7 6.6 4.6 8.4zM146.9 35.2c5.1 1.2 8.9 5.5 7.9 11.9-1 6.1-6 13.3-13.1 19.6 4.5-6.6 8.1-12.5 9-18.3.8-5.2-.6-9.8-3.8-13.2zM7 100.3C.9 96.6-2.2 89.5 1.8 81.7 5.6 74.2 15 67.1 26.9 61.8c-8.5 6.6-15.6 12.8-19.2 19.8-3.3 6.4-3.5 13-.7 18.7zM110.6 27.8c5.5.5 10.5 1.4 14.9 2.8 9.6 3.1 13.6 7.2 15 12.8-2.5-5.2-7.3-8.9-17.4-11.3-4.5-1-9.6-1.6-15.1-1.9-6.7-.3-13.8.1-17.1.4-1.8.2-2.9-.4-2.5-1.3.4-.9 2.2-1.8 4-2 .7 0 9-.4 18.2.5z"/><linearGradient id="a" gradientUnits="userSpaceOnUse" x1="31.521" y1="59.414" x2="106.074" y2="27.768"><stop offset=".185" stop-color="#ef8135"/><stop offset=".463" stop-color="#e2497c"/><stop offset=".765" stop-color="#7a33d1"/><stop offset="1" stop-color="#7991ee"/></linearGradient><path fill="url(#a)" d="M97.8 66.3l.1.3c-8 4.9-18.6 9.8-35.3 13.4-2.6.5-5.3.9-8.1 1.3 34.6 1.4 57.2-13.4 64.7-17.6L95.9 3.8C94.7 1.1 92.8-.1 90.1 0L68.3 1.2c-2.7.1-4.5 1.6-5.4 4.4L40 79.3c22.7.6 48.3-7.7 57.8-13zM80.4 25.2l10.3 27.9c-8.9 7.4-16.8 9.2-21.8 9.7l11.5-37.6z"/></svg>